G04 #@! TF.GenerationSoftware,KiCad,Pcbnew,7.0.1-3b83917a11~172~ubuntu22.04.1*
G04 #@! TF.CreationDate,2023-04-09T22:51:03+09:00*
G04 #@! TF.ProjectId,Akashi-14,416b6173-6869-42d3-9134-2e6b69636164,rev?*
G04 #@! TF.SameCoordinates,Original*
G04 #@! TF.FileFunction,Copper,L2,Bot*
G04 #@! TF.FilePolarity,Positive*
%FSLAX46Y46*%
G04 Gerber Fmt 4.6, Leading zero omitted, Abs format (unit mm)*
G04 Created by KiCad (PCBNEW 7.0.1-3b83917a11~172~ubuntu22.04.1) date 2023-04-09 22:51:03*
%MOMM*%
%LPD*%
G01*
G04 APERTURE LIST*
G04 #@! TA.AperFunction,ComponentPad*
%ADD10R,1.700000X1.700000*%
G04 #@! TD*
G04 #@! TA.AperFunction,ComponentPad*
%ADD11O,1.700000X1.700000*%
G04 #@! TD*
G04 #@! TA.AperFunction,ComponentPad*
%ADD12C,1.600000*%
G04 #@! TD*
G04 #@! TA.AperFunction,ComponentPad*
%ADD13O,1.600000X1.600000*%
G04 #@! TD*
G04 #@! TA.AperFunction,ViaPad*
%ADD14C,0.500000*%
G04 #@! TD*
G04 #@! TA.AperFunction,ViaPad*
%ADD15C,0.800000*%
G04 #@! TD*
G04 #@! TA.AperFunction,Conductor*
%ADD16C,0.250000*%
G04 #@! TD*
G04 APERTURE END LIST*
D10*
X113030000Y-95250000D03*
D11*
X113030000Y-97790000D03*
X113030000Y-100330000D03*
X113030000Y-102870000D03*
X113030000Y-105410000D03*
X113030000Y-107950000D03*
X113030000Y-110490000D03*
X113030000Y-113030000D03*
X113030000Y-115570000D03*
D12*
X138430000Y-106680000D03*
D13*
X138430000Y-116840000D03*
D12*
X142240000Y-106680000D03*
D13*
X142240000Y-116840000D03*
D12*
X130810000Y-123150000D03*
X130810000Y-120650000D03*
X123190000Y-106680000D03*
D13*
X123190000Y-116840000D03*
D12*
X128270000Y-106680000D03*
D13*
X128270000Y-116840000D03*
D10*
X149860000Y-95250000D03*
D11*
X149860000Y-97790000D03*
X149860000Y-100330000D03*
X149860000Y-102870000D03*
X149860000Y-105410000D03*
X149860000Y-107950000D03*
X149860000Y-110490000D03*
X149860000Y-113030000D03*
X149860000Y-115570000D03*
D10*
X160020000Y-66040000D03*
D11*
X162560000Y-66040000D03*
X160020000Y-68580000D03*
X162560000Y-68580000D03*
X160020000Y-71120000D03*
X162560000Y-71120000D03*
X160020000Y-73660000D03*
X162560000Y-73660000D03*
X160020000Y-76200000D03*
X162560000Y-76200000D03*
X160020000Y-78740000D03*
X162560000Y-78740000D03*
X160020000Y-81280000D03*
X162560000Y-81280000D03*
X160020000Y-83820000D03*
X162560000Y-83820000D03*
X160020000Y-86360000D03*
X162560000Y-86360000D03*
X160020000Y-88900000D03*
X162560000Y-88900000D03*
X160020000Y-91440000D03*
X162560000Y-91440000D03*
X160020000Y-93980000D03*
X162560000Y-93980000D03*
X160020000Y-96520000D03*
X162560000Y-96520000D03*
X160020000Y-99060000D03*
X162560000Y-99060000D03*
X160020000Y-101600000D03*
X162560000Y-101600000D03*
X160020000Y-104140000D03*
X162560000Y-104140000D03*
X160020000Y-106680000D03*
X162560000Y-106680000D03*
X160020000Y-109220000D03*
X162560000Y-109220000D03*
X160020000Y-111760000D03*
X162560000Y-111760000D03*
X160020000Y-114300000D03*
X162560000Y-114300000D03*
X160020000Y-116840000D03*
X162560000Y-116840000D03*
X160020000Y-119380000D03*
X162560000Y-119380000D03*
X160020000Y-121920000D03*
X162560000Y-121920000D03*
X160020000Y-124460000D03*
X162560000Y-124460000D03*
X160020000Y-127000000D03*
X162560000Y-127000000D03*
X160020000Y-129540000D03*
X162560000Y-129540000D03*
X160020000Y-132080000D03*
X162560000Y-132080000D03*
X160020000Y-134620000D03*
X162560000Y-134620000D03*
X160020000Y-137160000D03*
X162560000Y-137160000D03*
X160020000Y-139700000D03*
X162560000Y-139700000D03*
X160020000Y-142240000D03*
X162560000Y-142240000D03*
X160020000Y-144780000D03*
X162560000Y-144780000D03*
X160020000Y-147320000D03*
X162560000Y-147320000D03*
X160020000Y-149860000D03*
X162560000Y-149860000D03*
X160020000Y-152400000D03*
X162560000Y-152400000D03*
D10*
X100310000Y-66040000D03*
D11*
X102850000Y-66040000D03*
X100310000Y-68580000D03*
X102850000Y-68580000D03*
X100310000Y-71120000D03*
X102850000Y-71120000D03*
X100310000Y-73660000D03*
X102850000Y-73660000D03*
X100310000Y-76200000D03*
X102850000Y-76200000D03*
X100310000Y-78740000D03*
X102850000Y-78740000D03*
X100310000Y-81280000D03*
X102850000Y-81280000D03*
X100310000Y-83820000D03*
X102850000Y-83820000D03*
X100310000Y-86360000D03*
X102850000Y-86360000D03*
X100310000Y-88900000D03*
X102850000Y-88900000D03*
X100310000Y-91440000D03*
X102850000Y-91440000D03*
X100310000Y-93980000D03*
X102850000Y-93980000D03*
X100310000Y-96520000D03*
X102850000Y-96520000D03*
X100310000Y-99060000D03*
X102850000Y-99060000D03*
X100310000Y-101600000D03*
X102850000Y-101600000D03*
X100310000Y-104140000D03*
X102850000Y-104140000D03*
X100310000Y-106680000D03*
X102850000Y-106680000D03*
X100310000Y-109220000D03*
X102850000Y-109220000D03*
X100310000Y-111760000D03*
X102850000Y-111760000D03*
X100310000Y-114300000D03*
X102850000Y-114300000D03*
X100310000Y-116840000D03*
X102850000Y-116840000D03*
X100310000Y-119380000D03*
X102850000Y-119380000D03*
X100310000Y-121920000D03*
X102850000Y-121920000D03*
X100310000Y-124460000D03*
X102850000Y-124460000D03*
X100310000Y-127000000D03*
X102850000Y-127000000D03*
X100310000Y-129540000D03*
X102850000Y-129540000D03*
X100310000Y-132080000D03*
X102850000Y-132080000D03*
X100310000Y-134620000D03*
X102850000Y-134620000D03*
X100310000Y-137160000D03*
X102850000Y-137160000D03*
X100310000Y-139700000D03*
X102850000Y-139700000D03*
X100310000Y-142240000D03*
X102850000Y-142240000D03*
X100310000Y-144780000D03*
X102850000Y-144780000D03*
X100310000Y-147320000D03*
X102850000Y-147320000D03*
X100310000Y-149860000D03*
X102850000Y-149860000D03*
X100310000Y-152400000D03*
X102850000Y-152400000D03*
D14*
X106680000Y-127000000D03*
X127361200Y-120650000D03*
X126091200Y-120650000D03*
X157480000Y-122555000D03*
D15*
X136525000Y-123825000D03*
D14*
X113665000Y-123190000D03*
X109220000Y-137160000D03*
X138430000Y-121285000D03*
X119380000Y-123190000D03*
X128631200Y-120650000D03*
X122555000Y-120650000D03*
X116205000Y-123190000D03*
X110490000Y-123190000D03*
D15*
X134007341Y-123847341D03*
D14*
X116840000Y-106680000D03*
X157480000Y-114300000D03*
X109220000Y-132080000D03*
X125095000Y-106045000D03*
X106680000Y-129540000D03*
X127000000Y-104140000D03*
X125095000Y-118110000D03*
X119380000Y-106680000D03*
D15*
X127613900Y-112509400D03*
X128300500Y-114149000D03*
X116786200Y-124841100D03*
X121440400Y-124241500D03*
X119189500Y-124977800D03*
X122768200Y-125404100D03*
X120849400Y-125752100D03*
D14*
X151130000Y-79375000D03*
X147955000Y-79375000D03*
X136525000Y-118745000D03*
X132080000Y-114300000D03*
D16*
X134029682Y-123825000D02*
X134007341Y-123847341D01*
X120015000Y-123190000D02*
X119380000Y-123190000D01*
X109220000Y-132080000D02*
X109220000Y-137160000D01*
X113665000Y-123190000D02*
X110490000Y-123190000D01*
X122555000Y-120650000D02*
X125095000Y-118110000D01*
X116205000Y-123190000D02*
X113665000Y-123190000D01*
X120015000Y-123190000D02*
X122555000Y-120650000D01*
X127000000Y-104140000D02*
X125095000Y-106045000D01*
X136525000Y-123190000D02*
X138430000Y-121285000D01*
X136525000Y-123825000D02*
X134029682Y-123825000D01*
X157480000Y-114300000D02*
X157480000Y-122555000D01*
X136525000Y-123825000D02*
X136525000Y-123190000D01*
X116840000Y-106680000D02*
X119380000Y-106680000D01*
X106680000Y-127000000D02*
X106680000Y-129540000D01*
X126091200Y-120650000D02*
X130810000Y-120650000D01*
X103250800Y-125730000D02*
X110751400Y-118229400D01*
X112748100Y-111617500D02*
X113030000Y-111617500D01*
X101437500Y-127567000D02*
X101437500Y-126816600D01*
X113030000Y-111053700D02*
X113030000Y-111617500D01*
X113030000Y-110490000D02*
X113030000Y-111053700D01*
X110751400Y-118229400D02*
X110751400Y-113614200D01*
X102524100Y-125730000D02*
X103250800Y-125730000D01*
X114485700Y-112509400D02*
X127613900Y-112509400D01*
X110751400Y-113614200D02*
X112748100Y-111617500D01*
X101437500Y-126816600D02*
X102524100Y-125730000D01*
X100310000Y-128412500D02*
X100592000Y-128412500D01*
X100592000Y-128412500D02*
X101437500Y-127567000D01*
X100310000Y-129540000D02*
X100310000Y-128412500D01*
X113030000Y-111053700D02*
X114485700Y-112509400D01*
X111902500Y-119641900D02*
X111902500Y-115003000D01*
X102850000Y-129540000D02*
X102850000Y-128412500D01*
X111902500Y-115003000D02*
X112748000Y-114157500D01*
X102850000Y-128412500D02*
X103131900Y-128412500D01*
X113030000Y-113030000D02*
X113030000Y-114157500D01*
X113038500Y-114149000D02*
X113030000Y-114157500D01*
X103131900Y-128412500D02*
X111902500Y-119641900D01*
X112748000Y-114157500D02*
X113030000Y-114157500D01*
X128300500Y-114149000D02*
X113038500Y-114149000D01*
X135840100Y-115762400D02*
X148732500Y-102870000D01*
X115551600Y-124841100D02*
X116786200Y-124841100D01*
X116786200Y-124841100D02*
X125864900Y-115762400D01*
X101437500Y-134620000D02*
X101437500Y-134338000D01*
X149860000Y-102870000D02*
X148732500Y-102870000D01*
X125864900Y-115762400D02*
X135840100Y-115762400D01*
X101437500Y-134338000D02*
X102283000Y-133492500D01*
X106900200Y-133492500D02*
X115551600Y-124841100D01*
X102283000Y-133492500D02*
X106900200Y-133492500D01*
X100310000Y-134620000D02*
X101437500Y-134620000D01*
X100310000Y-114300000D02*
X100310000Y-113172500D01*
X113030000Y-95250000D02*
X113030000Y-96377500D01*
X102524100Y-110490000D02*
X103250100Y-110490000D01*
X101437500Y-112327000D02*
X101437500Y-111576600D01*
X100592000Y-113172500D02*
X101437500Y-112327000D01*
X100310000Y-113172500D02*
X100592000Y-113172500D01*
X101437500Y-111576600D02*
X102524100Y-110490000D01*
X110751400Y-102988700D02*
X110751400Y-98374200D01*
X110751400Y-98374200D02*
X112748100Y-96377500D01*
X103250100Y-110490000D02*
X110751400Y-102988700D01*
X112748100Y-96377500D02*
X113030000Y-96377500D01*
X103102600Y-113172400D02*
X102382600Y-113172400D01*
X111469400Y-104805600D02*
X103102600Y-113172400D01*
X100310000Y-116840000D02*
X100310000Y-115712500D01*
X101437500Y-114867000D02*
X100592000Y-115712500D01*
X112748100Y-98917500D02*
X111469400Y-100196200D01*
X100592000Y-115712500D02*
X100310000Y-115712500D01*
X111469400Y-100196200D02*
X111469400Y-104805600D01*
X113030000Y-98917500D02*
X112748100Y-98917500D01*
X113030000Y-97790000D02*
X113030000Y-98917500D01*
X101437500Y-114117500D02*
X101437500Y-114867000D01*
X102382600Y-113172400D02*
X101437500Y-114117500D01*
X100310000Y-119380000D02*
X101437500Y-119380000D01*
X103072400Y-118252500D02*
X111902500Y-109422400D01*
X101437500Y-119098000D02*
X102283000Y-118252500D01*
X102283000Y-118252500D02*
X103072400Y-118252500D01*
X111902500Y-102303000D02*
X112748000Y-101457500D01*
X101437500Y-119380000D02*
X101437500Y-119098000D01*
X112748000Y-101457500D02*
X113030000Y-101457500D01*
X113030000Y-100330000D02*
X113030000Y-101457500D01*
X111902500Y-109422400D02*
X111902500Y-102303000D01*
X150423800Y-107950000D02*
X150987500Y-107950000D01*
X162560000Y-114300000D02*
X161432500Y-114300000D01*
X161432500Y-114300000D02*
X161432500Y-114018000D01*
X148732500Y-107950000D02*
X148732500Y-108164900D01*
X156210000Y-113172500D02*
X150987500Y-107950000D01*
X148732500Y-108164900D02*
X132655900Y-124241500D01*
X149860000Y-107950000D02*
X148732500Y-107950000D01*
X160587000Y-113172500D02*
X156210000Y-113172500D01*
X161432500Y-114018000D02*
X160587000Y-113172500D01*
X132655900Y-124241500D02*
X121440400Y-124241500D01*
X150423800Y-107950000D02*
X149860000Y-107950000D01*
X161147600Y-111292600D02*
X161147600Y-111980000D01*
X161147600Y-111980000D02*
X162197600Y-113030000D01*
X150423800Y-105410000D02*
X149860000Y-105410000D01*
X134313900Y-119008000D02*
X125159300Y-119008000D01*
X162560000Y-119380000D02*
X162560000Y-118252500D01*
X162842000Y-118252500D02*
X162560000Y-118252500D01*
X150987500Y-105410000D02*
X156209900Y-110632400D01*
X147911900Y-105410000D02*
X134313900Y-119008000D01*
X160487400Y-110632400D02*
X161147600Y-111292600D01*
X150423800Y-105410000D02*
X150987500Y-105410000D01*
X162197600Y-113030000D02*
X162942700Y-113030000D01*
X163687500Y-117407000D02*
X162842000Y-118252500D01*
X125159300Y-119008000D02*
X119189500Y-124977800D01*
X163687500Y-113774800D02*
X163687500Y-117407000D01*
X162942700Y-113030000D02*
X163687500Y-113774800D01*
X156209900Y-110632400D02*
X160487400Y-110632400D01*
X149860000Y-105410000D02*
X147911900Y-105410000D01*
X148732500Y-113030000D02*
X136358400Y-125404100D01*
X149860000Y-113030000D02*
X148732500Y-113030000D01*
X136358400Y-125404100D02*
X122768200Y-125404100D01*
X161009700Y-67167500D02*
X159765600Y-67167500D01*
X159765600Y-67167500D02*
X153797700Y-73135400D01*
X126198300Y-102870000D02*
X113030000Y-102870000D01*
X153797700Y-75270600D02*
X126198300Y-102870000D01*
X161432500Y-66744700D02*
X161009700Y-67167500D01*
X153797700Y-73135400D02*
X153797700Y-75270600D01*
X162560000Y-66040000D02*
X161432500Y-66040000D01*
X161432500Y-66040000D02*
X161432500Y-66744700D01*
X161432500Y-126816600D02*
X160345900Y-125730000D01*
X141974300Y-126111500D02*
X121208800Y-126111500D01*
X149860000Y-110490000D02*
X149860000Y-111617500D01*
X162560000Y-128412500D02*
X162278000Y-128412500D01*
X150987500Y-117098300D02*
X150987500Y-112463000D01*
X159619200Y-125730000D02*
X150987500Y-117098300D01*
X121208800Y-126111500D02*
X120849400Y-125752100D01*
X162278000Y-128412500D02*
X161432500Y-127567000D01*
X150987500Y-112463000D02*
X150142000Y-111617500D01*
X162560000Y-129540000D02*
X162560000Y-128412500D01*
X161432500Y-127567000D02*
X161432500Y-126816600D01*
X160345900Y-125730000D02*
X159619200Y-125730000D01*
X150142000Y-111617500D02*
X149860000Y-111617500D01*
X150987500Y-117098300D02*
X141974300Y-126111500D01*
G04 #@! TA.AperFunction,Conductor*
G36*
X111063000Y-64151613D02*
G01*
X111108387Y-64197000D01*
X111125000Y-64259000D01*
X111125000Y-78105000D01*
X149779348Y-78105000D01*
X149835643Y-78118515D01*
X149879666Y-78156115D01*
X149901821Y-78209602D01*
X149897279Y-78267318D01*
X149867029Y-78316680D01*
X137917744Y-90265965D01*
X125975528Y-102208181D01*
X125935300Y-102235061D01*
X125887847Y-102244500D01*
X114305226Y-102244500D01*
X114247969Y-102230489D01*
X114203651Y-102191623D01*
X114068494Y-101998598D01*
X113901404Y-101831508D01*
X113901401Y-101831505D01*
X113715839Y-101701573D01*
X113676974Y-101657255D01*
X113662964Y-101599999D01*
X113676975Y-101542742D01*
X113715837Y-101498428D01*
X113901401Y-101368495D01*
X114068495Y-101201401D01*
X114204035Y-101007830D01*
X114303903Y-100793663D01*
X114365063Y-100565408D01*
X114385659Y-100330000D01*
X114380649Y-100272742D01*
X114365063Y-100094592D01*
X114321337Y-99931404D01*
X114303903Y-99866337D01*
X114204035Y-99652171D01*
X114068495Y-99458599D01*
X113901401Y-99291505D01*
X113715839Y-99161573D01*
X113676975Y-99117257D01*
X113662964Y-99060000D01*
X113676975Y-99002743D01*
X113715839Y-98958426D01*
X113901401Y-98828495D01*
X114068495Y-98661401D01*
X114204035Y-98467830D01*
X114303903Y-98253663D01*
X114365063Y-98025408D01*
X114385659Y-97790000D01*
X114365063Y-97554592D01*
X114303903Y-97326337D01*
X114204035Y-97112171D01*
X114068495Y-96918599D01*
X113946569Y-96796673D01*
X113915273Y-96743927D01*
X113913084Y-96682634D01*
X113940537Y-96627789D01*
X113990916Y-96592810D01*
X114122331Y-96543796D01*
X114237546Y-96457546D01*
X114323796Y-96342331D01*
X114374091Y-96207483D01*
X114380500Y-96147873D01*
X114380499Y-94352128D01*
X114374091Y-94292517D01*
X114323796Y-94157669D01*
X114237546Y-94042454D01*
X114122331Y-93956204D01*
X113987483Y-93905909D01*
X113927873Y-93899500D01*
X113927869Y-93899500D01*
X112132130Y-93899500D01*
X112072515Y-93905909D01*
X111937669Y-93956204D01*
X111822454Y-94042454D01*
X111736204Y-94157668D01*
X111685909Y-94292516D01*
X111679500Y-94352130D01*
X111679500Y-96147869D01*
X111685909Y-96207483D01*
X111736204Y-96342331D01*
X111741370Y-96349233D01*
X111764386Y-96402979D01*
X111760215Y-96461298D01*
X111729784Y-96511223D01*
X110367608Y-97873399D01*
X110351510Y-97886296D01*
X110303496Y-97937425D01*
X110300791Y-97940217D01*
X110281274Y-97959734D01*
X110278815Y-97962905D01*
X110271242Y-97971772D01*
X110241335Y-98003620D01*
X110231685Y-98021174D01*
X110221009Y-98037428D01*
X110208726Y-98053263D01*
X110191375Y-98093358D01*
X110186238Y-98103844D01*
X110165202Y-98142107D01*
X110160221Y-98161509D01*
X110153920Y-98179911D01*
X110145961Y-98198302D01*
X110139128Y-98241442D01*
X110136760Y-98252874D01*
X110125900Y-98295178D01*
X110125900Y-98315216D01*
X110124373Y-98334613D01*
X110121240Y-98354396D01*
X110123108Y-98374159D01*
X110125350Y-98397875D01*
X110125900Y-98409544D01*
X110125900Y-102678247D01*
X110116461Y-102725700D01*
X110089581Y-102765928D01*
X104241259Y-108614248D01*
X104190866Y-108644828D01*
X104132046Y-108648683D01*
X104078092Y-108624943D01*
X104041196Y-108578973D01*
X104024035Y-108542171D01*
X103888495Y-108348599D01*
X103721401Y-108181505D01*
X103535839Y-108051573D01*
X103496975Y-108007257D01*
X103482964Y-107950000D01*
X103496975Y-107892743D01*
X103535839Y-107848426D01*
X103721401Y-107718495D01*
X103888495Y-107551401D01*
X104024035Y-107357830D01*
X104123903Y-107143663D01*
X104185063Y-106915408D01*
X104205659Y-106680000D01*
X104185063Y-106444592D01*
X104123903Y-106216337D01*
X104024035Y-106002171D01*
X103888495Y-105808599D01*
X103721401Y-105641505D01*
X103535839Y-105511573D01*
X103496975Y-105467257D01*
X103482964Y-105410000D01*
X103496975Y-105352743D01*
X103535839Y-105308426D01*
X103721401Y-105178495D01*
X103888495Y-105011401D01*
X104024035Y-104817830D01*
X104123903Y-104603663D01*
X104185063Y-104375408D01*
X104205659Y-104140000D01*
X104185063Y-103904592D01*
X104123903Y-103676337D01*
X104024035Y-103462171D01*
X103888495Y-103268599D01*
X103721401Y-103101505D01*
X103535839Y-102971573D01*
X103496974Y-102927255D01*
X103482964Y-102869999D01*
X103496975Y-102812742D01*
X103535837Y-102768428D01*
X103721401Y-102638495D01*
X103888495Y-102471401D01*
X104024035Y-102277830D01*
X104123903Y-102063663D01*
X104185063Y-101835408D01*
X104205659Y-101600000D01*
X104200649Y-101542742D01*
X104185063Y-101364592D01*
X104141337Y-101201404D01*
X104123903Y-101136337D01*
X104024035Y-100922171D01*
X103888495Y-100728599D01*
X103721401Y-100561505D01*
X103535839Y-100431573D01*
X103496975Y-100387257D01*
X103482964Y-100330000D01*
X103496975Y-100272743D01*
X103535839Y-100228426D01*
X103721401Y-100098495D01*
X103888495Y-99931401D01*
X104024035Y-99737830D01*
X104123903Y-99523663D01*
X104185063Y-99295408D01*
X104205659Y-99060000D01*
X104200649Y-99002742D01*
X104185063Y-98824592D01*
X104181239Y-98810319D01*
X104123903Y-98596337D01*
X104024035Y-98382171D01*
X103888495Y-98188599D01*
X103721401Y-98021505D01*
X103535839Y-97891573D01*
X103496976Y-97847257D01*
X103482965Y-97790000D01*
X103496976Y-97732743D01*
X103535839Y-97688426D01*
X103721401Y-97558495D01*
X103888495Y-97391401D01*
X104024035Y-97197830D01*
X104123903Y-96983663D01*
X104185063Y-96755408D01*
X104205659Y-96520000D01*
X104185063Y-96284592D01*
X104123903Y-96056337D01*
X104024035Y-95842171D01*
X103888495Y-95648599D01*
X103721401Y-95481505D01*
X103535839Y-95351573D01*
X103496975Y-95307257D01*
X103482964Y-95250000D01*
X103496975Y-95192743D01*
X103535839Y-95148426D01*
X103721401Y-95018495D01*
X103888495Y-94851401D01*
X104024035Y-94657830D01*
X104123903Y-94443663D01*
X104185063Y-94215408D01*
X104205659Y-93980000D01*
X104185063Y-93744592D01*
X104123903Y-93516337D01*
X104024035Y-93302171D01*
X103888495Y-93108599D01*
X103721401Y-92941505D01*
X103535839Y-92811573D01*
X103496974Y-92767255D01*
X103482964Y-92709999D01*
X103496975Y-92652742D01*
X103535837Y-92608428D01*
X103721401Y-92478495D01*
X103888495Y-92311401D01*
X104024035Y-92117830D01*
X104123903Y-91903663D01*
X104185063Y-91675408D01*
X104205659Y-91440000D01*
X104185063Y-91204592D01*
X104123903Y-90976337D01*
X104024035Y-90762171D01*
X103888495Y-90568599D01*
X103721401Y-90401505D01*
X103535839Y-90271573D01*
X103496975Y-90227257D01*
X103482964Y-90170000D01*
X103496975Y-90112743D01*
X103535839Y-90068426D01*
X103721401Y-89938495D01*
X103888495Y-89771401D01*
X104024035Y-89577830D01*
X104123903Y-89363663D01*
X104185063Y-89135408D01*
X104205659Y-88900000D01*
X104185063Y-88664592D01*
X104123903Y-88436337D01*
X104024035Y-88222171D01*
X103888495Y-88028599D01*
X103721401Y-87861505D01*
X103535839Y-87731573D01*
X103496975Y-87687257D01*
X103482964Y-87630000D01*
X103496975Y-87572743D01*
X103535839Y-87528426D01*
X103721401Y-87398495D01*
X103888495Y-87231401D01*
X104024035Y-87037830D01*
X104123903Y-86823663D01*
X104185063Y-86595408D01*
X104205659Y-86360000D01*
X104185063Y-86124592D01*
X104123903Y-85896337D01*
X104024035Y-85682171D01*
X103888495Y-85488599D01*
X103721401Y-85321505D01*
X103535402Y-85191267D01*
X103496539Y-85146951D01*
X103482528Y-85089694D01*
X103496539Y-85032437D01*
X103535405Y-84988119D01*
X103721078Y-84858109D01*
X103888106Y-84691081D01*
X104023600Y-84497576D01*
X104123430Y-84283492D01*
X104180636Y-84070000D01*
X102724000Y-84070000D01*
X102662000Y-84053387D01*
X102616613Y-84008000D01*
X102600000Y-83946000D01*
X102600000Y-83694000D01*
X102616613Y-83632000D01*
X102662000Y-83586613D01*
X102724000Y-83570000D01*
X104180636Y-83570000D01*
X104180635Y-83569999D01*
X104123430Y-83356507D01*
X104023599Y-83142421D01*
X103888109Y-82948921D01*
X103721081Y-82781893D01*
X103535404Y-82651880D01*
X103496539Y-82607562D01*
X103482528Y-82550305D01*
X103496539Y-82493048D01*
X103535402Y-82448732D01*
X103721401Y-82318495D01*
X103888495Y-82151401D01*
X104024035Y-81957830D01*
X104123903Y-81743663D01*
X104185063Y-81515408D01*
X104205659Y-81280000D01*
X104185063Y-81044592D01*
X104123903Y-80816337D01*
X104024035Y-80602171D01*
X103888495Y-80408599D01*
X103721401Y-80241505D01*
X103535839Y-80111573D01*
X103496976Y-80067257D01*
X103482965Y-80010000D01*
X103496976Y-79952743D01*
X103535839Y-79908426D01*
X103721401Y-79778495D01*
X103888495Y-79611401D01*
X104024035Y-79417830D01*
X104123903Y-79203663D01*
X104185063Y-78975408D01*
X104205659Y-78740000D01*
X104185063Y-78504592D01*
X104123903Y-78276337D01*
X104024035Y-78062171D01*
X103888495Y-77868599D01*
X103721401Y-77701505D01*
X103535839Y-77571573D01*
X103496975Y-77527257D01*
X103482964Y-77470000D01*
X103496975Y-77412743D01*
X103535839Y-77368426D01*
X103721401Y-77238495D01*
X103888495Y-77071401D01*
X104024035Y-76877830D01*
X104123903Y-76663663D01*
X104185063Y-76435408D01*
X104205659Y-76200000D01*
X104185063Y-75964592D01*
X104123903Y-75736337D01*
X104024035Y-75522171D01*
X103888495Y-75328599D01*
X103721401Y-75161505D01*
X103535839Y-75031573D01*
X103496975Y-74987257D01*
X103482964Y-74930000D01*
X103496975Y-74872743D01*
X103535839Y-74828426D01*
X103721401Y-74698495D01*
X103888495Y-74531401D01*
X104024035Y-74337830D01*
X104123903Y-74123663D01*
X104185063Y-73895408D01*
X104205659Y-73660000D01*
X104185063Y-73424592D01*
X104123903Y-73196337D01*
X104024035Y-72982171D01*
X103888495Y-72788599D01*
X103721401Y-72621505D01*
X103535839Y-72491573D01*
X103496976Y-72447257D01*
X103482965Y-72390000D01*
X103496976Y-72332743D01*
X103535839Y-72288426D01*
X103721401Y-72158495D01*
X103888495Y-71991401D01*
X104024035Y-71797830D01*
X104123903Y-71583663D01*
X104185063Y-71355408D01*
X104205659Y-71120000D01*
X104185063Y-70884592D01*
X104123903Y-70656337D01*
X104024035Y-70442171D01*
X103888495Y-70248599D01*
X103721401Y-70081505D01*
X103535839Y-69951573D01*
X103496975Y-69907257D01*
X103482964Y-69850000D01*
X103496975Y-69792743D01*
X103535839Y-69748426D01*
X103721401Y-69618495D01*
X103888495Y-69451401D01*
X104024035Y-69257830D01*
X104123903Y-69043663D01*
X104185063Y-68815408D01*
X104205659Y-68580000D01*
X104185063Y-68344592D01*
X104123903Y-68116337D01*
X104024035Y-67902171D01*
X103888495Y-67708599D01*
X103721401Y-67541505D01*
X103535839Y-67411573D01*
X103496975Y-67367257D01*
X103482964Y-67310000D01*
X103496975Y-67252743D01*
X103535839Y-67208426D01*
X103721401Y-67078495D01*
X103888495Y-66911401D01*
X104024035Y-66717830D01*
X104123903Y-66503663D01*
X104185063Y-66275408D01*
X104205659Y-66040000D01*
X104185063Y-65804592D01*
X104123903Y-65576337D01*
X104024035Y-65362171D01*
X103888495Y-65168599D01*
X103721401Y-65001505D01*
X103527830Y-64865965D01*
X103313663Y-64766097D01*
X103252502Y-64749709D01*
X103085407Y-64704936D01*
X102850000Y-64684340D01*
X102614592Y-64704936D01*
X102386336Y-64766097D01*
X102172170Y-64865965D01*
X101978601Y-65001503D01*
X101856673Y-65123431D01*
X101803926Y-65154726D01*
X101742634Y-65156915D01*
X101687789Y-65129462D01*
X101652810Y-65079082D01*
X101645658Y-65059907D01*
X101603796Y-64947669D01*
X101517546Y-64832454D01*
X101402331Y-64746204D01*
X101267483Y-64695909D01*
X101207873Y-64689500D01*
X101207869Y-64689500D01*
X99412130Y-64689500D01*
X99352515Y-64695909D01*
X99217669Y-64746204D01*
X99102454Y-64832454D01*
X99016204Y-64947668D01*
X98965909Y-65082516D01*
X98959500Y-65142130D01*
X98959500Y-66937869D01*
X98965909Y-66997484D01*
X98991056Y-67064906D01*
X99016204Y-67132331D01*
X99102454Y-67247546D01*
X99217669Y-67333796D01*
X99307383Y-67367257D01*
X99349082Y-67382810D01*
X99399462Y-67417789D01*
X99426915Y-67472634D01*
X99424726Y-67533926D01*
X99393431Y-67586673D01*
X99271503Y-67708601D01*
X99135965Y-67902170D01*
X99036097Y-68116336D01*
X98974936Y-68344592D01*
X98954340Y-68579999D01*
X98974936Y-68815407D01*
X99019709Y-68982502D01*
X99036097Y-69043663D01*
X99135965Y-69257830D01*
X99271505Y-69451401D01*
X99438599Y-69618495D01*
X99624160Y-69748426D01*
X99663024Y-69792743D01*
X99677035Y-69850000D01*
X99663024Y-69907257D01*
X99624159Y-69951575D01*
X99438595Y-70081508D01*
X99271505Y-70248598D01*
X99135965Y-70442170D01*
X99036097Y-70656336D01*
X98974936Y-70884592D01*
X98954340Y-71119999D01*
X98974936Y-71355407D01*
X99019709Y-71522502D01*
X99036097Y-71583663D01*
X99135965Y-71797830D01*
X99271505Y-71991401D01*
X99438599Y-72158495D01*
X99624160Y-72288426D01*
X99663024Y-72332743D01*
X99677035Y-72390000D01*
X99663024Y-72447257D01*
X99624159Y-72491575D01*
X99438595Y-72621508D01*
X99271505Y-72788598D01*
X99135965Y-72982170D01*
X99036097Y-73196336D01*
X98974936Y-73424592D01*
X98954340Y-73660000D01*
X98974936Y-73895407D01*
X99019709Y-74062501D01*
X99036097Y-74123663D01*
X99135965Y-74337830D01*
X99271505Y-74531401D01*
X99438599Y-74698495D01*
X99624160Y-74828426D01*
X99663024Y-74872743D01*
X99677035Y-74930000D01*
X99663024Y-74987257D01*
X99624159Y-75031575D01*
X99438595Y-75161508D01*
X99271505Y-75328598D01*
X99135965Y-75522170D01*
X99036097Y-75736336D01*
X98974936Y-75964592D01*
X98954340Y-76199999D01*
X98974936Y-76435407D01*
X99019709Y-76602502D01*
X99036097Y-76663663D01*
X99135965Y-76877830D01*
X99271505Y-77071401D01*
X99438599Y-77238495D01*
X99624160Y-77368426D01*
X99663024Y-77412743D01*
X99677035Y-77470000D01*
X99663024Y-77527257D01*
X99624159Y-77571575D01*
X99438595Y-77701508D01*
X99271505Y-77868598D01*
X99135965Y-78062170D01*
X99036097Y-78276336D01*
X98974936Y-78504592D01*
X98954340Y-78740000D01*
X98974936Y-78975407D01*
X99019709Y-79142501D01*
X99036097Y-79203663D01*
X99135965Y-79417830D01*
X99271505Y-79611401D01*
X99438599Y-79778495D01*
X99624160Y-79908426D01*
X99663024Y-79952743D01*
X99677035Y-80010000D01*
X99663024Y-80067257D01*
X99624159Y-80111575D01*
X99438595Y-80241508D01*
X99271505Y-80408598D01*
X99135965Y-80602170D01*
X99036097Y-80816336D01*
X98974936Y-81044592D01*
X98954340Y-81279999D01*
X98974936Y-81515407D01*
X99019709Y-81682502D01*
X99036097Y-81743663D01*
X99135965Y-81957830D01*
X99271505Y-82151401D01*
X99438599Y-82318495D01*
X99624160Y-82448426D01*
X99663024Y-82492743D01*
X99677035Y-82550000D01*
X99663024Y-82607257D01*
X99624159Y-82651575D01*
X99438595Y-82781508D01*
X99271505Y-82948598D01*
X99135965Y-83142170D01*
X99036097Y-83356336D01*
X98974936Y-83584592D01*
X98954340Y-83820000D01*
X98974936Y-84055407D01*
X99019709Y-84222501D01*
X99036097Y-84283663D01*
X99135965Y-84497830D01*
X99271505Y-84691401D01*
X99438599Y-84858495D01*
X99624160Y-84988426D01*
X99663024Y-85032743D01*
X99677035Y-85090000D01*
X99663024Y-85147257D01*
X99624159Y-85191575D01*
X99438595Y-85321508D01*
X99271505Y-85488598D01*
X99135965Y-85682170D01*
X99036097Y-85896336D01*
X98974936Y-86124592D01*
X98954340Y-86360000D01*
X98974936Y-86595407D01*
X99019709Y-86762502D01*
X99036097Y-86823663D01*
X99135965Y-87037830D01*
X99271505Y-87231401D01*
X99438599Y-87398495D01*
X99624160Y-87528426D01*
X99663024Y-87572743D01*
X99677035Y-87630000D01*
X99663024Y-87687257D01*
X99624159Y-87731575D01*
X99438595Y-87861508D01*
X99271505Y-88028598D01*
X99135965Y-88222170D01*
X99036097Y-88436336D01*
X98974936Y-88664592D01*
X98954340Y-88899999D01*
X98974936Y-89135407D01*
X99019709Y-89302501D01*
X99036097Y-89363663D01*
X99135965Y-89577830D01*
X99271505Y-89771401D01*
X99438599Y-89938495D01*
X99624160Y-90068426D01*
X99663024Y-90112743D01*
X99677035Y-90170000D01*
X99663024Y-90227257D01*
X99624159Y-90271575D01*
X99438595Y-90401508D01*
X99271505Y-90568598D01*
X99135965Y-90762170D01*
X99036097Y-90976336D01*
X98974936Y-91204592D01*
X98954340Y-91440000D01*
X98974936Y-91675407D01*
X99019709Y-91842502D01*
X99036097Y-91903663D01*
X99135965Y-92117830D01*
X99271505Y-92311401D01*
X99438599Y-92478495D01*
X99624160Y-92608426D01*
X99663024Y-92652743D01*
X99677035Y-92710000D01*
X99663024Y-92767257D01*
X99624159Y-92811575D01*
X99438595Y-92941508D01*
X99271505Y-93108598D01*
X99135965Y-93302170D01*
X99036097Y-93516336D01*
X98974936Y-93744592D01*
X98954340Y-93979999D01*
X98974936Y-94215407D01*
X99011571Y-94352130D01*
X99036097Y-94443663D01*
X99135965Y-94657830D01*
X99271505Y-94851401D01*
X99438599Y-95018495D01*
X99624160Y-95148426D01*
X99663024Y-95192743D01*
X99677035Y-95250000D01*
X99663024Y-95307257D01*
X99624159Y-95351575D01*
X99438595Y-95481508D01*
X99271505Y-95648598D01*
X99135965Y-95842170D01*
X99036097Y-96056336D01*
X98974936Y-96284592D01*
X98954340Y-96520000D01*
X98974936Y-96755407D01*
X99018663Y-96918598D01*
X99036097Y-96983663D01*
X99135965Y-97197830D01*
X99271505Y-97391401D01*
X99438599Y-97558495D01*
X99624160Y-97688426D01*
X99663024Y-97732743D01*
X99677035Y-97790000D01*
X99663024Y-97847257D01*
X99624158Y-97891575D01*
X99464145Y-98003618D01*
X99438595Y-98021508D01*
X99271505Y-98188598D01*
X99135965Y-98382170D01*
X99036097Y-98596336D01*
X98974936Y-98824592D01*
X98954340Y-99059999D01*
X98974936Y-99295407D01*
X99004063Y-99404109D01*
X99036097Y-99523663D01*
X99135965Y-99737830D01*
X99271505Y-99931401D01*
X99438599Y-100098495D01*
X99624160Y-100228426D01*
X99663024Y-100272743D01*
X99677035Y-100330000D01*
X99663024Y-100387257D01*
X99624159Y-100431575D01*
X99438595Y-100561508D01*
X99271505Y-100728598D01*
X99135965Y-100922170D01*
X99036097Y-101136336D01*
X98974936Y-101364592D01*
X98954341Y-101599999D01*
X98974936Y-101835407D01*
X99018663Y-101998598D01*
X99036097Y-102063663D01*
X99135965Y-102277830D01*
X99271505Y-102471401D01*
X99438599Y-102638495D01*
X99624160Y-102768426D01*
X99663024Y-102812743D01*
X99677035Y-102870000D01*
X99663024Y-102927257D01*
X99624159Y-102971575D01*
X99438595Y-103101508D01*
X99271505Y-103268598D01*
X99135965Y-103462170D01*
X99036097Y-103676336D01*
X98974936Y-103904592D01*
X98954340Y-104140000D01*
X98974936Y-104375407D01*
X99007021Y-104495148D01*
X99036097Y-104603663D01*
X99135965Y-104817830D01*
X99271505Y-105011401D01*
X99438599Y-105178495D01*
X99624160Y-105308426D01*
X99663024Y-105352743D01*
X99677035Y-105410000D01*
X99663024Y-105467257D01*
X99624158Y-105511575D01*
X99496487Y-105600972D01*
X99438595Y-105641508D01*
X99271505Y-105808598D01*
X99135965Y-106002170D01*
X99036097Y-106216336D01*
X98974936Y-106444592D01*
X98954340Y-106680000D01*
X98974936Y-106915407D01*
X99001178Y-107013342D01*
X99036097Y-107143663D01*
X99135965Y-107357830D01*
X99271505Y-107551401D01*
X99438599Y-107718495D01*
X99624160Y-107848426D01*
X99663024Y-107892743D01*
X99677035Y-107950000D01*
X99663024Y-108007257D01*
X99624158Y-108051575D01*
X99516184Y-108127180D01*
X99438595Y-108181508D01*
X99271505Y-108348598D01*
X99135965Y-108542170D01*
X99036097Y-108756336D01*
X98974936Y-108984592D01*
X98954340Y-109220000D01*
X98974936Y-109455407D01*
X99018663Y-109618598D01*
X99036097Y-109683663D01*
X99135965Y-109897830D01*
X99271505Y-110091401D01*
X99438599Y-110258495D01*
X99624160Y-110388426D01*
X99663024Y-110432743D01*
X99677035Y-110490000D01*
X99663024Y-110547257D01*
X99624158Y-110591575D01*
X99453631Y-110710980D01*
X99438595Y-110721508D01*
X99271505Y-110888598D01*
X99135965Y-111082170D01*
X99036097Y-111296336D01*
X98974936Y-111524592D01*
X98954340Y-111759999D01*
X98974936Y-111995407D01*
X99013979Y-112141115D01*
X99036097Y-112223663D01*
X99135965Y-112437830D01*
X99271505Y-112631401D01*
X99438599Y-112798495D01*
X99624160Y-112928426D01*
X99663024Y-112972743D01*
X99677035Y-113030000D01*
X99663024Y-113087257D01*
X99624158Y-113131575D01*
X99453541Y-113251043D01*
X99438595Y-113261508D01*
X99271505Y-113428598D01*
X99135965Y-113622170D01*
X99036097Y-113836336D01*
X98974936Y-114064592D01*
X98954340Y-114300000D01*
X98974936Y-114535407D01*
X99000930Y-114632418D01*
X99036097Y-114763663D01*
X99135965Y-114977830D01*
X99271505Y-115171401D01*
X99438599Y-115338495D01*
X99624160Y-115468426D01*
X99663024Y-115512743D01*
X99677035Y-115570000D01*
X99663024Y-115627257D01*
X99624159Y-115671575D01*
X99438595Y-115801508D01*
X99271505Y-115968598D01*
X99135965Y-116162170D01*
X99036097Y-116376336D01*
X98974936Y-116604592D01*
X98954340Y-116839999D01*
X98974936Y-117075407D01*
X99019709Y-117242502D01*
X99036097Y-117303663D01*
X99135965Y-117517830D01*
X99271505Y-117711401D01*
X99438599Y-117878495D01*
X99624160Y-118008426D01*
X99663024Y-118052743D01*
X99677035Y-118110000D01*
X99663024Y-118167257D01*
X99624160Y-118211574D01*
X99464175Y-118323597D01*
X99438595Y-118341508D01*
X99271505Y-118508598D01*
X99135965Y-118702170D01*
X99036097Y-118916336D01*
X98974936Y-119144592D01*
X98954340Y-119380000D01*
X98974936Y-119615407D01*
X99015183Y-119765609D01*
X99036097Y-119843663D01*
X99135965Y-120057830D01*
X99271505Y-120251401D01*
X99438599Y-120418495D01*
X99624160Y-120548426D01*
X99663024Y-120592743D01*
X99677035Y-120650000D01*
X99663024Y-120707257D01*
X99624160Y-120751574D01*
X99534850Y-120814110D01*
X99438595Y-120881508D01*
X99271505Y-121048598D01*
X99135965Y-121242170D01*
X99036097Y-121456336D01*
X98974936Y-121684592D01*
X98954340Y-121919999D01*
X98974936Y-122155407D01*
X99019709Y-122322501D01*
X99036097Y-122383663D01*
X99135965Y-122597830D01*
X99271505Y-122791401D01*
X99438599Y-122958495D01*
X99624160Y-123088426D01*
X99663024Y-123132743D01*
X99677035Y-123190000D01*
X99663024Y-123247257D01*
X99624158Y-123291575D01*
X99466123Y-123402233D01*
X99438595Y-123421508D01*
X99271505Y-123588598D01*
X99135965Y-123782170D01*
X99036097Y-123996336D01*
X98974936Y-124224592D01*
X98954340Y-124460000D01*
X98974936Y-124695407D01*
X99016788Y-124851600D01*
X99036097Y-124923663D01*
X99135965Y-125137830D01*
X99271505Y-125331401D01*
X99438599Y-125498495D01*
X99624160Y-125628426D01*
X99663024Y-125672743D01*
X99677035Y-125730000D01*
X99663024Y-125787257D01*
X99624159Y-125831575D01*
X99438595Y-125961508D01*
X99271505Y-126128598D01*
X99135965Y-126322170D01*
X99036097Y-126536336D01*
X98974936Y-126764592D01*
X98954340Y-126999999D01*
X98974936Y-127235407D01*
X99014994Y-127384904D01*
X99036097Y-127463663D01*
X99135965Y-127677830D01*
X99271505Y-127871401D01*
X99438599Y-128038495D01*
X99624160Y-128168426D01*
X99663024Y-128212743D01*
X99677035Y-128270000D01*
X99663024Y-128327257D01*
X99624159Y-128371575D01*
X99438595Y-128501508D01*
X99271505Y-128668598D01*
X99135965Y-128862170D01*
X99036097Y-129076336D01*
X98974936Y-129304592D01*
X98954340Y-129540000D01*
X98974936Y-129775407D01*
X99012412Y-129915270D01*
X99036097Y-130003663D01*
X99135965Y-130217830D01*
X99271505Y-130411401D01*
X99438599Y-130578495D01*
X99624160Y-130708426D01*
X99663024Y-130752743D01*
X99677035Y-130810000D01*
X99663024Y-130867257D01*
X99624159Y-130911575D01*
X99438595Y-131041508D01*
X99271505Y-131208598D01*
X99135965Y-131402170D01*
X99036097Y-131616336D01*
X98974936Y-131844592D01*
X98954340Y-132079999D01*
X98974936Y-132315407D01*
X99002828Y-132419500D01*
X99036097Y-132543663D01*
X99135965Y-132757830D01*
X99271505Y-132951401D01*
X99438599Y-133118495D01*
X99624160Y-133248426D01*
X99663024Y-133292743D01*
X99677035Y-133350000D01*
X99663024Y-133407257D01*
X99624158Y-133451575D01*
X99468388Y-133560647D01*
X99438595Y-133581508D01*
X99271505Y-133748598D01*
X99135965Y-133942170D01*
X99036097Y-134156336D01*
X98974936Y-134384592D01*
X98954340Y-134619999D01*
X98974936Y-134855407D01*
X99003695Y-134962736D01*
X99036097Y-135083663D01*
X99135965Y-135297830D01*
X99271505Y-135491401D01*
X99438599Y-135658495D01*
X99624160Y-135788426D01*
X99663024Y-135832743D01*
X99677035Y-135890000D01*
X99663024Y-135947257D01*
X99624159Y-135991575D01*
X99438595Y-136121508D01*
X99271505Y-136288598D01*
X99135965Y-136482170D01*
X99036097Y-136696336D01*
X98974936Y-136924592D01*
X98954340Y-137160000D01*
X98974936Y-137395407D01*
X99019709Y-137562501D01*
X99036097Y-137623663D01*
X99135965Y-137837830D01*
X99271505Y-138031401D01*
X99438599Y-138198495D01*
X99624160Y-138328426D01*
X99663024Y-138372743D01*
X99677035Y-138430000D01*
X99663024Y-138487257D01*
X99624159Y-138531575D01*
X99438595Y-138661508D01*
X99271505Y-138828598D01*
X99135965Y-139022170D01*
X99036097Y-139236336D01*
X98974936Y-139464592D01*
X98954340Y-139699999D01*
X98974936Y-139935407D01*
X99019709Y-140102502D01*
X99036097Y-140163663D01*
X99135965Y-140377830D01*
X99271505Y-140571401D01*
X99438599Y-140738495D01*
X99624160Y-140868426D01*
X99663024Y-140912743D01*
X99677035Y-140970000D01*
X99663024Y-141027257D01*
X99624159Y-141071575D01*
X99438595Y-141201508D01*
X99271505Y-141368598D01*
X99135965Y-141562170D01*
X99036097Y-141776336D01*
X98974936Y-142004592D01*
X98954340Y-142240000D01*
X98974936Y-142475407D01*
X99019709Y-142642501D01*
X99036097Y-142703663D01*
X99135965Y-142917830D01*
X99271505Y-143111401D01*
X99438599Y-143278495D01*
X99624160Y-143408426D01*
X99663024Y-143452743D01*
X99677035Y-143510000D01*
X99663024Y-143567257D01*
X99624159Y-143611575D01*
X99438595Y-143741508D01*
X99271505Y-143908598D01*
X99135965Y-144102170D01*
X99036097Y-144316336D01*
X98974936Y-144544592D01*
X98954340Y-144779999D01*
X98974936Y-145015407D01*
X99019709Y-145182502D01*
X99036097Y-145243663D01*
X99135965Y-145457830D01*
X99271505Y-145651401D01*
X99438599Y-145818495D01*
X99624160Y-145948426D01*
X99663024Y-145992743D01*
X99677035Y-146050000D01*
X99663024Y-146107257D01*
X99624159Y-146151575D01*
X99438595Y-146281508D01*
X99271505Y-146448598D01*
X99135965Y-146642170D01*
X99036097Y-146856336D01*
X98974936Y-147084592D01*
X98954340Y-147320000D01*
X98974936Y-147555407D01*
X99019709Y-147722501D01*
X99036097Y-147783663D01*
X99135965Y-147997830D01*
X99271505Y-148191401D01*
X99438599Y-148358495D01*
X99624160Y-148488426D01*
X99663024Y-148532743D01*
X99677035Y-148590000D01*
X99663024Y-148647257D01*
X99624159Y-148691575D01*
X99438595Y-148821508D01*
X99271505Y-148988598D01*
X99135965Y-149182170D01*
X99036097Y-149396336D01*
X98974936Y-149624592D01*
X98954340Y-149860000D01*
X98974936Y-150095407D01*
X99019709Y-150262502D01*
X99036097Y-150323663D01*
X99135965Y-150537830D01*
X99271505Y-150731401D01*
X99438599Y-150898495D01*
X99624160Y-151028426D01*
X99663024Y-151072743D01*
X99677035Y-151130000D01*
X99663024Y-151187257D01*
X99624159Y-151231575D01*
X99438595Y-151361508D01*
X99271505Y-151528598D01*
X99135965Y-151722170D01*
X99036097Y-151936336D01*
X98974936Y-152164592D01*
X98954340Y-152400000D01*
X98974936Y-152635407D01*
X99005631Y-152749961D01*
X99036097Y-152863663D01*
X99135965Y-153077830D01*
X99271505Y-153271401D01*
X99438599Y-153438495D01*
X99632170Y-153574035D01*
X99846337Y-153673903D01*
X100074591Y-153735062D01*
X100074592Y-153735063D01*
X100309999Y-153755659D01*
X100309999Y-153755658D01*
X100310000Y-153755659D01*
X100545408Y-153735063D01*
X100773663Y-153673903D01*
X100987830Y-153574035D01*
X101181401Y-153438495D01*
X101348495Y-153271401D01*
X101478426Y-153085839D01*
X101522743Y-153046975D01*
X101580000Y-153032964D01*
X101637257Y-153046975D01*
X101681573Y-153085839D01*
X101811505Y-153271401D01*
X101978599Y-153438495D01*
X102172170Y-153574035D01*
X102386337Y-153673903D01*
X102614591Y-153735062D01*
X102614592Y-153735063D01*
X102849999Y-153755659D01*
X102849999Y-153755658D01*
X102850000Y-153755659D01*
X103085408Y-153735063D01*
X103313663Y-153673903D01*
X103527830Y-153574035D01*
X103721401Y-153438495D01*
X103888495Y-153271401D01*
X104024035Y-153077830D01*
X104123903Y-152863663D01*
X104185063Y-152635408D01*
X104189378Y-152586088D01*
X107685900Y-152586088D01*
X107726289Y-152749962D01*
X107804725Y-152899405D01*
X107916643Y-153025735D01*
X108055544Y-153121612D01*
X108115392Y-153144309D01*
X108213354Y-153181461D01*
X108338857Y-153196700D01*
X108422942Y-153196700D01*
X108422943Y-153196700D01*
X108548446Y-153181461D01*
X108706255Y-153121612D01*
X108845155Y-153025736D01*
X108957075Y-152899405D01*
X109008512Y-152801399D01*
X109035510Y-152749962D01*
X109075900Y-152586088D01*
X153685300Y-152586088D01*
X153725689Y-152749962D01*
X153804125Y-152899405D01*
X153916043Y-153025735D01*
X154054944Y-153121612D01*
X154114792Y-153144309D01*
X154212754Y-153181461D01*
X154338257Y-153196700D01*
X154422342Y-153196700D01*
X154422343Y-153196700D01*
X154547846Y-153181461D01*
X154705655Y-153121612D01*
X154844555Y-153025736D01*
X154956475Y-152899405D01*
X155007912Y-152801399D01*
X155034910Y-152749962D01*
X155075300Y-152586088D01*
X155075300Y-152417312D01*
X155034910Y-152253437D01*
X154956474Y-152103994D01*
X154844556Y-151977664D01*
X154705655Y-151881787D01*
X154547846Y-151821939D01*
X154547845Y-151821938D01*
X154422343Y-151806700D01*
X154338257Y-151806700D01*
X154275505Y-151814319D01*
X154212753Y-151821939D01*
X154054944Y-151881787D01*
X153916043Y-151977664D01*
X153804125Y-152103994D01*
X153725689Y-152253437D01*
X153685300Y-152417312D01*
X153685300Y-152586088D01*
X109075900Y-152586088D01*
X109075900Y-152417312D01*
X109035510Y-152253437D01*
X108957074Y-152103994D01*
X108845156Y-151977664D01*
X108706255Y-151881787D01*
X108548446Y-151821939D01*
X108548445Y-151821938D01*
X108422943Y-151806700D01*
X108338857Y-151806700D01*
X108276105Y-151814319D01*
X108213353Y-151821939D01*
X108055544Y-151881787D01*
X107916643Y-151977664D01*
X107804725Y-152103994D01*
X107726289Y-152253437D01*
X107685900Y-152417312D01*
X107685900Y-152586088D01*
X104189378Y-152586088D01*
X104205659Y-152400000D01*
X104185063Y-152164592D01*
X104123903Y-151936337D01*
X104024035Y-151722171D01*
X103888495Y-151528599D01*
X103721401Y-151361505D01*
X103535839Y-151231573D01*
X103496975Y-151187257D01*
X103482964Y-151130000D01*
X103496975Y-151072743D01*
X103535839Y-151028426D01*
X103721401Y-150898495D01*
X103888495Y-150731401D01*
X104024035Y-150537830D01*
X104123903Y-150323663D01*
X104185063Y-150095408D01*
X104205659Y-149860000D01*
X104185063Y-149624592D01*
X104123903Y-149396337D01*
X104024035Y-149182171D01*
X103888495Y-148988599D01*
X103721401Y-148821505D01*
X103535839Y-148691573D01*
X103496975Y-148647257D01*
X103482964Y-148590000D01*
X103496975Y-148532743D01*
X103535839Y-148488426D01*
X103721401Y-148358495D01*
X103888495Y-148191401D01*
X104024035Y-147997830D01*
X104123903Y-147783663D01*
X104185063Y-147555408D01*
X104205659Y-147320000D01*
X104185063Y-147084592D01*
X104123903Y-146856337D01*
X104024035Y-146642171D01*
X103888495Y-146448599D01*
X103721401Y-146281505D01*
X103535839Y-146151573D01*
X103496976Y-146107257D01*
X103482965Y-146050000D01*
X103496976Y-145992743D01*
X103535839Y-145948426D01*
X103721401Y-145818495D01*
X103888495Y-145651401D01*
X104024035Y-145457830D01*
X104123903Y-145243663D01*
X104185063Y-145015408D01*
X104205659Y-144780000D01*
X104185063Y-144544592D01*
X104123903Y-144316337D01*
X104024035Y-144102171D01*
X103888495Y-143908599D01*
X103721401Y-143741505D01*
X103535839Y-143611573D01*
X103496975Y-143567257D01*
X103482964Y-143510000D01*
X103496975Y-143452743D01*
X103535839Y-143408426D01*
X103721401Y-143278495D01*
X103888495Y-143111401D01*
X104024035Y-142917830D01*
X104123903Y-142703663D01*
X104185063Y-142475408D01*
X104205659Y-142240000D01*
X104185063Y-142004592D01*
X104123903Y-141776337D01*
X104024035Y-141562171D01*
X103888495Y-141368599D01*
X103721401Y-141201505D01*
X103535839Y-141071573D01*
X103496975Y-141027257D01*
X103482964Y-140970000D01*
X103496975Y-140912743D01*
X103535839Y-140868426D01*
X103721401Y-140738495D01*
X103888495Y-140571401D01*
X104024035Y-140377830D01*
X104123903Y-140163663D01*
X104185063Y-139935408D01*
X104205659Y-139700000D01*
X104185063Y-139464592D01*
X104123903Y-139236337D01*
X104024035Y-139022171D01*
X103888495Y-138828599D01*
X103721401Y-138661505D01*
X103535839Y-138531573D01*
X103496974Y-138487255D01*
X103482964Y-138429999D01*
X103496975Y-138372742D01*
X103535837Y-138328428D01*
X103721401Y-138198495D01*
X103888495Y-138031401D01*
X104024035Y-137837830D01*
X104123903Y-137623663D01*
X104185063Y-137395408D01*
X104205659Y-137160000D01*
X104185063Y-136924592D01*
X104123903Y-136696337D01*
X104024035Y-136482171D01*
X103888495Y-136288599D01*
X103721401Y-136121505D01*
X103535839Y-135991573D01*
X103496975Y-135947257D01*
X103482964Y-135890000D01*
X103496975Y-135832743D01*
X103535839Y-135788426D01*
X103721401Y-135658495D01*
X103888495Y-135491401D01*
X104024035Y-135297830D01*
X104123903Y-135083663D01*
X104185063Y-134855408D01*
X104205659Y-134620000D01*
X104185063Y-134384592D01*
X104184024Y-134380716D01*
X104155456Y-134274093D01*
X104153614Y-134217808D01*
X104176855Y-134166513D01*
X104220387Y-134130788D01*
X104275231Y-134118000D01*
X106817456Y-134118000D01*
X106837962Y-134120264D01*
X106840865Y-134120172D01*
X106840867Y-134120173D01*
X106908072Y-134118061D01*
X106911968Y-134118000D01*
X106939549Y-134118000D01*
X106939550Y-134118000D01*
X106943519Y-134117498D01*
X106955165Y-134116580D01*
X106998827Y-134115209D01*
X107018059Y-134109620D01*
X107037118Y-134105674D01*
X107043396Y-134104881D01*
X107056992Y-134103164D01*
X107097607Y-134087082D01*
X107108644Y-134083303D01*
X107150590Y-134071118D01*
X107167829Y-134060922D01*
X107185302Y-134052362D01*
X107203932Y-134044986D01*
X107239264Y-134019314D01*
X107249030Y-134012900D01*
X107286618Y-133990671D01*
X107286617Y-133990671D01*
X107286620Y-133990670D01*
X107300785Y-133976504D01*
X107315573Y-133963873D01*
X107331787Y-133952094D01*
X107359638Y-133918426D01*
X107367479Y-133909809D01*
X108382818Y-132894471D01*
X108432182Y-132864221D01*
X108489898Y-132859679D01*
X108543385Y-132881834D01*
X108580985Y-132925857D01*
X108594500Y-132982152D01*
X108594500Y-136709124D01*
X108575494Y-136775096D01*
X108539544Y-136832309D01*
X108483686Y-136991943D01*
X108464750Y-137160000D01*
X108483686Y-137328056D01*
X108483686Y-137328058D01*
X108483687Y-137328059D01*
X108539544Y-137487690D01*
X108629523Y-137630890D01*
X108749110Y-137750477D01*
X108892310Y-137840456D01*
X109051941Y-137896313D01*
X109220000Y-137915249D01*
X109388059Y-137896313D01*
X109547690Y-137840456D01*
X109690890Y-137750477D01*
X109810477Y-137630890D01*
X109900456Y-137487690D01*
X109956313Y-137328059D01*
X109975249Y-137160000D01*
X109956313Y-136991941D01*
X109900456Y-136832310D01*
X109864505Y-136775095D01*
X109845500Y-136709124D01*
X109845500Y-133956641D01*
X110882457Y-133956641D01*
X110892696Y-134171590D01*
X110903908Y-134217808D01*
X110943431Y-134380720D01*
X111032822Y-134576461D01*
X111097353Y-134667081D01*
X111157648Y-134751753D01*
X111313390Y-134900253D01*
X111494422Y-135016595D01*
X111694200Y-135096574D01*
X111905504Y-135137300D01*
X112066767Y-135137300D01*
X112066772Y-135137300D01*
X112227318Y-135121970D01*
X112433794Y-135061343D01*
X112625065Y-134962736D01*
X112794218Y-134829713D01*
X112935139Y-134667081D01*
X113042735Y-134480719D01*
X113113118Y-134277361D01*
X113143743Y-134064359D01*
X113138612Y-133956641D01*
X149617457Y-133956641D01*
X149627696Y-134171590D01*
X149638908Y-134217808D01*
X149678431Y-134380720D01*
X149767822Y-134576461D01*
X149832353Y-134667081D01*
X149892648Y-134751753D01*
X150048390Y-134900253D01*
X150229422Y-135016595D01*
X150429200Y-135096574D01*
X150640504Y-135137300D01*
X150801767Y-135137300D01*
X150801772Y-135137300D01*
X150962318Y-135121970D01*
X151168794Y-135061343D01*
X151360065Y-134962736D01*
X151529218Y-134829713D01*
X151670139Y-134667081D01*
X151777735Y-134480719D01*
X151848118Y-134277361D01*
X151878743Y-134064359D01*
X151868504Y-133849410D01*
X151817770Y-133640284D01*
X151790927Y-133581505D01*
X151728377Y-133444538D01*
X151603553Y-133269249D01*
X151603552Y-133269247D01*
X151447810Y-133120747D01*
X151266778Y-133004405D01*
X151133402Y-132951009D01*
X151066998Y-132924425D01*
X150855696Y-132883700D01*
X150694428Y-132883700D01*
X150594086Y-132893281D01*
X150533879Y-132899030D01*
X150327407Y-132959656D01*
X150136136Y-133058263D01*
X149966981Y-133191288D01*
X149826059Y-133353920D01*
X149718465Y-133540279D01*
X149648081Y-133743638D01*
X149617457Y-133956639D01*
X149617457Y-133956641D01*
X113138612Y-133956641D01*
X113133504Y-133849410D01*
X113082770Y-133640284D01*
X113055927Y-133581505D01*
X112993377Y-133444538D01*
X112868553Y-133269249D01*
X112868552Y-133269247D01*
X112712810Y-133120747D01*
X112531778Y-133004405D01*
X112398402Y-132951009D01*
X112331998Y-132924425D01*
X112120696Y-132883700D01*
X111959428Y-132883700D01*
X111859086Y-132893281D01*
X111798879Y-132899030D01*
X111592407Y-132959656D01*
X111401136Y-133058263D01*
X111231981Y-133191288D01*
X111091059Y-133353920D01*
X110983465Y-133540279D01*
X110913081Y-133743638D01*
X110882457Y-133956639D01*
X110882457Y-133956641D01*
X109845500Y-133956641D01*
X109845500Y-132530876D01*
X109864506Y-132464904D01*
X109900456Y-132407690D01*
X109956313Y-132248059D01*
X109975249Y-132080000D01*
X109956313Y-131911941D01*
X109900456Y-131752310D01*
X109900454Y-131752307D01*
X109900454Y-131752306D01*
X109808178Y-131605451D01*
X109789951Y-131553363D01*
X109796129Y-131498525D01*
X109825488Y-131451800D01*
X110392123Y-130885165D01*
X110440484Y-130855247D01*
X110497117Y-130850063D01*
X110550109Y-130870706D01*
X110588311Y-130912834D01*
X110603690Y-130967585D01*
X110613246Y-131192555D01*
X110663677Y-131426558D01*
X110752926Y-131648661D01*
X110752928Y-131648665D01*
X110878432Y-131852496D01*
X110878433Y-131852497D01*
X111036579Y-132032186D01*
X111222813Y-132182560D01*
X111431789Y-132299302D01*
X111657489Y-132379047D01*
X111893413Y-132419500D01*
X111893415Y-132419500D01*
X112072833Y-132419500D01*
X112072836Y-132419500D01*
X112211590Y-132407690D01*
X112251608Y-132404284D01*
X112406039Y-132364073D01*
X112483256Y-132343968D01*
X112695429Y-132248059D01*
X112701376Y-132245371D01*
X112899697Y-132111329D01*
X113072512Y-131945700D01*
X113214849Y-131753246D01*
X113322615Y-131539506D01*
X113392708Y-131310628D01*
X113423112Y-131073197D01*
X113418023Y-130953403D01*
X149338088Y-130953403D01*
X149348247Y-131192558D01*
X149373693Y-131310628D01*
X149398677Y-131426558D01*
X149487926Y-131648661D01*
X149487928Y-131648665D01*
X149613432Y-131852496D01*
X149613433Y-131852497D01*
X149771579Y-132032186D01*
X149957813Y-132182560D01*
X150166789Y-132299302D01*
X150392489Y-132379047D01*
X150628413Y-132419500D01*
X150628415Y-132419500D01*
X150807833Y-132419500D01*
X150807836Y-132419500D01*
X150946590Y-132407690D01*
X150986608Y-132404284D01*
X151141039Y-132364073D01*
X151218256Y-132343968D01*
X151430429Y-132248059D01*
X151436376Y-132245371D01*
X151634697Y-132111329D01*
X151807512Y-131945700D01*
X151949849Y-131753246D01*
X152057615Y-131539506D01*
X152127708Y-131310628D01*
X152158112Y-131073197D01*
X152147953Y-130834042D01*
X152097523Y-130600044D01*
X152008272Y-130377935D01*
X151882768Y-130174104D01*
X151724622Y-129994415D01*
X151724620Y-129994413D01*
X151538386Y-129844039D01*
X151329410Y-129727297D01*
X151103710Y-129647552D01*
X150867787Y-129607100D01*
X150867785Y-129607100D01*
X150688367Y-129607100D01*
X150688364Y-129607100D01*
X150509593Y-129622315D01*
X150277943Y-129682631D01*
X150059824Y-129781228D01*
X149861503Y-129915270D01*
X149688687Y-130080899D01*
X149546351Y-130273353D01*
X149438585Y-130487093D01*
X149403994Y-130600044D01*
X149368492Y-130715972D01*
X149338088Y-130953403D01*
X113418023Y-130953403D01*
X113412953Y-130834042D01*
X113362523Y-130600044D01*
X113273272Y-130377935D01*
X113147768Y-130174104D01*
X112989622Y-129994415D01*
X112989620Y-129994413D01*
X112803386Y-129844039D01*
X112594410Y-129727297D01*
X112368710Y-129647552D01*
X112132787Y-129607100D01*
X112132785Y-129607100D01*
X111969551Y-129607100D01*
X111913256Y-129593585D01*
X111869233Y-129555985D01*
X111847078Y-129502498D01*
X111851620Y-129444782D01*
X111881870Y-129395419D01*
X112672693Y-128604597D01*
X115774371Y-125502919D01*
X115814600Y-125476039D01*
X115862053Y-125466600D01*
X116082453Y-125466600D01*
X116132888Y-125477320D01*
X116174601Y-125507626D01*
X116180329Y-125513988D01*
X116333470Y-125625251D01*
X116333471Y-125625251D01*
X116333472Y-125625252D01*
X116506397Y-125702244D01*
X116691552Y-125741600D01*
X116691554Y-125741600D01*
X116880846Y-125741600D01*
X116880848Y-125741600D01*
X117023529Y-125711272D01*
X117066003Y-125702244D01*
X117238930Y-125625251D01*
X117323450Y-125563844D01*
X117392070Y-125513989D01*
X117397798Y-125507628D01*
X117518733Y-125373316D01*
X117613379Y-125209384D01*
X117671874Y-125029356D01*
X117689521Y-124861444D01*
X117700921Y-124821025D01*
X117725158Y-124786730D01*
X118732580Y-123779308D01*
X118788167Y-123747215D01*
X118852355Y-123747215D01*
X118897229Y-123773123D01*
X118897280Y-123773043D01*
X118899440Y-123774400D01*
X118907941Y-123779308D01*
X118909110Y-123780477D01*
X119050106Y-123869071D01*
X119090769Y-123910782D01*
X119107899Y-123966462D01*
X119097712Y-124023819D01*
X119062456Y-124070195D01*
X119009914Y-124095353D01*
X118909696Y-124116655D01*
X118736769Y-124193648D01*
X118583629Y-124304910D01*
X118456966Y-124445583D01*
X118362320Y-124609515D01*
X118303826Y-124789542D01*
X118284040Y-124977800D01*
X118303826Y-125166057D01*
X118362320Y-125346084D01*
X118456966Y-125510016D01*
X118583629Y-125650689D01*
X118736769Y-125761951D01*
X118909697Y-125838944D01*
X119094852Y-125878300D01*
X119094854Y-125878300D01*
X119284146Y-125878300D01*
X119284148Y-125878300D01*
X119407583Y-125852062D01*
X119469303Y-125838944D01*
X119642230Y-125761951D01*
X119749742Y-125683839D01*
X119809664Y-125660837D01*
X119873061Y-125670878D01*
X119922944Y-125711272D01*
X119945947Y-125771196D01*
X119963726Y-125940357D01*
X120022220Y-126120384D01*
X120116866Y-126284316D01*
X120243529Y-126424989D01*
X120396669Y-126536251D01*
X120569597Y-126613244D01*
X120754752Y-126652600D01*
X120754754Y-126652600D01*
X120858551Y-126652600D01*
X120907793Y-126662796D01*
X120927946Y-126671517D01*
X120938433Y-126676655D01*
X120976707Y-126697697D01*
X120985210Y-126699879D01*
X120996108Y-126702678D01*
X121014513Y-126708978D01*
X121032904Y-126716937D01*
X121076050Y-126723770D01*
X121087468Y-126726135D01*
X121129781Y-126737000D01*
X121149816Y-126737000D01*
X121169215Y-126738527D01*
X121188996Y-126741660D01*
X121232474Y-126737550D01*
X121244144Y-126737000D01*
X141891556Y-126737000D01*
X141912062Y-126739264D01*
X141914965Y-126739172D01*
X141914967Y-126739173D01*
X141982172Y-126737061D01*
X141986068Y-126737000D01*
X142013649Y-126737000D01*
X142013650Y-126737000D01*
X142017619Y-126736498D01*
X142029265Y-126735580D01*
X142072927Y-126734209D01*
X142092159Y-126728620D01*
X142111218Y-126724674D01*
X142118399Y-126723767D01*
X142131092Y-126722164D01*
X142171707Y-126706082D01*
X142182744Y-126702303D01*
X142224690Y-126690118D01*
X142241929Y-126679922D01*
X142259402Y-126671362D01*
X142278032Y-126663986D01*
X142313364Y-126638314D01*
X142323130Y-126631900D01*
X142324922Y-126630840D01*
X142360720Y-126609670D01*
X142374885Y-126595504D01*
X142389673Y-126582873D01*
X142405887Y-126571094D01*
X142433738Y-126537426D01*
X142441579Y-126528809D01*
X150899818Y-118070570D01*
X150955405Y-118038477D01*
X151019593Y-118038477D01*
X151075180Y-118070571D01*
X158970408Y-125965799D01*
X159000433Y-126014476D01*
X159005418Y-126071451D01*
X158984302Y-126124603D01*
X158845965Y-126322169D01*
X158746097Y-126536336D01*
X158684936Y-126764592D01*
X158664340Y-127000000D01*
X158684936Y-127235407D01*
X158724994Y-127384904D01*
X158746097Y-127463663D01*
X158845965Y-127677830D01*
X158981505Y-127871401D01*
X159148599Y-128038495D01*
X159334160Y-128168426D01*
X159373024Y-128212743D01*
X159387035Y-128270000D01*
X159373024Y-128327257D01*
X159334159Y-128371575D01*
X159148595Y-128501508D01*
X158981505Y-128668598D01*
X158845965Y-128862170D01*
X158746097Y-129076336D01*
X158684936Y-129304592D01*
X158664340Y-129540000D01*
X158684936Y-129775407D01*
X158722412Y-129915270D01*
X158746097Y-130003663D01*
X158845965Y-130217830D01*
X158981505Y-130411401D01*
X159148599Y-130578495D01*
X159334160Y-130708426D01*
X159373024Y-130752743D01*
X159387035Y-130810000D01*
X159373024Y-130867257D01*
X159334159Y-130911575D01*
X159148595Y-131041508D01*
X158981505Y-131208598D01*
X158845965Y-131402170D01*
X158746097Y-131616336D01*
X158684936Y-131844592D01*
X158664340Y-132079999D01*
X158684936Y-132315407D01*
X158712828Y-132419500D01*
X158746097Y-132543663D01*
X158845965Y-132757830D01*
X158981505Y-132951401D01*
X159148599Y-133118495D01*
X159334160Y-133248426D01*
X159373024Y-133292743D01*
X159387035Y-133350000D01*
X159373024Y-133407257D01*
X159334158Y-133451575D01*
X159178388Y-133560647D01*
X159148595Y-133581508D01*
X158981505Y-133748598D01*
X158845965Y-133942170D01*
X158746097Y-134156336D01*
X158684936Y-134384592D01*
X158664340Y-134620000D01*
X158684936Y-134855407D01*
X158713695Y-134962736D01*
X158746097Y-135083663D01*
X158845965Y-135297830D01*
X158981505Y-135491401D01*
X159148599Y-135658495D01*
X159334160Y-135788426D01*
X159373024Y-135832743D01*
X159387035Y-135890000D01*
X159373024Y-135947257D01*
X159334159Y-135991575D01*
X159148595Y-136121508D01*
X158981505Y-136288598D01*
X158845965Y-136482170D01*
X158746097Y-136696336D01*
X158684936Y-136924592D01*
X158664340Y-137159999D01*
X158684936Y-137395407D01*
X158729709Y-137562501D01*
X158746097Y-137623663D01*
X158845965Y-137837830D01*
X158981505Y-138031401D01*
X159148599Y-138198495D01*
X159334160Y-138328426D01*
X159373024Y-138372743D01*
X159387035Y-138430000D01*
X159373024Y-138487257D01*
X159334159Y-138531575D01*
X159148595Y-138661508D01*
X158981505Y-138828598D01*
X158845965Y-139022170D01*
X158746097Y-139236336D01*
X158684936Y-139464592D01*
X158664340Y-139700000D01*
X158684936Y-139935407D01*
X158729709Y-140102502D01*
X158746097Y-140163663D01*
X158845965Y-140377830D01*
X158981505Y-140571401D01*
X159148599Y-140738495D01*
X159334160Y-140868426D01*
X159373024Y-140912743D01*
X159387035Y-140970000D01*
X159373024Y-141027257D01*
X159334159Y-141071575D01*
X159148595Y-141201508D01*
X158981505Y-141368598D01*
X158845965Y-141562170D01*
X158746097Y-141776336D01*
X158684936Y-142004592D01*
X158664340Y-142239999D01*
X158684936Y-142475407D01*
X158729709Y-142642501D01*
X158746097Y-142703663D01*
X158845965Y-142917830D01*
X158981505Y-143111401D01*
X159148599Y-143278495D01*
X159334160Y-143408426D01*
X159373024Y-143452743D01*
X159387035Y-143510000D01*
X159373024Y-143567257D01*
X159334159Y-143611575D01*
X159148595Y-143741508D01*
X158981505Y-143908598D01*
X158845965Y-144102170D01*
X158746097Y-144316336D01*
X158684936Y-144544592D01*
X158664340Y-144780000D01*
X158684936Y-145015407D01*
X158729709Y-145182502D01*
X158746097Y-145243663D01*
X158845965Y-145457830D01*
X158981505Y-145651401D01*
X159148599Y-145818495D01*
X159334160Y-145948426D01*
X159373024Y-145992743D01*
X159387035Y-146050000D01*
X159373024Y-146107257D01*
X159334159Y-146151575D01*
X159148595Y-146281508D01*
X158981505Y-146448598D01*
X158845965Y-146642170D01*
X158746097Y-146856336D01*
X158684936Y-147084592D01*
X158664340Y-147319999D01*
X158684936Y-147555407D01*
X158729709Y-147722501D01*
X158746097Y-147783663D01*
X158845965Y-147997830D01*
X158981505Y-148191401D01*
X159148599Y-148358495D01*
X159334160Y-148488426D01*
X159373024Y-148532743D01*
X159387035Y-148590000D01*
X159373024Y-148647257D01*
X159334159Y-148691575D01*
X159148595Y-148821508D01*
X158981505Y-148988598D01*
X158845965Y-149182170D01*
X158746097Y-149396336D01*
X158684936Y-149624592D01*
X158664340Y-149860000D01*
X158684936Y-150095407D01*
X158729709Y-150262502D01*
X158746097Y-150323663D01*
X158845965Y-150537830D01*
X158981505Y-150731401D01*
X159148599Y-150898495D01*
X159334160Y-151028426D01*
X159373024Y-151072743D01*
X159387035Y-151130000D01*
X159373024Y-151187257D01*
X159334159Y-151231575D01*
X159148595Y-151361508D01*
X158981505Y-151528598D01*
X158845965Y-151722170D01*
X158746097Y-151936336D01*
X158684936Y-152164592D01*
X158664340Y-152399999D01*
X158684936Y-152635407D01*
X158715631Y-152749961D01*
X158746097Y-152863663D01*
X158845965Y-153077830D01*
X158981505Y-153271401D01*
X159148599Y-153438495D01*
X159342170Y-153574035D01*
X159556337Y-153673903D01*
X159784591Y-153735062D01*
X159784592Y-153735063D01*
X160019999Y-153755659D01*
X160019999Y-153755658D01*
X160020000Y-153755659D01*
X160255408Y-153735063D01*
X160483663Y-153673903D01*
X160697830Y-153574035D01*
X160891401Y-153438495D01*
X161058495Y-153271401D01*
X161188426Y-153085839D01*
X161232743Y-153046975D01*
X161290000Y-153032964D01*
X161347257Y-153046975D01*
X161391573Y-153085839D01*
X161521505Y-153271401D01*
X161688599Y-153438495D01*
X161882170Y-153574035D01*
X162096337Y-153673903D01*
X162324591Y-153735062D01*
X162324592Y-153735063D01*
X162559999Y-153755659D01*
X162559999Y-153755658D01*
X162560000Y-153755659D01*
X162795408Y-153735063D01*
X163023663Y-153673903D01*
X163237830Y-153574035D01*
X163431401Y-153438495D01*
X163598495Y-153271401D01*
X163734035Y-153077830D01*
X163833903Y-152863663D01*
X163895063Y-152635408D01*
X163915659Y-152400000D01*
X163895063Y-152164592D01*
X163833903Y-151936337D01*
X163734035Y-151722171D01*
X163598495Y-151528599D01*
X163431401Y-151361505D01*
X163245839Y-151231573D01*
X163206975Y-151187257D01*
X163192964Y-151130000D01*
X163206975Y-151072743D01*
X163245839Y-151028426D01*
X163431401Y-150898495D01*
X163598495Y-150731401D01*
X163734035Y-150537830D01*
X163833903Y-150323663D01*
X163895063Y-150095408D01*
X163915659Y-149860000D01*
X163895063Y-149624592D01*
X163833903Y-149396337D01*
X163734035Y-149182171D01*
X163598495Y-148988599D01*
X163431401Y-148821505D01*
X163245839Y-148691573D01*
X163206975Y-148647257D01*
X163192964Y-148590000D01*
X163206975Y-148532743D01*
X163245839Y-148488426D01*
X163431401Y-148358495D01*
X163598495Y-148191401D01*
X163734035Y-147997830D01*
X163833903Y-147783663D01*
X163895063Y-147555408D01*
X163915659Y-147320000D01*
X163895063Y-147084592D01*
X163833903Y-146856337D01*
X163734035Y-146642171D01*
X163598495Y-146448599D01*
X163431401Y-146281505D01*
X163245839Y-146151573D01*
X163206976Y-146107257D01*
X163192965Y-146050000D01*
X163206976Y-145992743D01*
X163245839Y-145948426D01*
X163431401Y-145818495D01*
X163598495Y-145651401D01*
X163734035Y-145457830D01*
X163833903Y-145243663D01*
X163895063Y-145015408D01*
X163915659Y-144780000D01*
X163895063Y-144544592D01*
X163833903Y-144316337D01*
X163734035Y-144102171D01*
X163598495Y-143908599D01*
X163431401Y-143741505D01*
X163245839Y-143611573D01*
X163206975Y-143567257D01*
X163192964Y-143510000D01*
X163206975Y-143452743D01*
X163245839Y-143408426D01*
X163431401Y-143278495D01*
X163598495Y-143111401D01*
X163734035Y-142917830D01*
X163833903Y-142703663D01*
X163895063Y-142475408D01*
X163915659Y-142240000D01*
X163895063Y-142004592D01*
X163833903Y-141776337D01*
X163734035Y-141562171D01*
X163598495Y-141368599D01*
X163431401Y-141201505D01*
X163245839Y-141071573D01*
X163206975Y-141027257D01*
X163192964Y-140970000D01*
X163206975Y-140912743D01*
X163245839Y-140868426D01*
X163431401Y-140738495D01*
X163598495Y-140571401D01*
X163734035Y-140377830D01*
X163833903Y-140163663D01*
X163895063Y-139935408D01*
X163915659Y-139700000D01*
X163895063Y-139464592D01*
X163833903Y-139236337D01*
X163734035Y-139022171D01*
X163598495Y-138828599D01*
X163431401Y-138661505D01*
X163245839Y-138531573D01*
X163206974Y-138487255D01*
X163192964Y-138429999D01*
X163206975Y-138372742D01*
X163245837Y-138328428D01*
X163431401Y-138198495D01*
X163598495Y-138031401D01*
X163734035Y-137837830D01*
X163833903Y-137623663D01*
X163895063Y-137395408D01*
X163915659Y-137160000D01*
X163895063Y-136924592D01*
X163833903Y-136696337D01*
X163734035Y-136482171D01*
X163598495Y-136288599D01*
X163431401Y-136121505D01*
X163245839Y-135991573D01*
X163206975Y-135947257D01*
X163192964Y-135890000D01*
X163206975Y-135832743D01*
X163245839Y-135788426D01*
X163431401Y-135658495D01*
X163598495Y-135491401D01*
X163734035Y-135297830D01*
X163833903Y-135083663D01*
X163895063Y-134855408D01*
X163915659Y-134620000D01*
X163895063Y-134384592D01*
X163833903Y-134156337D01*
X163734035Y-133942171D01*
X163598495Y-133748599D01*
X163431401Y-133581505D01*
X163245839Y-133451573D01*
X163206975Y-133407257D01*
X163192964Y-133350000D01*
X163206975Y-133292743D01*
X163245839Y-133248426D01*
X163431401Y-133118495D01*
X163598495Y-132951401D01*
X163734035Y-132757830D01*
X163833903Y-132543663D01*
X163895063Y-132315408D01*
X163915659Y-132080000D01*
X163895063Y-131844592D01*
X163833903Y-131616337D01*
X163734035Y-131402171D01*
X163598495Y-131208599D01*
X163431401Y-131041505D01*
X163245839Y-130911573D01*
X163206976Y-130867257D01*
X163192965Y-130810000D01*
X163206976Y-130752743D01*
X163245839Y-130708426D01*
X163431401Y-130578495D01*
X163598495Y-130411401D01*
X163734035Y-130217830D01*
X163833903Y-130003663D01*
X163895063Y-129775408D01*
X163915659Y-129540000D01*
X163895063Y-129304592D01*
X163833903Y-129076337D01*
X163734035Y-128862171D01*
X163598495Y-128668599D01*
X163431401Y-128501505D01*
X163245839Y-128371573D01*
X163206976Y-128327257D01*
X163192965Y-128270000D01*
X163206976Y-128212743D01*
X163245839Y-128168426D01*
X163431401Y-128038495D01*
X163598495Y-127871401D01*
X163734035Y-127677830D01*
X163833903Y-127463663D01*
X163895063Y-127235408D01*
X163915659Y-127000000D01*
X163895063Y-126764592D01*
X163833903Y-126536337D01*
X163734035Y-126322171D01*
X163598495Y-126128599D01*
X163431401Y-125961505D01*
X163245839Y-125831573D01*
X163206975Y-125787257D01*
X163192964Y-125730000D01*
X163206975Y-125672743D01*
X163245839Y-125628426D01*
X163431401Y-125498495D01*
X163598495Y-125331401D01*
X163734035Y-125137830D01*
X163833903Y-124923663D01*
X163895063Y-124695408D01*
X163915659Y-124460000D01*
X163912491Y-124423796D01*
X163895063Y-124224592D01*
X163866142Y-124116656D01*
X163833903Y-123996337D01*
X163734035Y-123782171D01*
X163598495Y-123588599D01*
X163431401Y-123421505D01*
X163245839Y-123291573D01*
X163206975Y-123247257D01*
X163192964Y-123190000D01*
X163206975Y-123132743D01*
X163245839Y-123088426D01*
X163431401Y-122958495D01*
X163598495Y-122791401D01*
X163734035Y-122597830D01*
X163833903Y-122383663D01*
X163895063Y-122155408D01*
X163915659Y-121920000D01*
X163895063Y-121684592D01*
X163833903Y-121456337D01*
X163734035Y-121242171D01*
X163598495Y-121048599D01*
X163431401Y-120881505D01*
X163245839Y-120751573D01*
X163206974Y-120707255D01*
X163192964Y-120649999D01*
X163206975Y-120592742D01*
X163245837Y-120548428D01*
X163431401Y-120418495D01*
X163598495Y-120251401D01*
X163734035Y-120057830D01*
X163833903Y-119843663D01*
X163895063Y-119615408D01*
X163915659Y-119380000D01*
X163895063Y-119144592D01*
X163833903Y-118916337D01*
X163734035Y-118702171D01*
X163605456Y-118518541D01*
X163584341Y-118465390D01*
X163589326Y-118408415D01*
X163619349Y-118359740D01*
X164071286Y-117907802D01*
X164087387Y-117894904D01*
X164089374Y-117892787D01*
X164089377Y-117892786D01*
X164135432Y-117843741D01*
X164138113Y-117840976D01*
X164139043Y-117840046D01*
X164157620Y-117821470D01*
X164160081Y-117818295D01*
X164167652Y-117809431D01*
X164197562Y-117777582D01*
X164207213Y-117760026D01*
X164217893Y-117743767D01*
X164230174Y-117727936D01*
X164230174Y-117727935D01*
X164239779Y-117715554D01*
X164241649Y-117717005D01*
X164269380Y-117682834D01*
X164332436Y-117660355D01*
X164397987Y-117673930D01*
X164446930Y-117719601D01*
X164465000Y-117784059D01*
X164465000Y-154181000D01*
X164448387Y-154243000D01*
X164403000Y-154288387D01*
X164341000Y-154305000D01*
X98549000Y-154305000D01*
X98487000Y-154288387D01*
X98441613Y-154243000D01*
X98425000Y-154181000D01*
X98425000Y-64259000D01*
X98441613Y-64197000D01*
X98487000Y-64151613D01*
X98549000Y-64135000D01*
X111001000Y-64135000D01*
X111063000Y-64151613D01*
G37*
G04 #@! TD.AperFunction*
G04 #@! TA.AperFunction,Conductor*
G36*
X137166894Y-117214957D02*
G01*
X137198987Y-117270545D01*
X137203261Y-117286496D01*
X137299432Y-117492735D01*
X137429953Y-117679140D01*
X137590859Y-117840046D01*
X137777264Y-117970567D01*
X137797476Y-117979992D01*
X137843447Y-118016888D01*
X137867187Y-118070842D01*
X137863332Y-118129662D01*
X137832752Y-118180055D01*
X132433128Y-123579681D01*
X132392900Y-123606561D01*
X132345447Y-123616000D01*
X132192596Y-123616000D01*
X132137752Y-123603212D01*
X132094220Y-123567487D01*
X132070979Y-123516191D01*
X132072821Y-123459907D01*
X132095141Y-123376604D01*
X132114966Y-123150000D01*
X132095141Y-122923397D01*
X132036266Y-122703673D01*
X131940133Y-122497515D01*
X131889025Y-122424526D01*
X130897680Y-123415872D01*
X130842093Y-123447966D01*
X130777905Y-123447966D01*
X130722318Y-123415872D01*
X129730973Y-122424527D01*
X129679865Y-122497516D01*
X129583733Y-122703672D01*
X129524858Y-122923397D01*
X129505033Y-123150000D01*
X129524858Y-123376604D01*
X129547179Y-123459907D01*
X129549021Y-123516191D01*
X129525780Y-123567487D01*
X129482248Y-123603212D01*
X129427404Y-123616000D01*
X122144147Y-123616000D01*
X122093712Y-123605280D01*
X122051998Y-123574973D01*
X122046271Y-123568612D01*
X121962143Y-123507490D01*
X121893127Y-123457346D01*
X121851348Y-123438745D01*
X121804404Y-123402233D01*
X121779860Y-123348063D01*
X121783362Y-123288695D01*
X121814101Y-123237787D01*
X125382071Y-119669819D01*
X125422300Y-119642939D01*
X125469753Y-119633500D01*
X129695940Y-119633500D01*
X129760268Y-119651491D01*
X129805929Y-119700243D01*
X129819675Y-119765609D01*
X129797515Y-119828623D01*
X129697387Y-119971623D01*
X129653069Y-120010489D01*
X129595812Y-120024500D01*
X129082076Y-120024500D01*
X129016104Y-120005494D01*
X129010823Y-120002176D01*
X128958890Y-119969544D01*
X128799259Y-119913687D01*
X128799258Y-119913686D01*
X128799256Y-119913686D01*
X128631200Y-119894750D01*
X128463143Y-119913686D01*
X128303509Y-119969544D01*
X128246296Y-120005494D01*
X128180324Y-120024500D01*
X127812076Y-120024500D01*
X127746104Y-120005494D01*
X127740823Y-120002176D01*
X127688890Y-119969544D01*
X127529259Y-119913687D01*
X127529258Y-119913686D01*
X127529256Y-119913686D01*
X127361200Y-119894750D01*
X127193143Y-119913686D01*
X127033509Y-119969544D01*
X126976296Y-120005494D01*
X126910324Y-120024500D01*
X126542076Y-120024500D01*
X126476104Y-120005494D01*
X126470823Y-120002176D01*
X126418890Y-119969544D01*
X126259259Y-119913687D01*
X126259258Y-119913686D01*
X126259256Y-119913686D01*
X126091200Y-119894750D01*
X125923143Y-119913686D01*
X125763510Y-119969544D01*
X125620308Y-120059524D01*
X125500724Y-120179108D01*
X125410744Y-120322310D01*
X125354886Y-120481943D01*
X125335950Y-120649999D01*
X125354886Y-120818056D01*
X125354886Y-120818058D01*
X125354887Y-120818059D01*
X125410744Y-120977690D01*
X125500723Y-121120890D01*
X125620310Y-121240477D01*
X125763510Y-121330456D01*
X125923141Y-121386313D01*
X126091200Y-121405249D01*
X126259259Y-121386313D01*
X126418890Y-121330456D01*
X126476104Y-121294505D01*
X126542076Y-121275500D01*
X126910324Y-121275500D01*
X126976295Y-121294505D01*
X127033510Y-121330456D01*
X127193141Y-121386313D01*
X127361200Y-121405249D01*
X127529259Y-121386313D01*
X127688890Y-121330456D01*
X127746104Y-121294505D01*
X127812076Y-121275500D01*
X128180324Y-121275500D01*
X128246295Y-121294505D01*
X128303510Y-121330456D01*
X128463141Y-121386313D01*
X128631200Y-121405249D01*
X128799259Y-121386313D01*
X128958890Y-121330456D01*
X129016104Y-121294505D01*
X129082076Y-121275500D01*
X129595812Y-121275500D01*
X129653069Y-121289511D01*
X129697387Y-121328377D01*
X129809953Y-121489140D01*
X129970859Y-121650046D01*
X130157264Y-121780567D01*
X130157265Y-121780567D01*
X130157266Y-121780568D01*
X130172975Y-121787893D01*
X130225150Y-121833649D01*
X130244570Y-121900274D01*
X130225151Y-121966899D01*
X130172977Y-122012656D01*
X130157517Y-122019865D01*
X130084526Y-122070973D01*
X130809998Y-122796446D01*
X130809999Y-122796446D01*
X131535472Y-122070973D01*
X131535471Y-122070972D01*
X131462483Y-122019866D01*
X131447023Y-122012657D01*
X131394847Y-121966899D01*
X131375428Y-121900273D01*
X131394849Y-121833647D01*
X131447023Y-121787893D01*
X131462734Y-121780568D01*
X131649139Y-121650047D01*
X131810047Y-121489139D01*
X131940568Y-121302734D01*
X132036739Y-121096496D01*
X132095635Y-120876692D01*
X132115468Y-120650000D01*
X132095635Y-120423308D01*
X132036739Y-120203504D01*
X131940568Y-119997266D01*
X131937691Y-119993157D01*
X131822485Y-119828623D01*
X131800325Y-119765609D01*
X131814071Y-119700243D01*
X131859732Y-119651491D01*
X131924060Y-119633500D01*
X134231156Y-119633500D01*
X134251662Y-119635764D01*
X134254565Y-119635672D01*
X134254567Y-119635673D01*
X134321772Y-119633561D01*
X134325668Y-119633500D01*
X134353249Y-119633500D01*
X134353250Y-119633500D01*
X134357219Y-119632998D01*
X134368865Y-119632080D01*
X134412527Y-119630709D01*
X134431759Y-119625120D01*
X134450818Y-119621174D01*
X134457096Y-119620381D01*
X134470692Y-119618664D01*
X134511307Y-119602582D01*
X134522344Y-119598803D01*
X134564290Y-119586618D01*
X134581529Y-119576422D01*
X134599002Y-119567862D01*
X134617632Y-119560486D01*
X134652964Y-119534814D01*
X134662730Y-119528400D01*
X134700318Y-119506171D01*
X134700317Y-119506171D01*
X134700320Y-119506170D01*
X134714485Y-119492004D01*
X134729273Y-119479373D01*
X134745487Y-119467594D01*
X134773338Y-119433926D01*
X134781179Y-119425309D01*
X136991533Y-117214955D01*
X137047119Y-117182863D01*
X137111306Y-117182863D01*
X137166894Y-117214957D01*
G37*
G04 #@! TD.AperFunction*
G04 #@! TA.AperFunction,Conductor*
G36*
X158792923Y-69177236D02*
G01*
X158829819Y-69223207D01*
X158845962Y-69257824D01*
X158845965Y-69257830D01*
X158981505Y-69451401D01*
X159148599Y-69618495D01*
X159334160Y-69748426D01*
X159373024Y-69792743D01*
X159387035Y-69850000D01*
X159373024Y-69907257D01*
X159334159Y-69951575D01*
X159148595Y-70081508D01*
X158981505Y-70248598D01*
X158845965Y-70442170D01*
X158746097Y-70656336D01*
X158684936Y-70884592D01*
X158664340Y-71120000D01*
X158684936Y-71355407D01*
X158729709Y-71522502D01*
X158746097Y-71583663D01*
X158845965Y-71797830D01*
X158981505Y-71991401D01*
X159148599Y-72158495D01*
X159334160Y-72288426D01*
X159373024Y-72332743D01*
X159387035Y-72390000D01*
X159373024Y-72447257D01*
X159334159Y-72491575D01*
X159148595Y-72621508D01*
X158981505Y-72788598D01*
X158845965Y-72982170D01*
X158746097Y-73196336D01*
X158684936Y-73424592D01*
X158664340Y-73659999D01*
X158684936Y-73895407D01*
X158729709Y-74062501D01*
X158746097Y-74123663D01*
X158845965Y-74337830D01*
X158981505Y-74531401D01*
X159148599Y-74698495D01*
X159334160Y-74828426D01*
X159373024Y-74872743D01*
X159387035Y-74930000D01*
X159373024Y-74987257D01*
X159334159Y-75031575D01*
X159148595Y-75161508D01*
X158981505Y-75328598D01*
X158845965Y-75522170D01*
X158746097Y-75736336D01*
X158684936Y-75964592D01*
X158664340Y-76200000D01*
X158684936Y-76435407D01*
X158729709Y-76602502D01*
X158746097Y-76663663D01*
X158845965Y-76877830D01*
X158981505Y-77071401D01*
X159148599Y-77238495D01*
X159334160Y-77368426D01*
X159373024Y-77412743D01*
X159387035Y-77470000D01*
X159373024Y-77527257D01*
X159334159Y-77571575D01*
X159148595Y-77701508D01*
X158981505Y-77868598D01*
X158845965Y-78062170D01*
X158746097Y-78276336D01*
X158684936Y-78504592D01*
X158664340Y-78739999D01*
X158684936Y-78975407D01*
X158729709Y-79142502D01*
X158746097Y-79203663D01*
X158845965Y-79417830D01*
X158981505Y-79611401D01*
X159148599Y-79778495D01*
X159334160Y-79908426D01*
X159373024Y-79952743D01*
X159387035Y-80010000D01*
X159373024Y-80067257D01*
X159334159Y-80111575D01*
X159148595Y-80241508D01*
X158981505Y-80408598D01*
X158845965Y-80602170D01*
X158746097Y-80816336D01*
X158684936Y-81044592D01*
X158664340Y-81280000D01*
X158684936Y-81515407D01*
X158729709Y-81682502D01*
X158746097Y-81743663D01*
X158845965Y-81957830D01*
X158981505Y-82151401D01*
X159148599Y-82318495D01*
X159334160Y-82448426D01*
X159373024Y-82492743D01*
X159387035Y-82550000D01*
X159373024Y-82607257D01*
X159334159Y-82651575D01*
X159148595Y-82781508D01*
X158981505Y-82948598D01*
X158845965Y-83142170D01*
X158746097Y-83356336D01*
X158684936Y-83584592D01*
X158664340Y-83820000D01*
X158684936Y-84055407D01*
X158729709Y-84222501D01*
X158746097Y-84283663D01*
X158845965Y-84497830D01*
X158981505Y-84691401D01*
X159148599Y-84858495D01*
X159334160Y-84988426D01*
X159373024Y-85032743D01*
X159387035Y-85090000D01*
X159373024Y-85147257D01*
X159334159Y-85191575D01*
X159148595Y-85321508D01*
X158981505Y-85488598D01*
X158845965Y-85682170D01*
X158746097Y-85896336D01*
X158684936Y-86124592D01*
X158664340Y-86360000D01*
X158684936Y-86595407D01*
X158729709Y-86762501D01*
X158746097Y-86823663D01*
X158845965Y-87037830D01*
X158981505Y-87231401D01*
X159148599Y-87398495D01*
X159334160Y-87528426D01*
X159373024Y-87572743D01*
X159387035Y-87630000D01*
X159373024Y-87687257D01*
X159334159Y-87731575D01*
X159148595Y-87861508D01*
X158981505Y-88028598D01*
X158845965Y-88222170D01*
X158746097Y-88436336D01*
X158684936Y-88664592D01*
X158664340Y-88899999D01*
X158684936Y-89135407D01*
X158729709Y-89302501D01*
X158746097Y-89363663D01*
X158845965Y-89577830D01*
X158981505Y-89771401D01*
X159148599Y-89938495D01*
X159334160Y-90068426D01*
X159373024Y-90112743D01*
X159387035Y-90170000D01*
X159373024Y-90227257D01*
X159334159Y-90271575D01*
X159148595Y-90401508D01*
X158981505Y-90568598D01*
X158845965Y-90762170D01*
X158746097Y-90976336D01*
X158684936Y-91204592D01*
X158664340Y-91439999D01*
X158684936Y-91675407D01*
X158729709Y-91842502D01*
X158746097Y-91903663D01*
X158845965Y-92117830D01*
X158981505Y-92311401D01*
X159148599Y-92478495D01*
X159334160Y-92608426D01*
X159373024Y-92652743D01*
X159387035Y-92710000D01*
X159373024Y-92767257D01*
X159334159Y-92811575D01*
X159148595Y-92941508D01*
X158981505Y-93108598D01*
X158845965Y-93302170D01*
X158746097Y-93516336D01*
X158684936Y-93744592D01*
X158664340Y-93980000D01*
X158684936Y-94215407D01*
X158721571Y-94352130D01*
X158746097Y-94443663D01*
X158845965Y-94657830D01*
X158981505Y-94851401D01*
X159148599Y-95018495D01*
X159334160Y-95148426D01*
X159373024Y-95192743D01*
X159387035Y-95250000D01*
X159373024Y-95307257D01*
X159334159Y-95351575D01*
X159148595Y-95481508D01*
X158981505Y-95648598D01*
X158845965Y-95842170D01*
X158746097Y-96056336D01*
X158684936Y-96284592D01*
X158664340Y-96519999D01*
X158684936Y-96755407D01*
X158728663Y-96918598D01*
X158746097Y-96983663D01*
X158845965Y-97197830D01*
X158981505Y-97391401D01*
X159148599Y-97558495D01*
X159334160Y-97688426D01*
X159373024Y-97732743D01*
X159387035Y-97790000D01*
X159373024Y-97847257D01*
X159334158Y-97891575D01*
X159174145Y-98003618D01*
X159148595Y-98021508D01*
X158981505Y-98188598D01*
X158845965Y-98382170D01*
X158746097Y-98596336D01*
X158684936Y-98824592D01*
X158664341Y-99059999D01*
X158684936Y-99295407D01*
X158714063Y-99404109D01*
X158746097Y-99523663D01*
X158845965Y-99737830D01*
X158981505Y-99931401D01*
X159148599Y-100098495D01*
X159334160Y-100228426D01*
X159373024Y-100272743D01*
X159387035Y-100330000D01*
X159373024Y-100387257D01*
X159334159Y-100431575D01*
X159148595Y-100561508D01*
X158981505Y-100728598D01*
X158845965Y-100922170D01*
X158746097Y-101136336D01*
X158684936Y-101364592D01*
X158664341Y-101599999D01*
X158684936Y-101835407D01*
X158728663Y-101998598D01*
X158746097Y-102063663D01*
X158845965Y-102277830D01*
X158981505Y-102471401D01*
X159148599Y-102638495D01*
X159334160Y-102768426D01*
X159373024Y-102812743D01*
X159387035Y-102870000D01*
X159373024Y-102927257D01*
X159334159Y-102971575D01*
X159148595Y-103101508D01*
X158981505Y-103268598D01*
X158845965Y-103462170D01*
X158746097Y-103676336D01*
X158684936Y-103904592D01*
X158664340Y-104140000D01*
X158684936Y-104375407D01*
X158717021Y-104495148D01*
X158746097Y-104603663D01*
X158845965Y-104817830D01*
X158981505Y-105011401D01*
X159148599Y-105178495D01*
X159334160Y-105308426D01*
X159373024Y-105352743D01*
X159387035Y-105410000D01*
X159373024Y-105467257D01*
X159334158Y-105511575D01*
X159206487Y-105600972D01*
X159148595Y-105641508D01*
X158981505Y-105808598D01*
X158845965Y-106002170D01*
X158746097Y-106216336D01*
X158684936Y-106444592D01*
X158664340Y-106679999D01*
X158684936Y-106915407D01*
X158711178Y-107013342D01*
X158746097Y-107143663D01*
X158845965Y-107357830D01*
X158981505Y-107551401D01*
X159148599Y-107718495D01*
X159334160Y-107848426D01*
X159373024Y-107892743D01*
X159387035Y-107950000D01*
X159373024Y-108007257D01*
X159334158Y-108051575D01*
X159226184Y-108127180D01*
X159148595Y-108181508D01*
X158981505Y-108348598D01*
X158845965Y-108542170D01*
X158746097Y-108756336D01*
X158684936Y-108984592D01*
X158664340Y-109219999D01*
X158684936Y-109455407D01*
X158746097Y-109683662D01*
X158814566Y-109830495D01*
X158825919Y-109891010D01*
X158806765Y-109949525D01*
X158761827Y-109991614D01*
X158702184Y-110006900D01*
X156520352Y-110006900D01*
X156472899Y-109997461D01*
X156432671Y-109970581D01*
X153964188Y-107502098D01*
X151488302Y-105026211D01*
X151475406Y-105010113D01*
X151424275Y-104962098D01*
X151421478Y-104959387D01*
X151401970Y-104939879D01*
X151398790Y-104937412D01*
X151389924Y-104929839D01*
X151358082Y-104899938D01*
X151340524Y-104890285D01*
X151324264Y-104879604D01*
X151308436Y-104867327D01*
X151268351Y-104849980D01*
X151257861Y-104844841D01*
X151219591Y-104823802D01*
X151200191Y-104818821D01*
X151181784Y-104812519D01*
X151163397Y-104804562D01*
X151125284Y-104798525D01*
X151070059Y-104775082D01*
X151041692Y-104740052D01*
X151040257Y-104741057D01*
X150898494Y-104538598D01*
X150731401Y-104371505D01*
X150545839Y-104241573D01*
X150506975Y-104197257D01*
X150492964Y-104140000D01*
X150506975Y-104082743D01*
X150545839Y-104038426D01*
X150731401Y-103908495D01*
X150898495Y-103741401D01*
X151034035Y-103547830D01*
X151133903Y-103333663D01*
X151195063Y-103105408D01*
X151215659Y-102870000D01*
X151210649Y-102812742D01*
X151195063Y-102634592D01*
X151151337Y-102471404D01*
X151133903Y-102406337D01*
X151034035Y-102192171D01*
X150898495Y-101998599D01*
X150731401Y-101831505D01*
X150545839Y-101701573D01*
X150506974Y-101657255D01*
X150492964Y-101599999D01*
X150506975Y-101542742D01*
X150545837Y-101498428D01*
X150731401Y-101368495D01*
X150898495Y-101201401D01*
X151034035Y-101007830D01*
X151133903Y-100793663D01*
X151195063Y-100565408D01*
X151215659Y-100330000D01*
X151210649Y-100272742D01*
X151195063Y-100094592D01*
X151151337Y-99931404D01*
X151133903Y-99866337D01*
X151034035Y-99652171D01*
X150898495Y-99458599D01*
X150731401Y-99291505D01*
X150545839Y-99161573D01*
X150506974Y-99117255D01*
X150492964Y-99059999D01*
X150506975Y-99002742D01*
X150545837Y-98958428D01*
X150731401Y-98828495D01*
X150898495Y-98661401D01*
X151034035Y-98467830D01*
X151133903Y-98253663D01*
X151195063Y-98025408D01*
X151215659Y-97790000D01*
X151195063Y-97554592D01*
X151133903Y-97326337D01*
X151034035Y-97112171D01*
X150898495Y-96918599D01*
X150776569Y-96796673D01*
X150745273Y-96743927D01*
X150743084Y-96682634D01*
X150770537Y-96627789D01*
X150820916Y-96592810D01*
X150952331Y-96543796D01*
X151067546Y-96457546D01*
X151153796Y-96342331D01*
X151204091Y-96207483D01*
X151210500Y-96147873D01*
X151210499Y-94352128D01*
X151204091Y-94292517D01*
X151153796Y-94157669D01*
X151067546Y-94042454D01*
X150952331Y-93956204D01*
X150817483Y-93905909D01*
X150757873Y-93899500D01*
X150757869Y-93899500D01*
X148962130Y-93899500D01*
X148902515Y-93905909D01*
X148767669Y-93956204D01*
X148652454Y-94042454D01*
X148566204Y-94157668D01*
X148515909Y-94292516D01*
X148509500Y-94352130D01*
X148509500Y-96147869D01*
X148515909Y-96207483D01*
X148566204Y-96342331D01*
X148652454Y-96457546D01*
X148767669Y-96543796D01*
X148879907Y-96585658D01*
X148899082Y-96592810D01*
X148949462Y-96627789D01*
X148976915Y-96682634D01*
X148974726Y-96743926D01*
X148943431Y-96796673D01*
X148821503Y-96918601D01*
X148685965Y-97112170D01*
X148586097Y-97326336D01*
X148524936Y-97554592D01*
X148504340Y-97790000D01*
X148524936Y-98025407D01*
X148556206Y-98142107D01*
X148586097Y-98253663D01*
X148685965Y-98467830D01*
X148821505Y-98661401D01*
X148988599Y-98828495D01*
X149174160Y-98958426D01*
X149213024Y-99002743D01*
X149227035Y-99060000D01*
X149213024Y-99117257D01*
X149174159Y-99161575D01*
X148988595Y-99291508D01*
X148821505Y-99458598D01*
X148685965Y-99652170D01*
X148586097Y-99866336D01*
X148524936Y-100094592D01*
X148504340Y-100329999D01*
X148524936Y-100565407D01*
X148568663Y-100728598D01*
X148586097Y-100793663D01*
X148685965Y-101007830D01*
X148821505Y-101201401D01*
X148988599Y-101368495D01*
X149174160Y-101498426D01*
X149213024Y-101542743D01*
X149227035Y-101600000D01*
X149213024Y-101657257D01*
X149174159Y-101701575D01*
X148988595Y-101831508D01*
X148821505Y-101998598D01*
X148679743Y-102201057D01*
X148677816Y-102199708D01*
X148649186Y-102234492D01*
X148591678Y-102257318D01*
X148575709Y-102259335D01*
X148535099Y-102275413D01*
X148524054Y-102279194D01*
X148482110Y-102291381D01*
X148464865Y-102301579D01*
X148447404Y-102310133D01*
X148428767Y-102317512D01*
X148393431Y-102343185D01*
X148383674Y-102349595D01*
X148346080Y-102371829D01*
X148331913Y-102385996D01*
X148317124Y-102398626D01*
X148300913Y-102410404D01*
X148273072Y-102444058D01*
X148265211Y-102452697D01*
X143738607Y-106979301D01*
X143687180Y-107010202D01*
X143627266Y-107013342D01*
X143572890Y-106987986D01*
X143536783Y-106940071D01*
X143527398Y-106880813D01*
X143544966Y-106679999D01*
X143525141Y-106453397D01*
X143466266Y-106233673D01*
X143370133Y-106027515D01*
X143319025Y-105954526D01*
X142240000Y-107033553D01*
X141514526Y-107759025D01*
X141514526Y-107759026D01*
X141587515Y-107810133D01*
X141793673Y-107906266D01*
X142013397Y-107965141D01*
X142239999Y-107984966D01*
X142440813Y-107967398D01*
X142500071Y-107976783D01*
X142547986Y-108012890D01*
X142573342Y-108067266D01*
X142570202Y-108127180D01*
X142539301Y-108178607D01*
X135617328Y-115100581D01*
X135577100Y-115127461D01*
X135529647Y-115136900D01*
X128854427Y-115136900D01*
X128794690Y-115121562D01*
X128749730Y-115079342D01*
X128730672Y-115020686D01*
X128742228Y-114960103D01*
X128781542Y-114912582D01*
X128906370Y-114821889D01*
X128912098Y-114815528D01*
X129033033Y-114681216D01*
X129127679Y-114517284D01*
X129186174Y-114337256D01*
X129205960Y-114149000D01*
X129186174Y-113960744D01*
X129152403Y-113856809D01*
X129127679Y-113780715D01*
X129033033Y-113616783D01*
X128906370Y-113476110D01*
X128753230Y-113364848D01*
X128580302Y-113287855D01*
X128407984Y-113251228D01*
X128350792Y-113222087D01*
X128315833Y-113168253D01*
X128312476Y-113104152D01*
X128341617Y-113046964D01*
X128346433Y-113041616D01*
X128441079Y-112877684D01*
X128499574Y-112697656D01*
X128519360Y-112509400D01*
X128499574Y-112321144D01*
X128453029Y-112177895D01*
X128441079Y-112141115D01*
X128346433Y-111977183D01*
X128219770Y-111836510D01*
X128066630Y-111725248D01*
X127893702Y-111648255D01*
X127708548Y-111608900D01*
X127708546Y-111608900D01*
X127519254Y-111608900D01*
X127519252Y-111608900D01*
X127334097Y-111648255D01*
X127161172Y-111725247D01*
X127113339Y-111760000D01*
X127008029Y-111836512D01*
X127002301Y-111842873D01*
X126960588Y-111873180D01*
X126910153Y-111883900D01*
X114796152Y-111883900D01*
X114748699Y-111874461D01*
X114708471Y-111847581D01*
X114205407Y-111344516D01*
X114175382Y-111295838D01*
X114170397Y-111238862D01*
X114191513Y-111185711D01*
X114204035Y-111167830D01*
X114303903Y-110953663D01*
X114365063Y-110725408D01*
X114385659Y-110490000D01*
X114365063Y-110254592D01*
X114303903Y-110026337D01*
X114204035Y-109812171D01*
X114068495Y-109618599D01*
X113901401Y-109451505D01*
X113715839Y-109321573D01*
X113676975Y-109277257D01*
X113662964Y-109220000D01*
X113676975Y-109162743D01*
X113715839Y-109118426D01*
X113901401Y-108988495D01*
X114068495Y-108821401D01*
X114204035Y-108627830D01*
X114303903Y-108413663D01*
X114365063Y-108185408D01*
X114385659Y-107950000D01*
X114368951Y-107759026D01*
X122464526Y-107759026D01*
X122537515Y-107810133D01*
X122743673Y-107906266D01*
X122963397Y-107965141D01*
X123190000Y-107984966D01*
X123416602Y-107965141D01*
X123636326Y-107906266D01*
X123842480Y-107810134D01*
X123915471Y-107759026D01*
X127544526Y-107759026D01*
X127617515Y-107810133D01*
X127823673Y-107906266D01*
X128043397Y-107965141D01*
X128270000Y-107984966D01*
X128496602Y-107965141D01*
X128716326Y-107906266D01*
X128922480Y-107810134D01*
X128995471Y-107759026D01*
X137704526Y-107759026D01*
X137777515Y-107810133D01*
X137983673Y-107906266D01*
X138203397Y-107965141D01*
X138430000Y-107984966D01*
X138656602Y-107965141D01*
X138876326Y-107906266D01*
X139082480Y-107810134D01*
X139155472Y-107759025D01*
X138430001Y-107033553D01*
X138430000Y-107033553D01*
X137704526Y-107759025D01*
X137704526Y-107759026D01*
X128995471Y-107759026D01*
X128995472Y-107759025D01*
X128270001Y-107033553D01*
X128270000Y-107033553D01*
X127544526Y-107759025D01*
X127544526Y-107759026D01*
X123915471Y-107759026D01*
X123915472Y-107759025D01*
X123190001Y-107033553D01*
X123190000Y-107033553D01*
X122464526Y-107759025D01*
X122464526Y-107759026D01*
X114368951Y-107759026D01*
X114365063Y-107714592D01*
X114303903Y-107486337D01*
X114204035Y-107272171D01*
X114068495Y-107078599D01*
X113901401Y-106911505D01*
X113715839Y-106781573D01*
X113676975Y-106737257D01*
X113662964Y-106680000D01*
X113662964Y-106679999D01*
X116084750Y-106679999D01*
X116103686Y-106848056D01*
X116103686Y-106848058D01*
X116103687Y-106848059D01*
X116159544Y-107007690D01*
X116249523Y-107150890D01*
X116369110Y-107270477D01*
X116512310Y-107360456D01*
X116671941Y-107416313D01*
X116783980Y-107428937D01*
X116839999Y-107435249D01*
X116839999Y-107435248D01*
X116840000Y-107435249D01*
X117008059Y-107416313D01*
X117167690Y-107360456D01*
X117224904Y-107324505D01*
X117290876Y-107305500D01*
X118929124Y-107305500D01*
X118995095Y-107324505D01*
X119052310Y-107360456D01*
X119211941Y-107416313D01*
X119323980Y-107428937D01*
X119379999Y-107435249D01*
X119379999Y-107435248D01*
X119380000Y-107435249D01*
X119548059Y-107416313D01*
X119707690Y-107360456D01*
X119850890Y-107270477D01*
X119970477Y-107150890D01*
X120060456Y-107007690D01*
X120116313Y-106848059D01*
X120135249Y-106680000D01*
X121885033Y-106680000D01*
X121904858Y-106906602D01*
X121963733Y-107126326D01*
X122059866Y-107332484D01*
X122110972Y-107405471D01*
X122110974Y-107405472D01*
X122836446Y-106680001D01*
X122836446Y-106680000D01*
X122110973Y-105954526D01*
X122110973Y-105954527D01*
X122059865Y-106027516D01*
X121963733Y-106233672D01*
X121904858Y-106453397D01*
X121885033Y-106680000D01*
X120135249Y-106680000D01*
X120133674Y-106666026D01*
X120116313Y-106511943D01*
X120116313Y-106511941D01*
X120060456Y-106352310D01*
X119970477Y-106209110D01*
X119850890Y-106089523D01*
X119707690Y-105999544D01*
X119548059Y-105943687D01*
X119548058Y-105943686D01*
X119548056Y-105943686D01*
X119380000Y-105924750D01*
X119211943Y-105943686D01*
X119052309Y-105999544D01*
X118995096Y-106035494D01*
X118929124Y-106054500D01*
X117290876Y-106054500D01*
X117224904Y-106035494D01*
X117167690Y-105999544D01*
X117008056Y-105943686D01*
X116840000Y-105924750D01*
X116671943Y-105943686D01*
X116512310Y-105999544D01*
X116369108Y-106089524D01*
X116249524Y-106209108D01*
X116159544Y-106352310D01*
X116103686Y-106511943D01*
X116084750Y-106679999D01*
X113662964Y-106679999D01*
X113676975Y-106622743D01*
X113715839Y-106578426D01*
X113901401Y-106448495D01*
X114068495Y-106281401D01*
X114204035Y-106087830D01*
X114303903Y-105873663D01*
X114365063Y-105645408D01*
X114368951Y-105600973D01*
X122464526Y-105600973D01*
X123190000Y-106326446D01*
X123190001Y-106326446D01*
X123915472Y-105600974D01*
X123915471Y-105600972D01*
X123842484Y-105549866D01*
X123636326Y-105453733D01*
X123416602Y-105394858D01*
X123190000Y-105375033D01*
X122963397Y-105394858D01*
X122743672Y-105453733D01*
X122537516Y-105549865D01*
X122464527Y-105600973D01*
X122464526Y-105600973D01*
X114368951Y-105600973D01*
X114385659Y-105410000D01*
X114365063Y-105174592D01*
X114303903Y-104946337D01*
X114204035Y-104732171D01*
X114068495Y-104538599D01*
X113901401Y-104371505D01*
X113715839Y-104241573D01*
X113676975Y-104197257D01*
X113662964Y-104140000D01*
X113676975Y-104082743D01*
X113715839Y-104038426D01*
X113901401Y-103908495D01*
X114068495Y-103741401D01*
X114203653Y-103548374D01*
X114247970Y-103509511D01*
X114305227Y-103495500D01*
X126115556Y-103495500D01*
X126136062Y-103497764D01*
X126138965Y-103497672D01*
X126138967Y-103497673D01*
X126206172Y-103495561D01*
X126210068Y-103495500D01*
X126237649Y-103495500D01*
X126237650Y-103495500D01*
X126241619Y-103494998D01*
X126253265Y-103494080D01*
X126292051Y-103492862D01*
X126356413Y-103508544D01*
X126403517Y-103555123D01*
X126419919Y-103619306D01*
X126400938Y-103682773D01*
X126319542Y-103812312D01*
X126262386Y-103975656D01*
X126233026Y-104022382D01*
X124977382Y-105278026D01*
X124930656Y-105307386D01*
X124767312Y-105364542D01*
X124624108Y-105454524D01*
X124504524Y-105574108D01*
X124414542Y-105717312D01*
X124361514Y-105868859D01*
X124332881Y-105914852D01*
X124287370Y-105944247D01*
X124278059Y-105945492D01*
X123543553Y-106680000D01*
X123543553Y-106680001D01*
X124269025Y-107405472D01*
X124320134Y-107332480D01*
X124416266Y-107126326D01*
X124475141Y-106906602D01*
X124487703Y-106763024D01*
X124508777Y-106703979D01*
X124556041Y-106662790D01*
X124617412Y-106649985D01*
X124677202Y-106668837D01*
X124767310Y-106725456D01*
X124926941Y-106781313D01*
X125095000Y-106800249D01*
X125263059Y-106781313D01*
X125422690Y-106725456D01*
X125495034Y-106679999D01*
X126965033Y-106679999D01*
X126984858Y-106906602D01*
X127043733Y-107126326D01*
X127139866Y-107332484D01*
X127190972Y-107405471D01*
X127190974Y-107405472D01*
X127916446Y-106680001D01*
X128623553Y-106680001D01*
X129349025Y-107405472D01*
X129400134Y-107332480D01*
X129496266Y-107126326D01*
X129555141Y-106906602D01*
X129574966Y-106680000D01*
X129574966Y-106679999D01*
X137125033Y-106679999D01*
X137144858Y-106906602D01*
X137203733Y-107126326D01*
X137299866Y-107332484D01*
X137350972Y-107405471D01*
X137350974Y-107405472D01*
X138076446Y-106680001D01*
X138783553Y-106680001D01*
X139509025Y-107405472D01*
X139560134Y-107332480D01*
X139656266Y-107126326D01*
X139715141Y-106906602D01*
X139734966Y-106680000D01*
X139734966Y-106679999D01*
X140935033Y-106679999D01*
X140954858Y-106906602D01*
X141013733Y-107126326D01*
X141109866Y-107332484D01*
X141160972Y-107405471D01*
X141160974Y-107405472D01*
X141886446Y-106680001D01*
X141886446Y-106680000D01*
X141160973Y-105954526D01*
X141160973Y-105954527D01*
X141109865Y-106027516D01*
X141013733Y-106233672D01*
X140954858Y-106453397D01*
X140935033Y-106679999D01*
X139734966Y-106679999D01*
X139715141Y-106453397D01*
X139656266Y-106233673D01*
X139560133Y-106027515D01*
X139509025Y-105954526D01*
X138783553Y-106680000D01*
X138783553Y-106680001D01*
X138076446Y-106680001D01*
X138076446Y-106680000D01*
X137350973Y-105954526D01*
X137350973Y-105954527D01*
X137299865Y-106027516D01*
X137203733Y-106233672D01*
X137144858Y-106453397D01*
X137125033Y-106679999D01*
X129574966Y-106679999D01*
X129555141Y-106453397D01*
X129496266Y-106233673D01*
X129400133Y-106027515D01*
X129349025Y-105954526D01*
X128623553Y-106680000D01*
X128623553Y-106680001D01*
X127916446Y-106680001D01*
X127916446Y-106680000D01*
X127190973Y-105954526D01*
X127190973Y-105954527D01*
X127139865Y-106027516D01*
X127043733Y-106233672D01*
X126984858Y-106453397D01*
X126965033Y-106679999D01*
X125495034Y-106679999D01*
X125565890Y-106635477D01*
X125685477Y-106515890D01*
X125775456Y-106372690D01*
X125831313Y-106213059D01*
X125831313Y-106213054D01*
X125832613Y-106209341D01*
X125861972Y-106162616D01*
X126423615Y-105600973D01*
X127544526Y-105600973D01*
X128270000Y-106326446D01*
X128270001Y-106326446D01*
X128995472Y-105600974D01*
X128995471Y-105600973D01*
X137704526Y-105600973D01*
X138430000Y-106326446D01*
X138430001Y-106326446D01*
X139155472Y-105600974D01*
X139155471Y-105600973D01*
X141514526Y-105600973D01*
X142240000Y-106326446D01*
X142240001Y-106326446D01*
X142965472Y-105600974D01*
X142965471Y-105600972D01*
X142892484Y-105549866D01*
X142686326Y-105453733D01*
X142466602Y-105394858D01*
X142240000Y-105375033D01*
X142013397Y-105394858D01*
X141793672Y-105453733D01*
X141587516Y-105549865D01*
X141514527Y-105600973D01*
X141514526Y-105600973D01*
X139155471Y-105600973D01*
X139155471Y-105600972D01*
X139082484Y-105549866D01*
X138876326Y-105453733D01*
X138656602Y-105394858D01*
X138430000Y-105375033D01*
X138203397Y-105394858D01*
X137983672Y-105453733D01*
X137777516Y-105549865D01*
X137704527Y-105600973D01*
X137704526Y-105600973D01*
X128995471Y-105600973D01*
X128995471Y-105600972D01*
X128922484Y-105549866D01*
X128716326Y-105453733D01*
X128496602Y-105394858D01*
X128270000Y-105375033D01*
X128043397Y-105394858D01*
X127823672Y-105453733D01*
X127617516Y-105549865D01*
X127544527Y-105600973D01*
X127544526Y-105600973D01*
X126423615Y-105600973D01*
X127117616Y-104906972D01*
X127164341Y-104877613D01*
X127168054Y-104876313D01*
X127168059Y-104876313D01*
X127327690Y-104820456D01*
X127470890Y-104730477D01*
X127590477Y-104610890D01*
X127680456Y-104467690D01*
X127736313Y-104308059D01*
X127755249Y-104140000D01*
X127753674Y-104126026D01*
X127737202Y-103979835D01*
X127736313Y-103971941D01*
X127680456Y-103812310D01*
X127590477Y-103669110D01*
X127470890Y-103549523D01*
X127327690Y-103459544D01*
X127168059Y-103403687D01*
X127168058Y-103403686D01*
X127168056Y-103403686D01*
X126999999Y-103384750D01*
X126865442Y-103399911D01*
X126805394Y-103391777D01*
X126756371Y-103356159D01*
X126730079Y-103301564D01*
X126732798Y-103241029D01*
X126763876Y-103189012D01*
X154181486Y-75771402D01*
X154197587Y-75758504D01*
X154199574Y-75756387D01*
X154199577Y-75756386D01*
X154245632Y-75707341D01*
X154248313Y-75704576D01*
X154267820Y-75685070D01*
X154270281Y-75681895D01*
X154277852Y-75673031D01*
X154307762Y-75641182D01*
X154317412Y-75623627D01*
X154328100Y-75607357D01*
X154340373Y-75591536D01*
X154357722Y-75551441D01*
X154362857Y-75540962D01*
X154373188Y-75522170D01*
X154383897Y-75502692D01*
X154388878Y-75483290D01*
X154395178Y-75464887D01*
X154403138Y-75446495D01*
X154409970Y-75403348D01*
X154412339Y-75391915D01*
X154423200Y-75349620D01*
X154423200Y-75329584D01*
X154424727Y-75310185D01*
X154427860Y-75290404D01*
X154423750Y-75246925D01*
X154423200Y-75235256D01*
X154423200Y-73445852D01*
X154432639Y-73398399D01*
X154459519Y-73358171D01*
X156462283Y-71355407D01*
X158629759Y-69187930D01*
X158680150Y-69157352D01*
X158738970Y-69153497D01*
X158792923Y-69177236D01*
G37*
G04 #@! TD.AperFunction*
M02*
