M48
; DRILL file {KiCad 7.0.1-3b83917a11~172~ubuntu22.04.1} date 2023年04月09日 22時51分05秒
; FORMAT={-:-/ absolute / metric / decimal}
; #@! TF.CreationDate,2023-04-09T22:51:05+09:00
; #@! TF.GenerationSoftware,Kicad,Pcbnew,7.0.1-3b83917a11~172~ubuntu22.04.1
; #@! TF.FileFunction,MixedPlating,1,2
FMAT,2
METRIC
; #@! TA.AperFunction,Plated,PTH,ViaDrill
T1C0.200
; #@! TA.AperFunction,Plated,PTH,ViaDrill
T2C0.400
; #@! TA.AperFunction,Plated,PTH,ComponentDrill
T3C0.800
; #@! TA.AperFunction,Plated,PTH,ComponentDrill
T4C1.000
; #@! TA.AperFunction,NonPlated,NPTH,ComponentDrill
T5C0.889
; #@! TA.AperFunction,NonPlated,NPTH,ComponentDrill
T6C1.753
; #@! TA.AperFunction,NonPlated,NPTH,ComponentDrill
T7C2.311
%
G90
G05
T1
X106.68Y-127.0
X106.68Y-129.54
X109.22Y-132.08
X109.22Y-137.16
X110.49Y-123.19
X113.665Y-123.19
X116.205Y-123.19
X116.84Y-106.68
X119.38Y-106.68
X119.38Y-123.19
X122.555Y-120.65
X125.095Y-106.045
X125.095Y-118.11
X126.091Y-120.65
X127.0Y-104.14
X127.361Y-120.65
X128.631Y-120.65
X132.08Y-114.3
X136.525Y-118.745
X138.43Y-121.285
X147.955Y-79.375
X151.13Y-79.375
X157.48Y-114.3
X157.48Y-122.555
T2
X116.786Y-124.841
X119.189Y-124.978
X120.849Y-125.752
X121.44Y-124.241
X122.768Y-125.404
X127.614Y-112.509
X128.3Y-114.149
X134.007Y-123.847
X136.525Y-123.825
T3
X123.19Y-106.68
X123.19Y-116.84
X128.27Y-106.68
X128.27Y-116.84
X130.81Y-120.65
X130.81Y-123.15
X138.43Y-106.68
X138.43Y-116.84
X142.24Y-106.68
X142.24Y-116.84
T4
X100.31Y-66.04
X100.31Y-68.58
X100.31Y-71.12
X100.31Y-73.66
X100.31Y-76.2
X100.31Y-78.74
X100.31Y-81.28
X100.31Y-83.82
X100.31Y-86.36
X100.31Y-88.9
X100.31Y-91.44
X100.31Y-93.98
X100.31Y-96.52
X100.31Y-99.06
X100.31Y-101.6
X100.31Y-104.14
X100.31Y-106.68
X100.31Y-109.22
X100.31Y-111.76
X100.31Y-114.3
X100.31Y-116.84
X100.31Y-119.38
X100.31Y-121.92
X100.31Y-124.46
X100.31Y-127.0
X100.31Y-129.54
X100.31Y-132.08
X100.31Y-134.62
X100.31Y-137.16
X100.31Y-139.7
X100.31Y-142.24
X100.31Y-144.78
X100.31Y-147.32
X100.31Y-149.86
X100.31Y-152.4
X102.85Y-66.04
X102.85Y-68.58
X102.85Y-71.12
X102.85Y-73.66
X102.85Y-76.2
X102.85Y-78.74
X102.85Y-81.28
X102.85Y-83.82
X102.85Y-86.36
X102.85Y-88.9
X102.85Y-91.44
X102.85Y-93.98
X102.85Y-96.52
X102.85Y-99.06
X102.85Y-101.6
X102.85Y-104.14
X102.85Y-106.68
X102.85Y-109.22
X102.85Y-111.76
X102.85Y-114.3
X102.85Y-116.84
X102.85Y-119.38
X102.85Y-121.92
X102.85Y-124.46
X102.85Y-127.0
X102.85Y-129.54
X102.85Y-132.08
X102.85Y-134.62
X102.85Y-137.16
X102.85Y-139.7
X102.85Y-142.24
X102.85Y-144.78
X102.85Y-147.32
X102.85Y-149.86
X102.85Y-152.4
X113.03Y-95.25
X113.03Y-97.79
X113.03Y-100.33
X113.03Y-102.87
X113.03Y-105.41
X113.03Y-107.95
X113.03Y-110.49
X113.03Y-113.03
X113.03Y-115.57
X149.86Y-95.25
X149.86Y-97.79
X149.86Y-100.33
X149.86Y-102.87
X149.86Y-105.41
X149.86Y-107.95
X149.86Y-110.49
X149.86Y-113.03
X149.86Y-115.57
X160.02Y-66.04
X160.02Y-68.58
X160.02Y-71.12
X160.02Y-73.66
X160.02Y-76.2
X160.02Y-78.74
X160.02Y-81.28
X160.02Y-83.82
X160.02Y-86.36
X160.02Y-88.9
X160.02Y-91.44
X160.02Y-93.98
X160.02Y-96.52
X160.02Y-99.06
X160.02Y-101.6
X160.02Y-104.14
X160.02Y-106.68
X160.02Y-109.22
X160.02Y-111.76
X160.02Y-114.3
X160.02Y-116.84
X160.02Y-119.38
X160.02Y-121.92
X160.02Y-124.46
X160.02Y-127.0
X160.02Y-129.54
X160.02Y-132.08
X160.02Y-134.62
X160.02Y-137.16
X160.02Y-139.7
X160.02Y-142.24
X160.02Y-144.78
X160.02Y-147.32
X160.02Y-149.86
X160.02Y-152.4
X162.56Y-66.04
X162.56Y-68.58
X162.56Y-71.12
X162.56Y-73.66
X162.56Y-76.2
X162.56Y-78.74
X162.56Y-81.28
X162.56Y-83.82
X162.56Y-86.36
X162.56Y-88.9
X162.56Y-91.44
X162.56Y-93.98
X162.56Y-96.52
X162.56Y-99.06
X162.56Y-101.6
X162.56Y-104.14
X162.56Y-106.68
X162.56Y-109.22
X162.56Y-111.76
X162.56Y-114.3
X162.56Y-116.84
X162.56Y-119.38
X162.56Y-121.92
X162.56Y-124.46
X162.56Y-127.0
X162.56Y-129.54
X162.56Y-132.08
X162.56Y-134.62
X162.56Y-137.16
X162.56Y-139.7
X162.56Y-142.24
X162.56Y-144.78
X162.56Y-147.32
X162.56Y-149.86
X162.56Y-152.4
T5
X108.381Y-152.502
X154.38Y-152.502
T6
X112.013Y-134.011
X150.748Y-134.011
T7
X112.013Y-131.013
X150.748Y-131.013
T0
M30
