G04 #@! TF.GenerationSoftware,KiCad,Pcbnew,7.0.1-3b83917a11~172~ubuntu22.04.1*
G04 #@! TF.CreationDate,2023-04-09T22:51:03+09:00*
G04 #@! TF.ProjectId,Akashi-14,416b6173-6869-42d3-9134-2e6b69636164,rev?*
G04 #@! TF.SameCoordinates,Original*
G04 #@! TF.FileFunction,Soldermask,Top*
G04 #@! TF.FilePolarity,Negative*
%FSLAX46Y46*%
G04 Gerber Fmt 4.6, Leading zero omitted, Abs format (unit mm)*
G04 Created by KiCad (PCBNEW 7.0.1-3b83917a11~172~ubuntu22.04.1) date 2023-04-09 22:51:03*
%MOMM*%
%LPD*%
G01*
G04 APERTURE LIST*
%ADD10C,0.889000*%
%ADD11C,2.311400*%
%ADD12C,1.752600*%
%ADD13R,0.406400X3.505200*%
%ADD14R,2.997200X4.495800*%
%ADD15R,1.700000X1.700000*%
%ADD16O,1.700000X1.700000*%
%ADD17C,1.600000*%
%ADD18O,1.600000X1.600000*%
G04 APERTURE END LIST*
D10*
X108380900Y-152501700D03*
D11*
X112013100Y-131013300D03*
D12*
X112013100Y-134010500D03*
D11*
X150748100Y-131013300D03*
D12*
X150748100Y-134010500D03*
D10*
X154380300Y-152501700D03*
D13*
X115823100Y-128270100D03*
X117093100Y-128270100D03*
X118363100Y-128270100D03*
X119633100Y-128270100D03*
X120903100Y-128270100D03*
X122173100Y-128270100D03*
X123443100Y-128270100D03*
X124713100Y-128270100D03*
X125983100Y-128270100D03*
X127253100Y-128270100D03*
X128523100Y-128270100D03*
X129793100Y-128270100D03*
X131063100Y-128270100D03*
X132333100Y-128270100D03*
X133603100Y-128270100D03*
X134873100Y-128270100D03*
X136143100Y-128270100D03*
X137413100Y-128270100D03*
X138683100Y-128270100D03*
X139953100Y-128270100D03*
X141223100Y-128270100D03*
X142493100Y-128270100D03*
X143763100Y-128270100D03*
X145033100Y-128270100D03*
X146303100Y-128270100D03*
X116458100Y-128270100D03*
X117728100Y-128270100D03*
X118998100Y-128270100D03*
X120268100Y-128270100D03*
X121538100Y-128270100D03*
X122808100Y-128270100D03*
X124078100Y-128270100D03*
X125348100Y-128270100D03*
X126618100Y-128270100D03*
X127888100Y-128270100D03*
X129158100Y-128270100D03*
X130428100Y-128270100D03*
X131698100Y-128270100D03*
X132968100Y-128270100D03*
X134238100Y-128270100D03*
X135508100Y-128270100D03*
X136778100Y-128270100D03*
X138048100Y-128270100D03*
X139318100Y-128270100D03*
X140588100Y-128270100D03*
X141858100Y-128270100D03*
X143128100Y-128270100D03*
X144398100Y-128270100D03*
X145668100Y-128270100D03*
X146938100Y-128270100D03*
D14*
X107631600Y-149021900D03*
X155129600Y-149021900D03*
D15*
X113030000Y-95250000D03*
D16*
X113030000Y-97790000D03*
X113030000Y-100330000D03*
X113030000Y-102870000D03*
X113030000Y-105410000D03*
X113030000Y-107950000D03*
X113030000Y-110490000D03*
X113030000Y-113030000D03*
X113030000Y-115570000D03*
D17*
X138430000Y-106680000D03*
D18*
X138430000Y-116840000D03*
D17*
X142240000Y-106680000D03*
D18*
X142240000Y-116840000D03*
D17*
X130810000Y-123150000D03*
X130810000Y-120650000D03*
X123190000Y-106680000D03*
D18*
X123190000Y-116840000D03*
D17*
X128270000Y-106680000D03*
D18*
X128270000Y-116840000D03*
D15*
X149860000Y-95250000D03*
D16*
X149860000Y-97790000D03*
X149860000Y-100330000D03*
X149860000Y-102870000D03*
X149860000Y-105410000D03*
X149860000Y-107950000D03*
X149860000Y-110490000D03*
X149860000Y-113030000D03*
X149860000Y-115570000D03*
D15*
X160020000Y-66040000D03*
D16*
X162560000Y-66040000D03*
X160020000Y-68580000D03*
X162560000Y-68580000D03*
X160020000Y-71120000D03*
X162560000Y-71120000D03*
X160020000Y-73660000D03*
X162560000Y-73660000D03*
X160020000Y-76200000D03*
X162560000Y-76200000D03*
X160020000Y-78740000D03*
X162560000Y-78740000D03*
X160020000Y-81280000D03*
X162560000Y-81280000D03*
X160020000Y-83820000D03*
X162560000Y-83820000D03*
X160020000Y-86360000D03*
X162560000Y-86360000D03*
X160020000Y-88900000D03*
X162560000Y-88900000D03*
X160020000Y-91440000D03*
X162560000Y-91440000D03*
X160020000Y-93980000D03*
X162560000Y-93980000D03*
X160020000Y-96520000D03*
X162560000Y-96520000D03*
X160020000Y-99060000D03*
X162560000Y-99060000D03*
X160020000Y-101600000D03*
X162560000Y-101600000D03*
X160020000Y-104140000D03*
X162560000Y-104140000D03*
X160020000Y-106680000D03*
X162560000Y-106680000D03*
X160020000Y-109220000D03*
X162560000Y-109220000D03*
X160020000Y-111760000D03*
X162560000Y-111760000D03*
X160020000Y-114300000D03*
X162560000Y-114300000D03*
X160020000Y-116840000D03*
X162560000Y-116840000D03*
X160020000Y-119380000D03*
X162560000Y-119380000D03*
X160020000Y-121920000D03*
X162560000Y-121920000D03*
X160020000Y-124460000D03*
X162560000Y-124460000D03*
X160020000Y-127000000D03*
X162560000Y-127000000D03*
X160020000Y-129540000D03*
X162560000Y-129540000D03*
X160020000Y-132080000D03*
X162560000Y-132080000D03*
X160020000Y-134620000D03*
X162560000Y-134620000D03*
X160020000Y-137160000D03*
X162560000Y-137160000D03*
X160020000Y-139700000D03*
X162560000Y-139700000D03*
X160020000Y-142240000D03*
X162560000Y-142240000D03*
X160020000Y-144780000D03*
X162560000Y-144780000D03*
X160020000Y-147320000D03*
X162560000Y-147320000D03*
X160020000Y-149860000D03*
X162560000Y-149860000D03*
X160020000Y-152400000D03*
X162560000Y-152400000D03*
D15*
X100310000Y-66040000D03*
D16*
X102850000Y-66040000D03*
X100310000Y-68580000D03*
X102850000Y-68580000D03*
X100310000Y-71120000D03*
X102850000Y-71120000D03*
X100310000Y-73660000D03*
X102850000Y-73660000D03*
X100310000Y-76200000D03*
X102850000Y-76200000D03*
X100310000Y-78740000D03*
X102850000Y-78740000D03*
X100310000Y-81280000D03*
X102850000Y-81280000D03*
X100310000Y-83820000D03*
X102850000Y-83820000D03*
X100310000Y-86360000D03*
X102850000Y-86360000D03*
X100310000Y-88900000D03*
X102850000Y-88900000D03*
X100310000Y-91440000D03*
X102850000Y-91440000D03*
X100310000Y-93980000D03*
X102850000Y-93980000D03*
X100310000Y-96520000D03*
X102850000Y-96520000D03*
X100310000Y-99060000D03*
X102850000Y-99060000D03*
X100310000Y-101600000D03*
X102850000Y-101600000D03*
X100310000Y-104140000D03*
X102850000Y-104140000D03*
X100310000Y-106680000D03*
X102850000Y-106680000D03*
X100310000Y-109220000D03*
X102850000Y-109220000D03*
X100310000Y-111760000D03*
X102850000Y-111760000D03*
X100310000Y-114300000D03*
X102850000Y-114300000D03*
X100310000Y-116840000D03*
X102850000Y-116840000D03*
X100310000Y-119380000D03*
X102850000Y-119380000D03*
X100310000Y-121920000D03*
X102850000Y-121920000D03*
X100310000Y-124460000D03*
X102850000Y-124460000D03*
X100310000Y-127000000D03*
X102850000Y-127000000D03*
X100310000Y-129540000D03*
X102850000Y-129540000D03*
X100310000Y-132080000D03*
X102850000Y-132080000D03*
X100310000Y-134620000D03*
X102850000Y-134620000D03*
X100310000Y-137160000D03*
X102850000Y-137160000D03*
X100310000Y-139700000D03*
X102850000Y-139700000D03*
X100310000Y-142240000D03*
X102850000Y-142240000D03*
X100310000Y-144780000D03*
X102850000Y-144780000D03*
X100310000Y-147320000D03*
X102850000Y-147320000D03*
X100310000Y-149860000D03*
X102850000Y-149860000D03*
X100310000Y-152400000D03*
X102850000Y-152400000D03*
M02*
