G04 #@! TF.GenerationSoftware,KiCad,Pcbnew,7.0.1-3b83917a11~172~ubuntu22.04.1*
G04 #@! TF.CreationDate,2023-04-09T16:34:52+09:00*
G04 #@! TF.ProjectId,Akashi-14,416b6173-6869-42d3-9134-2e6b69636164,rev?*
G04 #@! TF.SameCoordinates,Original*
G04 #@! TF.FileFunction,Copper,L1,Top*
G04 #@! TF.FilePolarity,Positive*
%FSLAX46Y46*%
G04 Gerber Fmt 4.6, Leading zero omitted, Abs format (unit mm)*
G04 Created by KiCad (PCBNEW 7.0.1-3b83917a11~172~ubuntu22.04.1) date 2023-04-09 16:34:52*
%MOMM*%
%LPD*%
G01*
G04 APERTURE LIST*
G04 #@! TA.AperFunction,SMDPad,CuDef*
%ADD10R,0.406400X3.505200*%
G04 #@! TD*
G04 #@! TA.AperFunction,SMDPad,CuDef*
%ADD11R,2.997200X4.495800*%
G04 #@! TD*
G04 #@! TA.AperFunction,ComponentPad*
%ADD12R,1.700000X1.700000*%
G04 #@! TD*
G04 #@! TA.AperFunction,ComponentPad*
%ADD13O,1.700000X1.700000*%
G04 #@! TD*
G04 #@! TA.AperFunction,ComponentPad*
%ADD14C,1.600000*%
G04 #@! TD*
G04 #@! TA.AperFunction,ComponentPad*
%ADD15O,1.600000X1.600000*%
G04 #@! TD*
G04 #@! TA.AperFunction,ViaPad*
%ADD16C,0.500000*%
G04 #@! TD*
G04 #@! TA.AperFunction,ViaPad*
%ADD17C,0.800000*%
G04 #@! TD*
G04 #@! TA.AperFunction,Conductor*
%ADD18C,0.250000*%
G04 #@! TD*
G04 APERTURE END LIST*
D10*
X115823100Y-128270100D03*
X117093100Y-128270100D03*
X118363100Y-128270100D03*
X119633100Y-128270100D03*
X120903100Y-128270100D03*
X122173100Y-128270100D03*
X123443100Y-128270100D03*
X124713100Y-128270100D03*
X125983100Y-128270100D03*
X127253100Y-128270100D03*
X128523100Y-128270100D03*
X129793100Y-128270100D03*
X131063100Y-128270100D03*
X132333100Y-128270100D03*
X133603100Y-128270100D03*
X134873100Y-128270100D03*
X136143100Y-128270100D03*
X137413100Y-128270100D03*
X138683100Y-128270100D03*
X139953100Y-128270100D03*
X141223100Y-128270100D03*
X142493100Y-128270100D03*
X143763100Y-128270100D03*
X145033100Y-128270100D03*
X146303100Y-128270100D03*
X116458100Y-128270100D03*
X117728100Y-128270100D03*
X118998100Y-128270100D03*
X120268100Y-128270100D03*
X121538100Y-128270100D03*
X122808100Y-128270100D03*
X124078100Y-128270100D03*
X125348100Y-128270100D03*
X126618100Y-128270100D03*
X127888100Y-128270100D03*
X129158100Y-128270100D03*
X130428100Y-128270100D03*
X131698100Y-128270100D03*
X132968100Y-128270100D03*
X134238100Y-128270100D03*
X135508100Y-128270100D03*
X136778100Y-128270100D03*
X138048100Y-128270100D03*
X139318100Y-128270100D03*
X140588100Y-128270100D03*
X141858100Y-128270100D03*
X143128100Y-128270100D03*
X144398100Y-128270100D03*
X145668100Y-128270100D03*
X146938100Y-128270100D03*
D11*
X107631600Y-149021900D03*
X155129600Y-149021900D03*
D12*
X113030000Y-95250000D03*
D13*
X113030000Y-97790000D03*
X113030000Y-100330000D03*
X113030000Y-102870000D03*
X113030000Y-105410000D03*
X113030000Y-107950000D03*
X113030000Y-110490000D03*
X113030000Y-113030000D03*
X113030000Y-115570000D03*
D14*
X138430000Y-106680000D03*
D15*
X138430000Y-116840000D03*
D14*
X142240000Y-106680000D03*
D15*
X142240000Y-116840000D03*
D14*
X130810000Y-123150000D03*
X130810000Y-120650000D03*
X123190000Y-106680000D03*
D15*
X123190000Y-116840000D03*
D14*
X128270000Y-106680000D03*
D15*
X128270000Y-116840000D03*
D12*
X149860000Y-95250000D03*
D13*
X149860000Y-97790000D03*
X149860000Y-100330000D03*
X149860000Y-102870000D03*
X149860000Y-105410000D03*
X149860000Y-107950000D03*
X149860000Y-110490000D03*
X149860000Y-113030000D03*
X149860000Y-115570000D03*
D12*
X160020000Y-66040000D03*
D13*
X162560000Y-66040000D03*
X160020000Y-68580000D03*
X162560000Y-68580000D03*
X160020000Y-71120000D03*
X162560000Y-71120000D03*
X160020000Y-73660000D03*
X162560000Y-73660000D03*
X160020000Y-76200000D03*
X162560000Y-76200000D03*
X160020000Y-78740000D03*
X162560000Y-78740000D03*
X160020000Y-81280000D03*
X162560000Y-81280000D03*
X160020000Y-83820000D03*
X162560000Y-83820000D03*
X160020000Y-86360000D03*
X162560000Y-86360000D03*
X160020000Y-88900000D03*
X162560000Y-88900000D03*
X160020000Y-91440000D03*
X162560000Y-91440000D03*
X160020000Y-93980000D03*
X162560000Y-93980000D03*
X160020000Y-96520000D03*
X162560000Y-96520000D03*
X160020000Y-99060000D03*
X162560000Y-99060000D03*
X160020000Y-101600000D03*
X162560000Y-101600000D03*
X160020000Y-104140000D03*
X162560000Y-104140000D03*
X160020000Y-106680000D03*
X162560000Y-106680000D03*
X160020000Y-109220000D03*
X162560000Y-109220000D03*
X160020000Y-111760000D03*
X162560000Y-111760000D03*
X160020000Y-114300000D03*
X162560000Y-114300000D03*
X160020000Y-116840000D03*
X162560000Y-116840000D03*
X160020000Y-119380000D03*
X162560000Y-119380000D03*
X160020000Y-121920000D03*
X162560000Y-121920000D03*
X160020000Y-124460000D03*
X162560000Y-124460000D03*
X160020000Y-127000000D03*
X162560000Y-127000000D03*
X160020000Y-129540000D03*
X162560000Y-129540000D03*
X160020000Y-132080000D03*
X162560000Y-132080000D03*
X160020000Y-134620000D03*
X162560000Y-134620000D03*
X160020000Y-137160000D03*
X162560000Y-137160000D03*
X160020000Y-139700000D03*
X162560000Y-139700000D03*
X160020000Y-142240000D03*
X162560000Y-142240000D03*
X160020000Y-144780000D03*
X162560000Y-144780000D03*
X160020000Y-147320000D03*
X162560000Y-147320000D03*
X160020000Y-149860000D03*
X162560000Y-149860000D03*
X160020000Y-152400000D03*
X162560000Y-152400000D03*
D12*
X100310000Y-66040000D03*
D13*
X102850000Y-66040000D03*
X100310000Y-68580000D03*
X102850000Y-68580000D03*
X100310000Y-71120000D03*
X102850000Y-71120000D03*
X100310000Y-73660000D03*
X102850000Y-73660000D03*
X100310000Y-76200000D03*
X102850000Y-76200000D03*
X100310000Y-78740000D03*
X102850000Y-78740000D03*
X100310000Y-81280000D03*
X102850000Y-81280000D03*
X100310000Y-83820000D03*
X102850000Y-83820000D03*
X100310000Y-86360000D03*
X102850000Y-86360000D03*
X100310000Y-88900000D03*
X102850000Y-88900000D03*
X100310000Y-91440000D03*
X102850000Y-91440000D03*
X100310000Y-93980000D03*
X102850000Y-93980000D03*
X100310000Y-96520000D03*
X102850000Y-96520000D03*
X100310000Y-99060000D03*
X102850000Y-99060000D03*
X100310000Y-101600000D03*
X102850000Y-101600000D03*
X100310000Y-104140000D03*
X102850000Y-104140000D03*
X100310000Y-106680000D03*
X102850000Y-106680000D03*
X100310000Y-109220000D03*
X102850000Y-109220000D03*
X100310000Y-111760000D03*
X102850000Y-111760000D03*
X100310000Y-114300000D03*
X102850000Y-114300000D03*
X100310000Y-116840000D03*
X102850000Y-116840000D03*
X100310000Y-119380000D03*
X102850000Y-119380000D03*
X100310000Y-121920000D03*
X102850000Y-121920000D03*
X100310000Y-124460000D03*
X102850000Y-124460000D03*
X100310000Y-127000000D03*
X102850000Y-127000000D03*
X100310000Y-129540000D03*
X102850000Y-129540000D03*
X100310000Y-132080000D03*
X102850000Y-132080000D03*
X100310000Y-134620000D03*
X102850000Y-134620000D03*
X100310000Y-137160000D03*
X102850000Y-137160000D03*
X100310000Y-139700000D03*
X102850000Y-139700000D03*
X100310000Y-142240000D03*
X102850000Y-142240000D03*
X100310000Y-144780000D03*
X102850000Y-144780000D03*
X100310000Y-147320000D03*
X102850000Y-147320000D03*
X100310000Y-149860000D03*
X102850000Y-149860000D03*
X100310000Y-152400000D03*
X102850000Y-152400000D03*
D16*
X106680000Y-127000000D03*
X127361200Y-120650000D03*
X126091200Y-120650000D03*
X157480000Y-122555000D03*
D17*
X136525000Y-123825000D03*
D16*
X113665000Y-123190000D03*
X109220000Y-137160000D03*
X138430000Y-121285000D03*
X119380000Y-123190000D03*
X128631200Y-120650000D03*
X122555000Y-120650000D03*
X116205000Y-123190000D03*
X110490000Y-123190000D03*
D17*
X134007341Y-123847341D03*
D16*
X116840000Y-106680000D03*
X157480000Y-114300000D03*
X109220000Y-132080000D03*
X125095000Y-106045000D03*
X106680000Y-129540000D03*
X127000000Y-104140000D03*
X125095000Y-118110000D03*
X119380000Y-106680000D03*
D17*
X127613900Y-112509400D03*
X128300500Y-114149000D03*
X116786200Y-124841100D03*
X121440400Y-124241500D03*
X119189500Y-124977800D03*
X122768200Y-125404100D03*
X120849400Y-125752100D03*
D16*
X151130000Y-79375000D03*
X147955000Y-79375000D03*
X136525000Y-118745000D03*
X132080000Y-114300000D03*
D18*
X135508100Y-122399100D02*
X135508100Y-128270100D01*
X126936400Y-106212000D02*
X126936400Y-113827400D01*
X102850000Y-81280000D02*
X102850000Y-82407500D01*
X103131900Y-82407500D02*
X126936400Y-106212000D01*
X126936400Y-113827400D02*
X135508100Y-122399100D01*
X102850000Y-82407500D02*
X103131900Y-82407500D01*
X129793100Y-126267500D02*
X129560500Y-126034900D01*
X125983100Y-120758100D02*
X126091200Y-120650000D01*
X128523100Y-120758100D02*
X128631200Y-120650000D01*
X127253100Y-128270100D02*
X127253100Y-120758100D01*
X100310000Y-127000000D02*
X101722600Y-125587400D01*
X101722600Y-125587400D02*
X101722600Y-123993015D01*
X102383015Y-123332600D02*
X103997400Y-123332600D01*
X124713100Y-128270100D02*
X124713100Y-125476900D01*
X129793100Y-128270100D02*
X129793100Y-126267500D01*
X124713100Y-125476900D02*
X125095000Y-125095000D01*
X115823100Y-128270100D02*
X115823100Y-123571900D01*
X129560500Y-126034900D02*
X129560500Y-121899500D01*
X136143100Y-124206900D02*
X136525000Y-123825000D01*
X101722600Y-123993015D02*
X102383015Y-123332600D01*
X133350000Y-125730000D02*
X133985000Y-125730000D01*
X129560500Y-121899500D02*
X130810000Y-120650000D01*
X136143100Y-128270100D02*
X136143100Y-124206900D01*
X134873100Y-128270100D02*
X134873100Y-125983100D01*
X115823100Y-123571900D02*
X116205000Y-123190000D01*
X133603100Y-125983100D02*
X133350000Y-125730000D01*
X125983100Y-128270100D02*
X125983100Y-120758100D01*
X133603100Y-128270100D02*
X133603100Y-125983100D01*
X128523100Y-128270100D02*
X128523100Y-120758100D01*
X127253100Y-120758100D02*
X127361200Y-120650000D01*
X134873100Y-125983100D02*
X133985000Y-125095000D01*
X103997400Y-123332600D02*
X104775000Y-122555000D01*
X138683100Y-123503000D02*
X138683100Y-128270100D01*
X127689500Y-112509400D02*
X138683100Y-123503000D01*
X127613900Y-112509400D02*
X127689500Y-112509400D01*
X137413100Y-123261600D02*
X128300500Y-114149000D01*
X137413100Y-128270100D02*
X137413100Y-123261600D01*
X117093100Y-125148000D02*
X117093100Y-128270100D01*
X116786200Y-124841100D02*
X117093100Y-125148000D01*
X143763100Y-128270100D02*
X143763100Y-130300200D01*
X102283000Y-136032500D02*
X138030800Y-136032500D01*
X100310000Y-137160000D02*
X101437500Y-137160000D01*
X149860000Y-100330000D02*
X149860000Y-101457500D01*
X149578100Y-101457500D02*
X143763100Y-107272500D01*
X101437500Y-136878000D02*
X102283000Y-136032500D01*
X143763100Y-107272500D02*
X143763100Y-128270100D01*
X101437500Y-137160000D02*
X101437500Y-136878000D01*
X149860000Y-101457500D02*
X149578100Y-101457500D01*
X138030800Y-136032500D02*
X143763100Y-130300200D01*
X113030000Y-95250000D02*
X113030000Y-96377500D01*
X113362100Y-101600000D02*
X117847700Y-106085600D01*
X113030000Y-96377500D02*
X112748100Y-96377500D01*
X111878700Y-100833000D02*
X112645700Y-101600000D01*
X117847700Y-106085600D02*
X117847700Y-109446800D01*
X112748100Y-96377500D02*
X111878700Y-97246900D01*
X112645700Y-101600000D02*
X113362100Y-101600000D01*
X111878700Y-97246900D02*
X111878700Y-100833000D01*
X126618100Y-118217200D02*
X126618100Y-128270100D01*
X117847700Y-109446800D02*
X126618100Y-118217200D01*
X113030000Y-98917500D02*
X113311900Y-98917500D01*
X118250300Y-108344300D02*
X127888100Y-117982100D01*
X113311900Y-98917500D02*
X118250300Y-103855900D01*
X118250300Y-103855900D02*
X118250300Y-108344300D01*
X113030000Y-97790000D02*
X113030000Y-98917500D01*
X127888100Y-117982100D02*
X127888100Y-128270100D01*
X99155900Y-132564500D02*
X99799000Y-133207600D01*
X100028100Y-120507500D02*
X99155900Y-121379700D01*
X140588100Y-128270100D02*
X140588100Y-130300200D01*
X111175900Y-132663300D02*
X138225000Y-132663300D01*
X138225000Y-132663300D02*
X140588100Y-130300200D01*
X100310000Y-120507500D02*
X100028100Y-120507500D01*
X100310000Y-119380000D02*
X100310000Y-120507500D01*
X110631600Y-133207600D02*
X111175900Y-132663300D01*
X99799000Y-133207600D02*
X110631600Y-133207600D01*
X99155900Y-121379700D02*
X99155900Y-132564500D01*
X101437500Y-130107000D02*
X101437500Y-129356600D01*
X113030000Y-107950000D02*
X113030000Y-109077500D01*
X100592000Y-130952500D02*
X101437500Y-130107000D01*
X100310000Y-132080000D02*
X100310000Y-130952500D01*
X111902500Y-109923000D02*
X112748000Y-109077500D01*
X139953100Y-130300200D02*
X139541100Y-130712200D01*
X115273500Y-130712200D02*
X111902500Y-127341200D01*
X139953100Y-128270100D02*
X139953100Y-130300200D01*
X101437500Y-129356600D02*
X102524100Y-128270000D01*
X112748000Y-109077500D02*
X113030000Y-109077500D01*
X139541100Y-130712200D02*
X115273500Y-130712200D01*
X100310000Y-130952500D02*
X100592000Y-130952500D01*
X110973700Y-128270000D02*
X111902500Y-127341200D01*
X111902500Y-127341200D02*
X111902500Y-109923000D01*
X102524100Y-128270000D02*
X110973700Y-128270000D01*
X121440400Y-124241500D02*
X121401900Y-124241500D01*
X121401900Y-124241500D02*
X119633100Y-126010300D01*
X119633100Y-126010300D02*
X119633100Y-128270100D01*
X118363100Y-125804200D02*
X118363100Y-128270100D01*
X119189500Y-124977800D02*
X118363100Y-125804200D01*
X150141900Y-96377500D02*
X149860000Y-96377500D01*
X141223100Y-128270100D02*
X141223100Y-126240000D01*
X141112100Y-126129000D02*
X141112100Y-104844100D01*
X161432500Y-119196600D02*
X160345900Y-118110000D01*
X152134600Y-110625500D02*
X152134600Y-98370200D01*
X162560000Y-120792500D02*
X162278000Y-120792500D01*
X162278000Y-120792500D02*
X161432500Y-119947000D01*
X160345900Y-118110000D02*
X159619100Y-118110000D01*
X141223100Y-126240000D02*
X141112100Y-126129000D01*
X161432500Y-119947000D02*
X161432500Y-119196600D01*
X149578700Y-96377500D02*
X149860000Y-96377500D01*
X152134600Y-98370200D02*
X150141900Y-96377500D01*
X162560000Y-121920000D02*
X162560000Y-120792500D01*
X149860000Y-95250000D02*
X149860000Y-96377500D01*
X159619100Y-118110000D02*
X152134600Y-110625500D01*
X141112100Y-104844100D02*
X149578700Y-96377500D01*
X150563000Y-114157500D02*
X149860000Y-114157500D01*
X122173100Y-125999200D02*
X122173100Y-128270100D01*
X149860000Y-113030000D02*
X149860000Y-114157500D01*
X122768200Y-125404100D02*
X122173100Y-125999200D01*
X160020000Y-124460000D02*
X160020000Y-123332500D01*
X159738000Y-123332500D02*
X150563000Y-114157500D01*
X160020000Y-123332500D02*
X159738000Y-123332500D01*
X162560000Y-123332500D02*
X162278000Y-123332500D01*
X150987500Y-111955700D02*
X150987500Y-99763000D01*
X142493100Y-128270100D02*
X142493100Y-119996000D01*
X159681800Y-120650000D02*
X150987500Y-111955700D01*
X161432500Y-122487000D02*
X161432500Y-121736600D01*
X150142000Y-98917500D02*
X149860000Y-98917500D01*
X150987500Y-99763000D02*
X150142000Y-98917500D01*
X142493100Y-119996000D02*
X143317600Y-119171500D01*
X143317600Y-105264900D02*
X149665000Y-98917500D01*
X149665000Y-98917500D02*
X149860000Y-98917500D01*
X161432500Y-121736600D02*
X160345900Y-120650000D01*
X149860000Y-97790000D02*
X149860000Y-98917500D01*
X162560000Y-124460000D02*
X162560000Y-123332500D01*
X160345900Y-120650000D02*
X159681800Y-120650000D01*
X162278000Y-123332500D02*
X161432500Y-122487000D01*
X143317600Y-119171500D02*
X143317600Y-105264900D01*
X123445700Y-126237400D02*
X123445700Y-124384200D01*
X115923500Y-116862000D02*
X115923500Y-105763500D01*
X123445700Y-124384200D02*
X115923500Y-116862000D01*
X123443100Y-128270100D02*
X123443100Y-126240000D01*
X115923500Y-105763500D02*
X113030000Y-102870000D01*
X123443100Y-126240000D02*
X123445700Y-126237400D01*
X120849400Y-125752100D02*
X120903100Y-125805800D01*
X120903100Y-125805800D02*
X120903100Y-128270100D01*
X113030000Y-105410000D02*
X113030000Y-106537500D01*
X112748100Y-104282500D02*
X113030000Y-104282500D01*
X115296900Y-108555800D02*
X115296900Y-130162000D01*
X102850000Y-69707500D02*
X102568100Y-69707500D01*
X113030000Y-105410000D02*
X113030000Y-104282500D01*
X101722400Y-84288300D02*
X102524100Y-85090000D01*
X111224100Y-102758500D02*
X112748100Y-104282500D01*
X102850000Y-68580000D02*
X102850000Y-69707500D01*
X101722400Y-70553200D02*
X101722400Y-84288300D01*
X113030000Y-106537500D02*
X113278600Y-106537500D01*
X113278600Y-106537500D02*
X115296900Y-108555800D01*
X102524100Y-85090000D02*
X103250800Y-85090000D01*
X111224100Y-93063300D02*
X111224100Y-102758500D01*
X115435100Y-130300200D02*
X130428100Y-130300200D01*
X115296900Y-130162000D02*
X115435100Y-130300200D01*
X103250800Y-85090000D02*
X111224100Y-93063300D01*
X102568100Y-69707500D02*
X101722400Y-70553200D01*
X130428100Y-128270100D02*
X130428100Y-130300200D01*
X130810000Y-123150000D02*
X131063100Y-123403100D01*
X147955000Y-79375000D02*
X151130000Y-79375000D01*
X136525000Y-118745000D02*
X132080000Y-114300000D01*
X131063100Y-123403100D02*
X131063100Y-128270100D01*
X123190000Y-116840000D02*
X123190000Y-117917500D01*
X124078100Y-118805600D02*
X123190000Y-117917500D01*
X124078100Y-126240000D02*
X124078100Y-118805600D01*
X124078100Y-128270100D02*
X124078100Y-126240000D01*
X129158100Y-117728100D02*
X128270000Y-116840000D01*
X129158100Y-128270100D02*
X129158100Y-117728100D01*
X138430000Y-116840000D02*
X138430000Y-117917500D01*
X139318100Y-128270100D02*
X139318100Y-118805600D01*
X139318100Y-118805600D02*
X138430000Y-117917500D01*
X142240000Y-116840000D02*
X142240000Y-117917500D01*
X141858100Y-118299400D02*
X142240000Y-117917500D01*
X141858100Y-128270100D02*
X141858100Y-118299400D01*
G04 #@! TA.AperFunction,Conductor*
G36*
X111063000Y-64151613D02*
G01*
X111108387Y-64197000D01*
X111125000Y-64259000D01*
X111125000Y-78105000D01*
X151765000Y-78105000D01*
X151765000Y-64259000D01*
X151781613Y-64197000D01*
X151827000Y-64151613D01*
X151889000Y-64135000D01*
X164341000Y-64135000D01*
X164403000Y-64151613D01*
X164448387Y-64197000D01*
X164465000Y-64259000D01*
X164465000Y-154181000D01*
X164448387Y-154243000D01*
X164403000Y-154288387D01*
X164341000Y-154305000D01*
X98549000Y-154305000D01*
X98487000Y-154288387D01*
X98441613Y-154243000D01*
X98425000Y-154181000D01*
X98425000Y-133010663D01*
X98441483Y-132948888D01*
X98486551Y-132903536D01*
X98548221Y-132886665D01*
X98610099Y-132902761D01*
X98655732Y-132947543D01*
X98657727Y-132950916D01*
X98657728Y-132950917D01*
X98657730Y-132950920D01*
X98671895Y-132965085D01*
X98684527Y-132979875D01*
X98696306Y-132996087D01*
X98729958Y-133023926D01*
X98738599Y-133031789D01*
X99275775Y-133568965D01*
X99307868Y-133624551D01*
X99307870Y-133688736D01*
X99275779Y-133744324D01*
X99271504Y-133748599D01*
X99135965Y-133942170D01*
X99036097Y-134156336D01*
X98974936Y-134384592D01*
X98954340Y-134619999D01*
X98974936Y-134855407D01*
X99003695Y-134962736D01*
X99036097Y-135083663D01*
X99135965Y-135297830D01*
X99271505Y-135491401D01*
X99438599Y-135658495D01*
X99624160Y-135788426D01*
X99663024Y-135832743D01*
X99677035Y-135890000D01*
X99663024Y-135947257D01*
X99624158Y-135991575D01*
X99468388Y-136100647D01*
X99438595Y-136121508D01*
X99271505Y-136288598D01*
X99135965Y-136482170D01*
X99036097Y-136696336D01*
X98974936Y-136924592D01*
X98954340Y-137160000D01*
X98974936Y-137395407D01*
X99019709Y-137562501D01*
X99036097Y-137623663D01*
X99135965Y-137837830D01*
X99271505Y-138031401D01*
X99438599Y-138198495D01*
X99624160Y-138328426D01*
X99663024Y-138372743D01*
X99677035Y-138430000D01*
X99663024Y-138487257D01*
X99624159Y-138531575D01*
X99438595Y-138661508D01*
X99271505Y-138828598D01*
X99135965Y-139022170D01*
X99036097Y-139236336D01*
X98974936Y-139464592D01*
X98954340Y-139699999D01*
X98974936Y-139935407D01*
X99019709Y-140102502D01*
X99036097Y-140163663D01*
X99135965Y-140377830D01*
X99271505Y-140571401D01*
X99438599Y-140738495D01*
X99624160Y-140868426D01*
X99663024Y-140912743D01*
X99677035Y-140970000D01*
X99663024Y-141027257D01*
X99624159Y-141071575D01*
X99438595Y-141201508D01*
X99271505Y-141368598D01*
X99135965Y-141562170D01*
X99036097Y-141776336D01*
X98974936Y-142004592D01*
X98954340Y-142240000D01*
X98974936Y-142475407D01*
X99019709Y-142642501D01*
X99036097Y-142703663D01*
X99135965Y-142917830D01*
X99271505Y-143111401D01*
X99438599Y-143278495D01*
X99624160Y-143408426D01*
X99663024Y-143452743D01*
X99677035Y-143510000D01*
X99663024Y-143567257D01*
X99624159Y-143611575D01*
X99438595Y-143741508D01*
X99271505Y-143908598D01*
X99135965Y-144102170D01*
X99036097Y-144316336D01*
X98974936Y-144544592D01*
X98954340Y-144779999D01*
X98974936Y-145015407D01*
X99019709Y-145182502D01*
X99036097Y-145243663D01*
X99135965Y-145457830D01*
X99271505Y-145651401D01*
X99438599Y-145818495D01*
X99624160Y-145948426D01*
X99663024Y-145992743D01*
X99677035Y-146050000D01*
X99663024Y-146107257D01*
X99624158Y-146151575D01*
X99440175Y-146280402D01*
X99438595Y-146281508D01*
X99271505Y-146448598D01*
X99135965Y-146642170D01*
X99036097Y-146856336D01*
X98974936Y-147084592D01*
X98954340Y-147320000D01*
X98974936Y-147555407D01*
X99019709Y-147722501D01*
X99036097Y-147783663D01*
X99135965Y-147997830D01*
X99271505Y-148191401D01*
X99438599Y-148358495D01*
X99624160Y-148488426D01*
X99663024Y-148532743D01*
X99677035Y-148590000D01*
X99663024Y-148647257D01*
X99624159Y-148691575D01*
X99438595Y-148821508D01*
X99271505Y-148988598D01*
X99135965Y-149182170D01*
X99036097Y-149396336D01*
X98974936Y-149624592D01*
X98954340Y-149860000D01*
X98974936Y-150095407D01*
X99019709Y-150262502D01*
X99036097Y-150323663D01*
X99135965Y-150537830D01*
X99271505Y-150731401D01*
X99438599Y-150898495D01*
X99624160Y-151028426D01*
X99663024Y-151072743D01*
X99677035Y-151130000D01*
X99663024Y-151187257D01*
X99624159Y-151231575D01*
X99438595Y-151361508D01*
X99271505Y-151528598D01*
X99135965Y-151722170D01*
X99036097Y-151936336D01*
X98974936Y-152164592D01*
X98954340Y-152400000D01*
X98974936Y-152635407D01*
X99005631Y-152749961D01*
X99036097Y-152863663D01*
X99135965Y-153077830D01*
X99271505Y-153271401D01*
X99438599Y-153438495D01*
X99632170Y-153574035D01*
X99846337Y-153673903D01*
X100074591Y-153735062D01*
X100074592Y-153735063D01*
X100309999Y-153755659D01*
X100309999Y-153755658D01*
X100310000Y-153755659D01*
X100545408Y-153735063D01*
X100773663Y-153673903D01*
X100987830Y-153574035D01*
X101181401Y-153438495D01*
X101348495Y-153271401D01*
X101478426Y-153085839D01*
X101522743Y-153046975D01*
X101580000Y-153032964D01*
X101637257Y-153046975D01*
X101681573Y-153085839D01*
X101811505Y-153271401D01*
X101978599Y-153438495D01*
X102172170Y-153574035D01*
X102386337Y-153673903D01*
X102614591Y-153735062D01*
X102614592Y-153735063D01*
X102849999Y-153755659D01*
X102849999Y-153755658D01*
X102850000Y-153755659D01*
X103085408Y-153735063D01*
X103313663Y-153673903D01*
X103527830Y-153574035D01*
X103721401Y-153438495D01*
X103888495Y-153271401D01*
X104024035Y-153077830D01*
X104123903Y-152863663D01*
X104185063Y-152635408D01*
X104189378Y-152586088D01*
X107685900Y-152586088D01*
X107726289Y-152749962D01*
X107804725Y-152899405D01*
X107916643Y-153025735D01*
X108055544Y-153121612D01*
X108115392Y-153144309D01*
X108213354Y-153181461D01*
X108338857Y-153196700D01*
X108422942Y-153196700D01*
X108422943Y-153196700D01*
X108548446Y-153181461D01*
X108706255Y-153121612D01*
X108845155Y-153025736D01*
X108957075Y-152899405D01*
X109008512Y-152801399D01*
X109035510Y-152749962D01*
X109075900Y-152586088D01*
X109075900Y-152417312D01*
X109035510Y-152253437D01*
X108957076Y-152103996D01*
X108939553Y-152084217D01*
X108845155Y-151977664D01*
X108845153Y-151977662D01*
X108843705Y-151976028D01*
X108816876Y-151926376D01*
X108814830Y-151869977D01*
X108837992Y-151818512D01*
X108881564Y-151782643D01*
X108936520Y-151769800D01*
X109178024Y-151769800D01*
X109237575Y-151763397D01*
X109372289Y-151713152D01*
X109487388Y-151626988D01*
X109573552Y-151511889D01*
X109623797Y-151377175D01*
X109630200Y-151317624D01*
X109630200Y-149271900D01*
X153131000Y-149271900D01*
X153131000Y-151317624D01*
X153137402Y-151377175D01*
X153187647Y-151511889D01*
X153273811Y-151626988D01*
X153388910Y-151713152D01*
X153523624Y-151763397D01*
X153583176Y-151769800D01*
X153824680Y-151769800D01*
X153879636Y-151782643D01*
X153923208Y-151818512D01*
X153946370Y-151869977D01*
X153944324Y-151926376D01*
X153917495Y-151976028D01*
X153916046Y-151977662D01*
X153916045Y-151977664D01*
X153876792Y-152021970D01*
X153804123Y-152103996D01*
X153725689Y-152253437D01*
X153685300Y-152417312D01*
X153685300Y-152586088D01*
X153725689Y-152749962D01*
X153804125Y-152899405D01*
X153916043Y-153025735D01*
X154054944Y-153121612D01*
X154114792Y-153144309D01*
X154212754Y-153181461D01*
X154338257Y-153196700D01*
X154422342Y-153196700D01*
X154422343Y-153196700D01*
X154547846Y-153181461D01*
X154705655Y-153121612D01*
X154844555Y-153025736D01*
X154956475Y-152899405D01*
X155007912Y-152801399D01*
X155034910Y-152749962D01*
X155075300Y-152586088D01*
X155075300Y-152417312D01*
X155034910Y-152253437D01*
X154980915Y-152150561D01*
X154956475Y-152103995D01*
X154946791Y-152093064D01*
X154840776Y-151973397D01*
X154812621Y-151918414D01*
X154814487Y-151856670D01*
X154845910Y-151803488D01*
X154879600Y-151769798D01*
X154879600Y-149271900D01*
X155379600Y-149271900D01*
X155379600Y-151769800D01*
X156676024Y-151769800D01*
X156735575Y-151763397D01*
X156870289Y-151713152D01*
X156985388Y-151626988D01*
X157071552Y-151511889D01*
X157121797Y-151377175D01*
X157128200Y-151317624D01*
X157128200Y-149271900D01*
X155379600Y-149271900D01*
X154879600Y-149271900D01*
X153131000Y-149271900D01*
X109630200Y-149271900D01*
X107881600Y-149271900D01*
X107881600Y-151769800D01*
X107915289Y-151803489D01*
X107946712Y-151856671D01*
X107948578Y-151918414D01*
X107920424Y-151973397D01*
X107804723Y-152103996D01*
X107726289Y-152253437D01*
X107685900Y-152417312D01*
X107685900Y-152586088D01*
X104189378Y-152586088D01*
X104205659Y-152400000D01*
X104185063Y-152164592D01*
X104123903Y-151936337D01*
X104024035Y-151722171D01*
X103888495Y-151528599D01*
X103721401Y-151361505D01*
X103535839Y-151231573D01*
X103496975Y-151187257D01*
X103482964Y-151130000D01*
X103496975Y-151072743D01*
X103535839Y-151028426D01*
X103721401Y-150898495D01*
X103888495Y-150731401D01*
X104024035Y-150537830D01*
X104123903Y-150323663D01*
X104185063Y-150095408D01*
X104205659Y-149860000D01*
X104185063Y-149624592D01*
X104123903Y-149396337D01*
X104065877Y-149271900D01*
X105633000Y-149271900D01*
X105633000Y-151317624D01*
X105639402Y-151377175D01*
X105689647Y-151511889D01*
X105775811Y-151626988D01*
X105890910Y-151713152D01*
X106025624Y-151763397D01*
X106085176Y-151769800D01*
X107381600Y-151769800D01*
X107381600Y-149271900D01*
X105633000Y-149271900D01*
X104065877Y-149271900D01*
X104024035Y-149182171D01*
X103888495Y-148988599D01*
X103721401Y-148821505D01*
X103650558Y-148771900D01*
X105633000Y-148771900D01*
X107381600Y-148771900D01*
X107381600Y-146274000D01*
X107881600Y-146274000D01*
X107881600Y-148771900D01*
X109630200Y-148771900D01*
X153131000Y-148771900D01*
X154879600Y-148771900D01*
X154879600Y-146274000D01*
X155379600Y-146274000D01*
X155379600Y-148771900D01*
X157128200Y-148771900D01*
X157128200Y-146726176D01*
X157121797Y-146666624D01*
X157071552Y-146531910D01*
X156985388Y-146416811D01*
X156870289Y-146330647D01*
X156735575Y-146280402D01*
X156676024Y-146274000D01*
X155379600Y-146274000D01*
X154879600Y-146274000D01*
X153583176Y-146274000D01*
X153523624Y-146280402D01*
X153388910Y-146330647D01*
X153273811Y-146416811D01*
X153187647Y-146531910D01*
X153137402Y-146666624D01*
X153131000Y-146726176D01*
X153131000Y-148771900D01*
X109630200Y-148771900D01*
X109630200Y-146726176D01*
X109623797Y-146666624D01*
X109573552Y-146531910D01*
X109487388Y-146416811D01*
X109372289Y-146330647D01*
X109237575Y-146280402D01*
X109178024Y-146274000D01*
X107881600Y-146274000D01*
X107381600Y-146274000D01*
X106085176Y-146274000D01*
X106025624Y-146280402D01*
X105890910Y-146330647D01*
X105775811Y-146416811D01*
X105689647Y-146531910D01*
X105639402Y-146666624D01*
X105633000Y-146726176D01*
X105633000Y-148771900D01*
X103650558Y-148771900D01*
X103535839Y-148691573D01*
X103496975Y-148647257D01*
X103482964Y-148590000D01*
X103496975Y-148532743D01*
X103535839Y-148488426D01*
X103721401Y-148358495D01*
X103888495Y-148191401D01*
X104024035Y-147997830D01*
X104123903Y-147783663D01*
X104185063Y-147555408D01*
X104205659Y-147320000D01*
X104185063Y-147084592D01*
X104123903Y-146856337D01*
X104024035Y-146642171D01*
X103888495Y-146448599D01*
X103721401Y-146281505D01*
X103535839Y-146151573D01*
X103496976Y-146107257D01*
X103482965Y-146050000D01*
X103496976Y-145992743D01*
X103535839Y-145948426D01*
X103721401Y-145818495D01*
X103888495Y-145651401D01*
X104024035Y-145457830D01*
X104123903Y-145243663D01*
X104185063Y-145015408D01*
X104205659Y-144780000D01*
X104185063Y-144544592D01*
X104123903Y-144316337D01*
X104024035Y-144102171D01*
X103888495Y-143908599D01*
X103721401Y-143741505D01*
X103535839Y-143611573D01*
X103496975Y-143567257D01*
X103482964Y-143510000D01*
X103496975Y-143452743D01*
X103535839Y-143408426D01*
X103721401Y-143278495D01*
X103888495Y-143111401D01*
X104024035Y-142917830D01*
X104123903Y-142703663D01*
X104185063Y-142475408D01*
X104205659Y-142240000D01*
X104185063Y-142004592D01*
X104123903Y-141776337D01*
X104024035Y-141562171D01*
X103888495Y-141368599D01*
X103721401Y-141201505D01*
X103535402Y-141071267D01*
X103496539Y-141026951D01*
X103482528Y-140969694D01*
X103496539Y-140912437D01*
X103535405Y-140868119D01*
X103721078Y-140738109D01*
X103888106Y-140571081D01*
X104023600Y-140377576D01*
X104123430Y-140163492D01*
X104180636Y-139950000D01*
X102724000Y-139950000D01*
X102662000Y-139933387D01*
X102616613Y-139888000D01*
X102600000Y-139826000D01*
X102600000Y-139574000D01*
X102616613Y-139512000D01*
X102662000Y-139466613D01*
X102724000Y-139450000D01*
X104180636Y-139450000D01*
X104180635Y-139449999D01*
X104123430Y-139236507D01*
X104023599Y-139022421D01*
X103888109Y-138828921D01*
X103721081Y-138661893D01*
X103535404Y-138531880D01*
X103496539Y-138487562D01*
X103482528Y-138430305D01*
X103496539Y-138373048D01*
X103535402Y-138328732D01*
X103721401Y-138198495D01*
X103888495Y-138031401D01*
X104024035Y-137837830D01*
X104123903Y-137623663D01*
X104185063Y-137395408D01*
X104205659Y-137160000D01*
X104185063Y-136924592D01*
X104185062Y-136924591D01*
X104155456Y-136814093D01*
X104153614Y-136757808D01*
X104176855Y-136706513D01*
X104220387Y-136670788D01*
X104275231Y-136658000D01*
X137948056Y-136658000D01*
X137968562Y-136660264D01*
X137971465Y-136660172D01*
X137971467Y-136660173D01*
X138038672Y-136658061D01*
X138042568Y-136658000D01*
X138070149Y-136658000D01*
X138070150Y-136658000D01*
X138074119Y-136657498D01*
X138085765Y-136656580D01*
X138129427Y-136655209D01*
X138148659Y-136649620D01*
X138167718Y-136645674D01*
X138173996Y-136644881D01*
X138187592Y-136643164D01*
X138228207Y-136627082D01*
X138239244Y-136623303D01*
X138281190Y-136611118D01*
X138298429Y-136600922D01*
X138315902Y-136592362D01*
X138334532Y-136584986D01*
X138369864Y-136559314D01*
X138379630Y-136552900D01*
X138417218Y-136530671D01*
X138417217Y-136530671D01*
X138417220Y-136530670D01*
X138431385Y-136516504D01*
X138446173Y-136503873D01*
X138462387Y-136492094D01*
X138490238Y-136458426D01*
X138498079Y-136449809D01*
X140991247Y-133956641D01*
X149617457Y-133956641D01*
X149618905Y-133987036D01*
X149627696Y-134171590D01*
X149678431Y-134380720D01*
X149767822Y-134576461D01*
X149832353Y-134667081D01*
X149892648Y-134751753D01*
X150048390Y-134900253D01*
X150229422Y-135016595D01*
X150429200Y-135096574D01*
X150640504Y-135137300D01*
X150801767Y-135137300D01*
X150801772Y-135137300D01*
X150962318Y-135121970D01*
X151168794Y-135061343D01*
X151360065Y-134962736D01*
X151529218Y-134829713D01*
X151670139Y-134667081D01*
X151777735Y-134480719D01*
X151848118Y-134277361D01*
X151878743Y-134064359D01*
X151868504Y-133849410D01*
X151817770Y-133640284D01*
X151785200Y-133568965D01*
X151728377Y-133444538D01*
X151620283Y-133292743D01*
X151603552Y-133269247D01*
X151447810Y-133120747D01*
X151266778Y-133004405D01*
X151067000Y-132924426D01*
X151066998Y-132924425D01*
X150855696Y-132883700D01*
X150694428Y-132883700D01*
X150594086Y-132893281D01*
X150533879Y-132899030D01*
X150327407Y-132959656D01*
X150136136Y-133058263D01*
X149966981Y-133191288D01*
X149826059Y-133353920D01*
X149718465Y-133540279D01*
X149648081Y-133743638D01*
X149619537Y-133942171D01*
X149617457Y-133956641D01*
X140991247Y-133956641D01*
X143994486Y-130953403D01*
X149338088Y-130953403D01*
X149348247Y-131192558D01*
X149357742Y-131236614D01*
X149398677Y-131426558D01*
X149487926Y-131648661D01*
X149487928Y-131648665D01*
X149613432Y-131852496D01*
X149768212Y-132028361D01*
X149771579Y-132032186D01*
X149957813Y-132182560D01*
X150166789Y-132299302D01*
X150392489Y-132379047D01*
X150628413Y-132419500D01*
X150628415Y-132419500D01*
X150807833Y-132419500D01*
X150807836Y-132419500D01*
X150915097Y-132410370D01*
X150986608Y-132404284D01*
X151141039Y-132364073D01*
X151218256Y-132343968D01*
X151386315Y-132268000D01*
X151436376Y-132245371D01*
X151634697Y-132111329D01*
X151807512Y-131945700D01*
X151949849Y-131753246D01*
X152057615Y-131539506D01*
X152127708Y-131310628D01*
X152158112Y-131073197D01*
X152147953Y-130834042D01*
X152097523Y-130600044D01*
X152094606Y-130592786D01*
X152021720Y-130411401D01*
X152008272Y-130377935D01*
X151882768Y-130174104D01*
X151724622Y-129994415D01*
X151724620Y-129994413D01*
X151538386Y-129844039D01*
X151329410Y-129727297D01*
X151103710Y-129647552D01*
X150867787Y-129607100D01*
X150867785Y-129607100D01*
X150688367Y-129607100D01*
X150688364Y-129607100D01*
X150509593Y-129622315D01*
X150277943Y-129682631D01*
X150059824Y-129781228D01*
X149861503Y-129915270D01*
X149688687Y-130080899D01*
X149546351Y-130273353D01*
X149438585Y-130487093D01*
X149368889Y-130714674D01*
X149368492Y-130715972D01*
X149338088Y-130953403D01*
X143994486Y-130953403D01*
X144146889Y-130801000D01*
X144162985Y-130788106D01*
X144164973Y-130785987D01*
X144164977Y-130785986D01*
X144211048Y-130736923D01*
X144213666Y-130734223D01*
X144233220Y-130714671D01*
X144235681Y-130711498D01*
X144243256Y-130702627D01*
X144273162Y-130670782D01*
X144282817Y-130653218D01*
X144293494Y-130636964D01*
X144305773Y-130621136D01*
X144315804Y-130597953D01*
X144342847Y-130558605D01*
X144382753Y-130532391D01*
X144429606Y-130523199D01*
X144649168Y-130523199D01*
X144649172Y-130523199D01*
X144702354Y-130517482D01*
X144728853Y-130517482D01*
X144782027Y-130523200D01*
X145284172Y-130523199D01*
X145337354Y-130517482D01*
X145363853Y-130517482D01*
X145417027Y-130523200D01*
X145919172Y-130523199D01*
X145972354Y-130517482D01*
X145998853Y-130517482D01*
X146052027Y-130523200D01*
X146554172Y-130523199D01*
X146609699Y-130517230D01*
X146636200Y-130517231D01*
X146687068Y-130522700D01*
X146734900Y-130522700D01*
X146739895Y-130517704D01*
X146748016Y-130483339D01*
X146784590Y-130439577D01*
X146861273Y-130382172D01*
X146863846Y-130380246D01*
X146918034Y-130307860D01*
X146965789Y-130269378D01*
X147026146Y-130258488D01*
X147084340Y-130277857D01*
X147126132Y-130322745D01*
X147141300Y-130382172D01*
X147141300Y-130522700D01*
X147189124Y-130522700D01*
X147248675Y-130516297D01*
X147383389Y-130466052D01*
X147498488Y-130379888D01*
X147584652Y-130264789D01*
X147634897Y-130130075D01*
X147641300Y-130070524D01*
X147641300Y-128473300D01*
X147130800Y-128473300D01*
X147068800Y-128456687D01*
X147023413Y-128411300D01*
X147006800Y-128349301D01*
X147006799Y-128190901D01*
X147023412Y-128128900D01*
X147068799Y-128083513D01*
X147130799Y-128066900D01*
X147641300Y-128066900D01*
X147641300Y-126469676D01*
X147634897Y-126410124D01*
X147584652Y-126275410D01*
X147498488Y-126160311D01*
X147383389Y-126074147D01*
X147248675Y-126023902D01*
X147189124Y-126017500D01*
X147141300Y-126017500D01*
X147141300Y-126158028D01*
X147126132Y-126217455D01*
X147084340Y-126262343D01*
X147026146Y-126281712D01*
X146965789Y-126270822D01*
X146918033Y-126232339D01*
X146864113Y-126160311D01*
X146863846Y-126159954D01*
X146863844Y-126159953D01*
X146863844Y-126159952D01*
X146784590Y-126100623D01*
X146748016Y-126056861D01*
X146739895Y-126022495D01*
X146734900Y-126017500D01*
X146687074Y-126017500D01*
X146636197Y-126022969D01*
X146609691Y-126022969D01*
X146554173Y-126017000D01*
X146554169Y-126017000D01*
X146052029Y-126017000D01*
X145998854Y-126022717D01*
X145972347Y-126022717D01*
X145919173Y-126017000D01*
X145919169Y-126017000D01*
X145417029Y-126017000D01*
X145363854Y-126022717D01*
X145337347Y-126022717D01*
X145284173Y-126017000D01*
X145284169Y-126017000D01*
X144782029Y-126017000D01*
X144728854Y-126022717D01*
X144702347Y-126022717D01*
X144649173Y-126017000D01*
X144649169Y-126017000D01*
X144649164Y-126017000D01*
X144512599Y-126017000D01*
X144450600Y-126000388D01*
X144405213Y-125955001D01*
X144388600Y-125893001D01*
X144388600Y-115820000D01*
X148529364Y-115820000D01*
X148586569Y-116033492D01*
X148686399Y-116247576D01*
X148821893Y-116441081D01*
X148988918Y-116608106D01*
X149182423Y-116743600D01*
X149396507Y-116843430D01*
X149609999Y-116900635D01*
X149610000Y-116900636D01*
X149610000Y-115820000D01*
X148529364Y-115820000D01*
X144388600Y-115820000D01*
X144388600Y-107582952D01*
X144398039Y-107535499D01*
X144424919Y-107495271D01*
X145397738Y-106522452D01*
X148461013Y-103459175D01*
X148511404Y-103428597D01*
X148570223Y-103424742D01*
X148624177Y-103448481D01*
X148661073Y-103494452D01*
X148685962Y-103547824D01*
X148685965Y-103547830D01*
X148821505Y-103741401D01*
X148988599Y-103908495D01*
X149174160Y-104038426D01*
X149213024Y-104082743D01*
X149227035Y-104140000D01*
X149213024Y-104197257D01*
X149174158Y-104241575D01*
X149015059Y-104352978D01*
X148988595Y-104371508D01*
X148821505Y-104538598D01*
X148685965Y-104732170D01*
X148586097Y-104946336D01*
X148524936Y-105174592D01*
X148504340Y-105409999D01*
X148524936Y-105645407D01*
X148568662Y-105808595D01*
X148586097Y-105873663D01*
X148685965Y-106087830D01*
X148821505Y-106281401D01*
X148988599Y-106448495D01*
X149174160Y-106578426D01*
X149213024Y-106622743D01*
X149227035Y-106680000D01*
X149213024Y-106737257D01*
X149174159Y-106781575D01*
X148988595Y-106911508D01*
X148821505Y-107078598D01*
X148685965Y-107272170D01*
X148586097Y-107486336D01*
X148524936Y-107714592D01*
X148504340Y-107950000D01*
X148524936Y-108185407D01*
X148568663Y-108348598D01*
X148586097Y-108413663D01*
X148685965Y-108627830D01*
X148821505Y-108821401D01*
X148988599Y-108988495D01*
X149174160Y-109118426D01*
X149213024Y-109162743D01*
X149227035Y-109220000D01*
X149213024Y-109277257D01*
X149174158Y-109321575D01*
X149016630Y-109431878D01*
X148988595Y-109451508D01*
X148821505Y-109618598D01*
X148685965Y-109812170D01*
X148586097Y-110026336D01*
X148524936Y-110254592D01*
X148504340Y-110489999D01*
X148524936Y-110725407D01*
X148568663Y-110888598D01*
X148586097Y-110953663D01*
X148685965Y-111167830D01*
X148821505Y-111361401D01*
X148988599Y-111528495D01*
X149174160Y-111658426D01*
X149213024Y-111702743D01*
X149227035Y-111760000D01*
X149213024Y-111817257D01*
X149174159Y-111861575D01*
X148988595Y-111991508D01*
X148821505Y-112158598D01*
X148685965Y-112352170D01*
X148586097Y-112566336D01*
X148524936Y-112794592D01*
X148504340Y-113030000D01*
X148524936Y-113265407D01*
X148563653Y-113409900D01*
X148586097Y-113493663D01*
X148685965Y-113707830D01*
X148821505Y-113901401D01*
X148988599Y-114068495D01*
X149128506Y-114166459D01*
X149174595Y-114198731D01*
X149213460Y-114243049D01*
X149227471Y-114300306D01*
X149213460Y-114357563D01*
X149174595Y-114401881D01*
X148988918Y-114531893D01*
X148821890Y-114698921D01*
X148686400Y-114892421D01*
X148586569Y-115106507D01*
X148529364Y-115319999D01*
X148529364Y-115320000D01*
X149986000Y-115320000D01*
X150048000Y-115336613D01*
X150093387Y-115382000D01*
X150110000Y-115444000D01*
X150110000Y-116900635D01*
X150323492Y-116843430D01*
X150537576Y-116743600D01*
X150731081Y-116608106D01*
X150898106Y-116441081D01*
X151033600Y-116247576D01*
X151133430Y-116033492D01*
X151166804Y-115908938D01*
X151198897Y-115853350D01*
X151254485Y-115821256D01*
X151318672Y-115821256D01*
X151374259Y-115853349D01*
X155174382Y-119653473D01*
X158960647Y-123439738D01*
X158990672Y-123488415D01*
X158995657Y-123545390D01*
X158974541Y-123598542D01*
X158845965Y-123782169D01*
X158746097Y-123996336D01*
X158684936Y-124224592D01*
X158664340Y-124459999D01*
X158684936Y-124695407D01*
X158723975Y-124841101D01*
X158746097Y-124923663D01*
X158845965Y-125137830D01*
X158981505Y-125331401D01*
X159148599Y-125498495D01*
X159334160Y-125628426D01*
X159373024Y-125672743D01*
X159387035Y-125730000D01*
X159373024Y-125787257D01*
X159334159Y-125831575D01*
X159148595Y-125961508D01*
X158981505Y-126128598D01*
X158845965Y-126322170D01*
X158746097Y-126536336D01*
X158684936Y-126764592D01*
X158664340Y-127000000D01*
X158684936Y-127235407D01*
X158729709Y-127402501D01*
X158746097Y-127463663D01*
X158845965Y-127677830D01*
X158981505Y-127871401D01*
X159148599Y-128038495D01*
X159334160Y-128168426D01*
X159373024Y-128212743D01*
X159387035Y-128270000D01*
X159373024Y-128327257D01*
X159334159Y-128371575D01*
X159148595Y-128501508D01*
X158981505Y-128668598D01*
X158845965Y-128862170D01*
X158746097Y-129076336D01*
X158684936Y-129304592D01*
X158664340Y-129540000D01*
X158684936Y-129775407D01*
X158703326Y-129844038D01*
X158746097Y-130003663D01*
X158845965Y-130217830D01*
X158981505Y-130411401D01*
X159148599Y-130578495D01*
X159334160Y-130708426D01*
X159373024Y-130752743D01*
X159387035Y-130810000D01*
X159373024Y-130867257D01*
X159334159Y-130911575D01*
X159148595Y-131041508D01*
X158981505Y-131208598D01*
X158845965Y-131402170D01*
X158746097Y-131616336D01*
X158684936Y-131844592D01*
X158664340Y-132079999D01*
X158684936Y-132315407D01*
X158729653Y-132482292D01*
X158746097Y-132543663D01*
X158845965Y-132757830D01*
X158981505Y-132951401D01*
X159148599Y-133118495D01*
X159334160Y-133248426D01*
X159373024Y-133292743D01*
X159387035Y-133350000D01*
X159373024Y-133407257D01*
X159334159Y-133451575D01*
X159148595Y-133581508D01*
X158981505Y-133748598D01*
X158845965Y-133942170D01*
X158746097Y-134156336D01*
X158684936Y-134384592D01*
X158664340Y-134620000D01*
X158684936Y-134855407D01*
X158713695Y-134962736D01*
X158746097Y-135083663D01*
X158845965Y-135297830D01*
X158981505Y-135491401D01*
X159148599Y-135658495D01*
X159334160Y-135788426D01*
X159373024Y-135832743D01*
X159387035Y-135890000D01*
X159373024Y-135947257D01*
X159334158Y-135991575D01*
X159178388Y-136100647D01*
X159148595Y-136121508D01*
X158981505Y-136288598D01*
X158845965Y-136482170D01*
X158746097Y-136696336D01*
X158684936Y-136924592D01*
X158664340Y-137159999D01*
X158684936Y-137395407D01*
X158729709Y-137562501D01*
X158746097Y-137623663D01*
X158845965Y-137837830D01*
X158981505Y-138031401D01*
X159148599Y-138198495D01*
X159334160Y-138328426D01*
X159373024Y-138372743D01*
X159387035Y-138430000D01*
X159373024Y-138487257D01*
X159334159Y-138531575D01*
X159148595Y-138661508D01*
X158981505Y-138828598D01*
X158845965Y-139022170D01*
X158746097Y-139236336D01*
X158684936Y-139464592D01*
X158664340Y-139700000D01*
X158684936Y-139935407D01*
X158729709Y-140102502D01*
X158746097Y-140163663D01*
X158845965Y-140377830D01*
X158981505Y-140571401D01*
X159148599Y-140738495D01*
X159334160Y-140868426D01*
X159373024Y-140912743D01*
X159387035Y-140970000D01*
X159373024Y-141027257D01*
X159334159Y-141071575D01*
X159148595Y-141201508D01*
X158981505Y-141368598D01*
X158845965Y-141562170D01*
X158746097Y-141776336D01*
X158684936Y-142004592D01*
X158664340Y-142239999D01*
X158684936Y-142475407D01*
X158729709Y-142642501D01*
X158746097Y-142703663D01*
X158845965Y-142917830D01*
X158981505Y-143111401D01*
X159148599Y-143278495D01*
X159334597Y-143408732D01*
X159373460Y-143453048D01*
X159387471Y-143510305D01*
X159373461Y-143567561D01*
X159334595Y-143611880D01*
X159148919Y-143741892D01*
X158981890Y-143908921D01*
X158846400Y-144102421D01*
X158746569Y-144316507D01*
X158689364Y-144529999D01*
X158689364Y-144530000D01*
X160146000Y-144530000D01*
X160208000Y-144546613D01*
X160253387Y-144592000D01*
X160270000Y-144654000D01*
X160270000Y-144906000D01*
X160253387Y-144968000D01*
X160208000Y-145013387D01*
X160146000Y-145030000D01*
X158689364Y-145030000D01*
X158746569Y-145243492D01*
X158846399Y-145457576D01*
X158981893Y-145651081D01*
X159148918Y-145818106D01*
X159334595Y-145948119D01*
X159373460Y-145992437D01*
X159387471Y-146049694D01*
X159373460Y-146106951D01*
X159334595Y-146151269D01*
X159187632Y-146254173D01*
X159150175Y-146280402D01*
X159148595Y-146281508D01*
X158981505Y-146448598D01*
X158845965Y-146642170D01*
X158746097Y-146856336D01*
X158684936Y-147084592D01*
X158664340Y-147319999D01*
X158684936Y-147555407D01*
X158729709Y-147722501D01*
X158746097Y-147783663D01*
X158845965Y-147997830D01*
X158981505Y-148191401D01*
X159148599Y-148358495D01*
X159334160Y-148488426D01*
X159373024Y-148532743D01*
X159387035Y-148590000D01*
X159373024Y-148647257D01*
X159334159Y-148691575D01*
X159148595Y-148821508D01*
X158981505Y-148988598D01*
X158845965Y-149182170D01*
X158746097Y-149396336D01*
X158684936Y-149624592D01*
X158664340Y-149860000D01*
X158684936Y-150095407D01*
X158729709Y-150262502D01*
X158746097Y-150323663D01*
X158845965Y-150537830D01*
X158981505Y-150731401D01*
X159148599Y-150898495D01*
X159334160Y-151028426D01*
X159373024Y-151072743D01*
X159387035Y-151130000D01*
X159373024Y-151187257D01*
X159334159Y-151231575D01*
X159148595Y-151361508D01*
X158981505Y-151528598D01*
X158845965Y-151722170D01*
X158746097Y-151936336D01*
X158684936Y-152164592D01*
X158664340Y-152399999D01*
X158684936Y-152635407D01*
X158715631Y-152749961D01*
X158746097Y-152863663D01*
X158845965Y-153077830D01*
X158981505Y-153271401D01*
X159148599Y-153438495D01*
X159342170Y-153574035D01*
X159556337Y-153673903D01*
X159784591Y-153735062D01*
X159784592Y-153735063D01*
X160019999Y-153755659D01*
X160019999Y-153755658D01*
X160020000Y-153755659D01*
X160255408Y-153735063D01*
X160483663Y-153673903D01*
X160697830Y-153574035D01*
X160891401Y-153438495D01*
X161058495Y-153271401D01*
X161188426Y-153085839D01*
X161232743Y-153046975D01*
X161290000Y-153032964D01*
X161347257Y-153046975D01*
X161391573Y-153085839D01*
X161521505Y-153271401D01*
X161688599Y-153438495D01*
X161882170Y-153574035D01*
X162096337Y-153673903D01*
X162324591Y-153735062D01*
X162324592Y-153735063D01*
X162559999Y-153755659D01*
X162559999Y-153755658D01*
X162560000Y-153755659D01*
X162795408Y-153735063D01*
X163023663Y-153673903D01*
X163237830Y-153574035D01*
X163431401Y-153438495D01*
X163598495Y-153271401D01*
X163734035Y-153077830D01*
X163833903Y-152863663D01*
X163895063Y-152635408D01*
X163915659Y-152400000D01*
X163895063Y-152164592D01*
X163833903Y-151936337D01*
X163734035Y-151722171D01*
X163598495Y-151528599D01*
X163431401Y-151361505D01*
X163245839Y-151231573D01*
X163206975Y-151187257D01*
X163192964Y-151130000D01*
X163206975Y-151072743D01*
X163245839Y-151028426D01*
X163431401Y-150898495D01*
X163598495Y-150731401D01*
X163734035Y-150537830D01*
X163833903Y-150323663D01*
X163895063Y-150095408D01*
X163915659Y-149860000D01*
X163895063Y-149624592D01*
X163833903Y-149396337D01*
X163734035Y-149182171D01*
X163598495Y-148988599D01*
X163431401Y-148821505D01*
X163245839Y-148691573D01*
X163206975Y-148647257D01*
X163192964Y-148590000D01*
X163206975Y-148532743D01*
X163245839Y-148488426D01*
X163431401Y-148358495D01*
X163598495Y-148191401D01*
X163734035Y-147997830D01*
X163833903Y-147783663D01*
X163895063Y-147555408D01*
X163915659Y-147320000D01*
X163895063Y-147084592D01*
X163833903Y-146856337D01*
X163734035Y-146642171D01*
X163598495Y-146448599D01*
X163431401Y-146281505D01*
X163245839Y-146151573D01*
X163206976Y-146107257D01*
X163192965Y-146050000D01*
X163206976Y-145992743D01*
X163245839Y-145948426D01*
X163431401Y-145818495D01*
X163598495Y-145651401D01*
X163734035Y-145457830D01*
X163833903Y-145243663D01*
X163895063Y-145015408D01*
X163915659Y-144780000D01*
X163895063Y-144544592D01*
X163833903Y-144316337D01*
X163734035Y-144102171D01*
X163598495Y-143908599D01*
X163431401Y-143741505D01*
X163245839Y-143611573D01*
X163206975Y-143567257D01*
X163192964Y-143510000D01*
X163206975Y-143452743D01*
X163245839Y-143408426D01*
X163431401Y-143278495D01*
X163598495Y-143111401D01*
X163734035Y-142917830D01*
X163833903Y-142703663D01*
X163895063Y-142475408D01*
X163915659Y-142240000D01*
X163895063Y-142004592D01*
X163833903Y-141776337D01*
X163734035Y-141562171D01*
X163598495Y-141368599D01*
X163431401Y-141201505D01*
X163245839Y-141071573D01*
X163206975Y-141027257D01*
X163192964Y-140970000D01*
X163206975Y-140912743D01*
X163245839Y-140868426D01*
X163431401Y-140738495D01*
X163598495Y-140571401D01*
X163734035Y-140377830D01*
X163833903Y-140163663D01*
X163895063Y-139935408D01*
X163915659Y-139700000D01*
X163895063Y-139464592D01*
X163833903Y-139236337D01*
X163734035Y-139022171D01*
X163598495Y-138828599D01*
X163431401Y-138661505D01*
X163245839Y-138531573D01*
X163206974Y-138487255D01*
X163192964Y-138429999D01*
X163206975Y-138372742D01*
X163245837Y-138328428D01*
X163431401Y-138198495D01*
X163598495Y-138031401D01*
X163734035Y-137837830D01*
X163833903Y-137623663D01*
X163895063Y-137395408D01*
X163915659Y-137160000D01*
X163895063Y-136924592D01*
X163833903Y-136696337D01*
X163734035Y-136482171D01*
X163598495Y-136288599D01*
X163431401Y-136121505D01*
X163245839Y-135991573D01*
X163206975Y-135947257D01*
X163192964Y-135890000D01*
X163206975Y-135832743D01*
X163245839Y-135788426D01*
X163431401Y-135658495D01*
X163598495Y-135491401D01*
X163734035Y-135297830D01*
X163833903Y-135083663D01*
X163895063Y-134855408D01*
X163915659Y-134620000D01*
X163895063Y-134384592D01*
X163833903Y-134156337D01*
X163734035Y-133942171D01*
X163598495Y-133748599D01*
X163431401Y-133581505D01*
X163245402Y-133451267D01*
X163206539Y-133406951D01*
X163192528Y-133349694D01*
X163206539Y-133292437D01*
X163245405Y-133248119D01*
X163431078Y-133118109D01*
X163598106Y-132951081D01*
X163733600Y-132757576D01*
X163833430Y-132543492D01*
X163890636Y-132330000D01*
X162434000Y-132330000D01*
X162372000Y-132313387D01*
X162326613Y-132268000D01*
X162310000Y-132206000D01*
X162310000Y-131954000D01*
X162326613Y-131892000D01*
X162372000Y-131846613D01*
X162434000Y-131830000D01*
X163890636Y-131830000D01*
X163890635Y-131829999D01*
X163833430Y-131616507D01*
X163733599Y-131402421D01*
X163598109Y-131208921D01*
X163431081Y-131041893D01*
X163245404Y-130911880D01*
X163206539Y-130867562D01*
X163192528Y-130810305D01*
X163206539Y-130753048D01*
X163245402Y-130708732D01*
X163431401Y-130578495D01*
X163598495Y-130411401D01*
X163734035Y-130217830D01*
X163833903Y-130003663D01*
X163895063Y-129775408D01*
X163915659Y-129540000D01*
X163895063Y-129304592D01*
X163833903Y-129076337D01*
X163734035Y-128862171D01*
X163598495Y-128668599D01*
X163431401Y-128501505D01*
X163245839Y-128371573D01*
X163206976Y-128327257D01*
X163192965Y-128270000D01*
X163206976Y-128212743D01*
X163245839Y-128168426D01*
X163431401Y-128038495D01*
X163598495Y-127871401D01*
X163734035Y-127677830D01*
X163833903Y-127463663D01*
X163895063Y-127235408D01*
X163915659Y-127000000D01*
X163895063Y-126764592D01*
X163833903Y-126536337D01*
X163734035Y-126322171D01*
X163598495Y-126128599D01*
X163431401Y-125961505D01*
X163245839Y-125831573D01*
X163206975Y-125787257D01*
X163192964Y-125730000D01*
X163206975Y-125672743D01*
X163245839Y-125628426D01*
X163431401Y-125498495D01*
X163598495Y-125331401D01*
X163734035Y-125137830D01*
X163833903Y-124923663D01*
X163895063Y-124695408D01*
X163915659Y-124460000D01*
X163910111Y-124396593D01*
X163895063Y-124224592D01*
X163879956Y-124168212D01*
X163833903Y-123996337D01*
X163734035Y-123782171D01*
X163598495Y-123588599D01*
X163431401Y-123421505D01*
X163245839Y-123291573D01*
X163206976Y-123247257D01*
X163192965Y-123190000D01*
X163206976Y-123132743D01*
X163245839Y-123088426D01*
X163431401Y-122958495D01*
X163598495Y-122791401D01*
X163734035Y-122597830D01*
X163833903Y-122383663D01*
X163895063Y-122155408D01*
X163915659Y-121920000D01*
X163895063Y-121684592D01*
X163833903Y-121456337D01*
X163734035Y-121242171D01*
X163598495Y-121048599D01*
X163431401Y-120881505D01*
X163245839Y-120751573D01*
X163206976Y-120707257D01*
X163192965Y-120650000D01*
X163206976Y-120592743D01*
X163245839Y-120548426D01*
X163431401Y-120418495D01*
X163598495Y-120251401D01*
X163734035Y-120057830D01*
X163833903Y-119843663D01*
X163895063Y-119615408D01*
X163915659Y-119380000D01*
X163911763Y-119335475D01*
X163895063Y-119144592D01*
X163895062Y-119144591D01*
X163833903Y-118916337D01*
X163734035Y-118702171D01*
X163598495Y-118508599D01*
X163431401Y-118341505D01*
X163245839Y-118211573D01*
X163206974Y-118167255D01*
X163192964Y-118109999D01*
X163206975Y-118052742D01*
X163245837Y-118008428D01*
X163431401Y-117878495D01*
X163598495Y-117711401D01*
X163734035Y-117517830D01*
X163833903Y-117303663D01*
X163895063Y-117075408D01*
X163915659Y-116840000D01*
X163895063Y-116604592D01*
X163833903Y-116376337D01*
X163734035Y-116162171D01*
X163598495Y-115968599D01*
X163431401Y-115801505D01*
X163245839Y-115671573D01*
X163206975Y-115627257D01*
X163192964Y-115570000D01*
X163206975Y-115512743D01*
X163245839Y-115468426D01*
X163431401Y-115338495D01*
X163598495Y-115171401D01*
X163734035Y-114977830D01*
X163833903Y-114763663D01*
X163895063Y-114535408D01*
X163915659Y-114300000D01*
X163895063Y-114064592D01*
X163833903Y-113836337D01*
X163734035Y-113622171D01*
X163598495Y-113428599D01*
X163431401Y-113261505D01*
X163245839Y-113131573D01*
X163206975Y-113087257D01*
X163192964Y-113030000D01*
X163206975Y-112972743D01*
X163245839Y-112928426D01*
X163431401Y-112798495D01*
X163598495Y-112631401D01*
X163734035Y-112437830D01*
X163833903Y-112223663D01*
X163895063Y-111995408D01*
X163915659Y-111760000D01*
X163913290Y-111732928D01*
X163895063Y-111524592D01*
X163851337Y-111361404D01*
X163833903Y-111296337D01*
X163734035Y-111082171D01*
X163598495Y-110888599D01*
X163431401Y-110721505D01*
X163245839Y-110591573D01*
X163206975Y-110547257D01*
X163192964Y-110490000D01*
X163206975Y-110432743D01*
X163245839Y-110388426D01*
X163431401Y-110258495D01*
X163598495Y-110091401D01*
X163734035Y-109897830D01*
X163833903Y-109683663D01*
X163895063Y-109455408D01*
X163915659Y-109220000D01*
X163895063Y-108984592D01*
X163833903Y-108756337D01*
X163734035Y-108542171D01*
X163598495Y-108348599D01*
X163431401Y-108181505D01*
X163245839Y-108051573D01*
X163206975Y-108007257D01*
X163192964Y-107950000D01*
X163206975Y-107892743D01*
X163245839Y-107848426D01*
X163431401Y-107718495D01*
X163598495Y-107551401D01*
X163734035Y-107357830D01*
X163833903Y-107143663D01*
X163895063Y-106915408D01*
X163915659Y-106680000D01*
X163895063Y-106444592D01*
X163833903Y-106216337D01*
X163734035Y-106002171D01*
X163598495Y-105808599D01*
X163431401Y-105641505D01*
X163245402Y-105511267D01*
X163206539Y-105466951D01*
X163192528Y-105409694D01*
X163206539Y-105352437D01*
X163245405Y-105308119D01*
X163431078Y-105178109D01*
X163598106Y-105011081D01*
X163733600Y-104817576D01*
X163833430Y-104603492D01*
X163890636Y-104390000D01*
X162434000Y-104390000D01*
X162372000Y-104373387D01*
X162326613Y-104328000D01*
X162310000Y-104266000D01*
X162310000Y-104014000D01*
X162326613Y-103952000D01*
X162372000Y-103906613D01*
X162434000Y-103890000D01*
X163890636Y-103890000D01*
X163890635Y-103889999D01*
X163833430Y-103676507D01*
X163733599Y-103462421D01*
X163598109Y-103268921D01*
X163431081Y-103101893D01*
X163245404Y-102971880D01*
X163206539Y-102927562D01*
X163192528Y-102870305D01*
X163206539Y-102813048D01*
X163245402Y-102768732D01*
X163431401Y-102638495D01*
X163598495Y-102471401D01*
X163734035Y-102277830D01*
X163833903Y-102063663D01*
X163895063Y-101835408D01*
X163915659Y-101600000D01*
X163895063Y-101364592D01*
X163833903Y-101136337D01*
X163734035Y-100922171D01*
X163598495Y-100728599D01*
X163431401Y-100561505D01*
X163245839Y-100431573D01*
X163206974Y-100387255D01*
X163192964Y-100329999D01*
X163206975Y-100272742D01*
X163245837Y-100228428D01*
X163431401Y-100098495D01*
X163598495Y-99931401D01*
X163734035Y-99737830D01*
X163833903Y-99523663D01*
X163895063Y-99295408D01*
X163915659Y-99060000D01*
X163895063Y-98824592D01*
X163833903Y-98596337D01*
X163734035Y-98382171D01*
X163598495Y-98188599D01*
X163431401Y-98021505D01*
X163245839Y-97891573D01*
X163206976Y-97847257D01*
X163192965Y-97790000D01*
X163206976Y-97732743D01*
X163245839Y-97688426D01*
X163431401Y-97558495D01*
X163598495Y-97391401D01*
X163734035Y-97197830D01*
X163833903Y-96983663D01*
X163895063Y-96755408D01*
X163915659Y-96520000D01*
X163895063Y-96284592D01*
X163833903Y-96056337D01*
X163734035Y-95842171D01*
X163598495Y-95648599D01*
X163431401Y-95481505D01*
X163245839Y-95351573D01*
X163206975Y-95307257D01*
X163192964Y-95250000D01*
X163206975Y-95192743D01*
X163245839Y-95148426D01*
X163431401Y-95018495D01*
X163598495Y-94851401D01*
X163734035Y-94657830D01*
X163833903Y-94443663D01*
X163895063Y-94215408D01*
X163915659Y-93980000D01*
X163895063Y-93744592D01*
X163833903Y-93516337D01*
X163734035Y-93302171D01*
X163598495Y-93108599D01*
X163431401Y-92941505D01*
X163245839Y-92811573D01*
X163206974Y-92767255D01*
X163192964Y-92709999D01*
X163206975Y-92652742D01*
X163245837Y-92608428D01*
X163431401Y-92478495D01*
X163598495Y-92311401D01*
X163734035Y-92117830D01*
X163833903Y-91903663D01*
X163895063Y-91675408D01*
X163915659Y-91440000D01*
X163895063Y-91204592D01*
X163833903Y-90976337D01*
X163734035Y-90762171D01*
X163598495Y-90568599D01*
X163431401Y-90401505D01*
X163245402Y-90271267D01*
X163206539Y-90226951D01*
X163192528Y-90169694D01*
X163206539Y-90112437D01*
X163245405Y-90068119D01*
X163431078Y-89938109D01*
X163598106Y-89771081D01*
X163733600Y-89577576D01*
X163833430Y-89363492D01*
X163890636Y-89150000D01*
X162434000Y-89150000D01*
X162372000Y-89133387D01*
X162326613Y-89088000D01*
X162310000Y-89026000D01*
X162310000Y-88774000D01*
X162326613Y-88712000D01*
X162372000Y-88666613D01*
X162434000Y-88650000D01*
X163890636Y-88650000D01*
X163890635Y-88649999D01*
X163833430Y-88436507D01*
X163733599Y-88222421D01*
X163598109Y-88028921D01*
X163431081Y-87861893D01*
X163245404Y-87731880D01*
X163206539Y-87687562D01*
X163192528Y-87630305D01*
X163206539Y-87573048D01*
X163245402Y-87528732D01*
X163431401Y-87398495D01*
X163598495Y-87231401D01*
X163734035Y-87037830D01*
X163833903Y-86823663D01*
X163895063Y-86595408D01*
X163915659Y-86360000D01*
X163895063Y-86124592D01*
X163833903Y-85896337D01*
X163734035Y-85682171D01*
X163598495Y-85488599D01*
X163431401Y-85321505D01*
X163245839Y-85191573D01*
X163206975Y-85147257D01*
X163192964Y-85090000D01*
X163206975Y-85032743D01*
X163245839Y-84988426D01*
X163431401Y-84858495D01*
X163598495Y-84691401D01*
X163734035Y-84497830D01*
X163833903Y-84283663D01*
X163895063Y-84055408D01*
X163915659Y-83820000D01*
X163895063Y-83584592D01*
X163833903Y-83356337D01*
X163734035Y-83142171D01*
X163598495Y-82948599D01*
X163431401Y-82781505D01*
X163245839Y-82651573D01*
X163206975Y-82607257D01*
X163192964Y-82550000D01*
X163206975Y-82492743D01*
X163245839Y-82448426D01*
X163431401Y-82318495D01*
X163598495Y-82151401D01*
X163734035Y-81957830D01*
X163833903Y-81743663D01*
X163895063Y-81515408D01*
X163915659Y-81280000D01*
X163895063Y-81044592D01*
X163833903Y-80816337D01*
X163734035Y-80602171D01*
X163598495Y-80408599D01*
X163431401Y-80241505D01*
X163245839Y-80111573D01*
X163206976Y-80067257D01*
X163192965Y-80010000D01*
X163206976Y-79952743D01*
X163245839Y-79908426D01*
X163431401Y-79778495D01*
X163598495Y-79611401D01*
X163734035Y-79417830D01*
X163833903Y-79203663D01*
X163895063Y-78975408D01*
X163915659Y-78740000D01*
X163895063Y-78504592D01*
X163833903Y-78276337D01*
X163734035Y-78062171D01*
X163598495Y-77868599D01*
X163431401Y-77701505D01*
X163245839Y-77571573D01*
X163206975Y-77527257D01*
X163192964Y-77470000D01*
X163206975Y-77412743D01*
X163245839Y-77368426D01*
X163431401Y-77238495D01*
X163598495Y-77071401D01*
X163734035Y-76877830D01*
X163833903Y-76663663D01*
X163895063Y-76435408D01*
X163915659Y-76200000D01*
X163895063Y-75964592D01*
X163833903Y-75736337D01*
X163734035Y-75522171D01*
X163598495Y-75328599D01*
X163431401Y-75161505D01*
X163245839Y-75031573D01*
X163206975Y-74987257D01*
X163192964Y-74930000D01*
X163206975Y-74872743D01*
X163245839Y-74828426D01*
X163431401Y-74698495D01*
X163598495Y-74531401D01*
X163734035Y-74337830D01*
X163833903Y-74123663D01*
X163895063Y-73895408D01*
X163915659Y-73660000D01*
X163895063Y-73424592D01*
X163833903Y-73196337D01*
X163734035Y-72982171D01*
X163598495Y-72788599D01*
X163431401Y-72621505D01*
X163245839Y-72491573D01*
X163206975Y-72447257D01*
X163192964Y-72390000D01*
X163206975Y-72332743D01*
X163245839Y-72288426D01*
X163431401Y-72158495D01*
X163598495Y-71991401D01*
X163734035Y-71797830D01*
X163833903Y-71583663D01*
X163895063Y-71355408D01*
X163915659Y-71120000D01*
X163895063Y-70884592D01*
X163833903Y-70656337D01*
X163734035Y-70442171D01*
X163598495Y-70248599D01*
X163431401Y-70081505D01*
X163245839Y-69951573D01*
X163206975Y-69907257D01*
X163192964Y-69850000D01*
X163206975Y-69792743D01*
X163245839Y-69748426D01*
X163431401Y-69618495D01*
X163598495Y-69451401D01*
X163734035Y-69257830D01*
X163833903Y-69043663D01*
X163895063Y-68815408D01*
X163915659Y-68580000D01*
X163895063Y-68344592D01*
X163833903Y-68116337D01*
X163734035Y-67902171D01*
X163598495Y-67708599D01*
X163431401Y-67541505D01*
X163245839Y-67411573D01*
X163206975Y-67367257D01*
X163192964Y-67310000D01*
X163206975Y-67252743D01*
X163245839Y-67208426D01*
X163431401Y-67078495D01*
X163598495Y-66911401D01*
X163734035Y-66717830D01*
X163833903Y-66503663D01*
X163895063Y-66275408D01*
X163915659Y-66040000D01*
X163895063Y-65804592D01*
X163833903Y-65576337D01*
X163734035Y-65362171D01*
X163598495Y-65168599D01*
X163431401Y-65001505D01*
X163237830Y-64865965D01*
X163023663Y-64766097D01*
X162962502Y-64749709D01*
X162795407Y-64704936D01*
X162560000Y-64684340D01*
X162324592Y-64704936D01*
X162096336Y-64766097D01*
X161882170Y-64865965D01*
X161688601Y-65001503D01*
X161566673Y-65123431D01*
X161513926Y-65154726D01*
X161452634Y-65156915D01*
X161397789Y-65129462D01*
X161362810Y-65079082D01*
X161355658Y-65059907D01*
X161313796Y-64947669D01*
X161227546Y-64832454D01*
X161112331Y-64746204D01*
X160977483Y-64695909D01*
X160917873Y-64689500D01*
X160917869Y-64689500D01*
X159122130Y-64689500D01*
X159062515Y-64695909D01*
X158927669Y-64746204D01*
X158812454Y-64832454D01*
X158726204Y-64947668D01*
X158675909Y-65082516D01*
X158669500Y-65142130D01*
X158669500Y-66937869D01*
X158675909Y-66997484D01*
X158701056Y-67064906D01*
X158726204Y-67132331D01*
X158812454Y-67247546D01*
X158927669Y-67333796D01*
X159017383Y-67367257D01*
X159059082Y-67382810D01*
X159109462Y-67417789D01*
X159136915Y-67472634D01*
X159134726Y-67533926D01*
X159103431Y-67586673D01*
X158981503Y-67708601D01*
X158845965Y-67902170D01*
X158746097Y-68116336D01*
X158684936Y-68344592D01*
X158664340Y-68579999D01*
X158684936Y-68815407D01*
X158729709Y-68982501D01*
X158746097Y-69043663D01*
X158845965Y-69257830D01*
X158981505Y-69451401D01*
X159148599Y-69618495D01*
X159334160Y-69748426D01*
X159373024Y-69792743D01*
X159387035Y-69850000D01*
X159373024Y-69907257D01*
X159334159Y-69951575D01*
X159148595Y-70081508D01*
X158981505Y-70248598D01*
X158845965Y-70442170D01*
X158746097Y-70656336D01*
X158684936Y-70884592D01*
X158664340Y-71120000D01*
X158684936Y-71355407D01*
X158729709Y-71522502D01*
X158746097Y-71583663D01*
X158845965Y-71797830D01*
X158981505Y-71991401D01*
X159148599Y-72158495D01*
X159334160Y-72288426D01*
X159373024Y-72332743D01*
X159387035Y-72390000D01*
X159373024Y-72447257D01*
X159334159Y-72491575D01*
X159148595Y-72621508D01*
X158981505Y-72788598D01*
X158845965Y-72982170D01*
X158746097Y-73196336D01*
X158684936Y-73424592D01*
X158664340Y-73659999D01*
X158684936Y-73895407D01*
X158729709Y-74062501D01*
X158746097Y-74123663D01*
X158845965Y-74337830D01*
X158981505Y-74531401D01*
X159148599Y-74698495D01*
X159334597Y-74828732D01*
X159373460Y-74873048D01*
X159387471Y-74930305D01*
X159373461Y-74987561D01*
X159334595Y-75031880D01*
X159148919Y-75161892D01*
X158981890Y-75328921D01*
X158846400Y-75522421D01*
X158746569Y-75736507D01*
X158689364Y-75949999D01*
X158689364Y-75950000D01*
X160146000Y-75950000D01*
X160208000Y-75966613D01*
X160253387Y-76012000D01*
X160270000Y-76074000D01*
X160270000Y-76326000D01*
X160253387Y-76388000D01*
X160208000Y-76433387D01*
X160146000Y-76450000D01*
X158689364Y-76450000D01*
X158746569Y-76663492D01*
X158846399Y-76877576D01*
X158981893Y-77071081D01*
X159148918Y-77238106D01*
X159334595Y-77368119D01*
X159373460Y-77412437D01*
X159387471Y-77469694D01*
X159373460Y-77526951D01*
X159334595Y-77571269D01*
X159148595Y-77701508D01*
X158981505Y-77868598D01*
X158845965Y-78062170D01*
X158746097Y-78276336D01*
X158684936Y-78504592D01*
X158664340Y-78739999D01*
X158684936Y-78975407D01*
X158729709Y-79142502D01*
X158746097Y-79203663D01*
X158845965Y-79417830D01*
X158981505Y-79611401D01*
X159148599Y-79778495D01*
X159334160Y-79908426D01*
X159373024Y-79952743D01*
X159387035Y-80010000D01*
X159373024Y-80067257D01*
X159334159Y-80111575D01*
X159148595Y-80241508D01*
X158981505Y-80408598D01*
X158845965Y-80602170D01*
X158746097Y-80816336D01*
X158684936Y-81044592D01*
X158664340Y-81280000D01*
X158684936Y-81515407D01*
X158729709Y-81682502D01*
X158746097Y-81743663D01*
X158845965Y-81957830D01*
X158981505Y-82151401D01*
X159148599Y-82318495D01*
X159334160Y-82448426D01*
X159373024Y-82492743D01*
X159387035Y-82550000D01*
X159373024Y-82607257D01*
X159334159Y-82651575D01*
X159148595Y-82781508D01*
X158981505Y-82948598D01*
X158845965Y-83142170D01*
X158746097Y-83356336D01*
X158684936Y-83584592D01*
X158664340Y-83820000D01*
X158684936Y-84055407D01*
X158729709Y-84222501D01*
X158746097Y-84283663D01*
X158845965Y-84497830D01*
X158981505Y-84691401D01*
X159148599Y-84858495D01*
X159334160Y-84988426D01*
X159373024Y-85032743D01*
X159387035Y-85090000D01*
X159373024Y-85147257D01*
X159334159Y-85191575D01*
X159148595Y-85321508D01*
X158981505Y-85488598D01*
X158845965Y-85682170D01*
X158746097Y-85896336D01*
X158684936Y-86124592D01*
X158664340Y-86360000D01*
X158684936Y-86595407D01*
X158729709Y-86762501D01*
X158746097Y-86823663D01*
X158845965Y-87037830D01*
X158981505Y-87231401D01*
X159148599Y-87398495D01*
X159334160Y-87528426D01*
X159373024Y-87572743D01*
X159387035Y-87630000D01*
X159373024Y-87687257D01*
X159334159Y-87731575D01*
X159148595Y-87861508D01*
X158981505Y-88028598D01*
X158845965Y-88222170D01*
X158746097Y-88436336D01*
X158684936Y-88664592D01*
X158664340Y-88899999D01*
X158684936Y-89135407D01*
X158729709Y-89302501D01*
X158746097Y-89363663D01*
X158845965Y-89577830D01*
X158981505Y-89771401D01*
X159148599Y-89938495D01*
X159334160Y-90068426D01*
X159373024Y-90112743D01*
X159387035Y-90170000D01*
X159373024Y-90227257D01*
X159334159Y-90271575D01*
X159148595Y-90401508D01*
X158981505Y-90568598D01*
X158845965Y-90762170D01*
X158746097Y-90976336D01*
X158684936Y-91204592D01*
X158664340Y-91439999D01*
X158684936Y-91675407D01*
X158729709Y-91842502D01*
X158746097Y-91903663D01*
X158845965Y-92117830D01*
X158981505Y-92311401D01*
X159148599Y-92478495D01*
X159334160Y-92608426D01*
X159373024Y-92652743D01*
X159387035Y-92710000D01*
X159373024Y-92767257D01*
X159334159Y-92811575D01*
X159148595Y-92941508D01*
X158981505Y-93108598D01*
X158845965Y-93302170D01*
X158746097Y-93516336D01*
X158684936Y-93744592D01*
X158664340Y-93980000D01*
X158684936Y-94215407D01*
X158721571Y-94352130D01*
X158746097Y-94443663D01*
X158845965Y-94657830D01*
X158981505Y-94851401D01*
X159148599Y-95018495D01*
X159334160Y-95148426D01*
X159373024Y-95192743D01*
X159387035Y-95250000D01*
X159373024Y-95307257D01*
X159334159Y-95351575D01*
X159148595Y-95481508D01*
X158981505Y-95648598D01*
X158845965Y-95842170D01*
X158746097Y-96056336D01*
X158684936Y-96284592D01*
X158664340Y-96519999D01*
X158684936Y-96755407D01*
X158728663Y-96918598D01*
X158746097Y-96983663D01*
X158845965Y-97197830D01*
X158981505Y-97391401D01*
X159148599Y-97558495D01*
X159334160Y-97688426D01*
X159373024Y-97732743D01*
X159387035Y-97790000D01*
X159373024Y-97847257D01*
X159334158Y-97891575D01*
X159243836Y-97954820D01*
X159148595Y-98021508D01*
X158981505Y-98188598D01*
X158845965Y-98382170D01*
X158746097Y-98596336D01*
X158684936Y-98824592D01*
X158664340Y-99060000D01*
X158684936Y-99295407D01*
X158717302Y-99416198D01*
X158746097Y-99523663D01*
X158845965Y-99737830D01*
X158981505Y-99931401D01*
X159148599Y-100098495D01*
X159334160Y-100228426D01*
X159373024Y-100272743D01*
X159387035Y-100330000D01*
X159373024Y-100387257D01*
X159334159Y-100431575D01*
X159148595Y-100561508D01*
X158981505Y-100728598D01*
X158845965Y-100922170D01*
X158746097Y-101136336D01*
X158684936Y-101364592D01*
X158664340Y-101600000D01*
X158684936Y-101835407D01*
X158728663Y-101998599D01*
X158746097Y-102063663D01*
X158845965Y-102277830D01*
X158981505Y-102471401D01*
X159148599Y-102638495D01*
X159334160Y-102768426D01*
X159373024Y-102812743D01*
X159387035Y-102870000D01*
X159373024Y-102927257D01*
X159334160Y-102971574D01*
X159154235Y-103097559D01*
X159148595Y-103101508D01*
X158981505Y-103268598D01*
X158845965Y-103462170D01*
X158746097Y-103676336D01*
X158684936Y-103904592D01*
X158664340Y-104140000D01*
X158684936Y-104375407D01*
X158711501Y-104474547D01*
X158746097Y-104603663D01*
X158845965Y-104817830D01*
X158981505Y-105011401D01*
X159148599Y-105178495D01*
X159334160Y-105308426D01*
X159373024Y-105352743D01*
X159387035Y-105410000D01*
X159373024Y-105467257D01*
X159334159Y-105511575D01*
X159148595Y-105641508D01*
X158981505Y-105808598D01*
X158845965Y-106002170D01*
X158746097Y-106216336D01*
X158684936Y-106444592D01*
X158664340Y-106679999D01*
X158684936Y-106915407D01*
X158728663Y-107078598D01*
X158746097Y-107143663D01*
X158845965Y-107357830D01*
X158981505Y-107551401D01*
X159148599Y-107718495D01*
X159334160Y-107848426D01*
X159373024Y-107892743D01*
X159387035Y-107950000D01*
X159373024Y-108007257D01*
X159334158Y-108051575D01*
X159234256Y-108121528D01*
X159148595Y-108181508D01*
X158981505Y-108348598D01*
X158845965Y-108542170D01*
X158746097Y-108756336D01*
X158684936Y-108984592D01*
X158664340Y-109219999D01*
X158684936Y-109455407D01*
X158719990Y-109586228D01*
X158746097Y-109683663D01*
X158845965Y-109897830D01*
X158981505Y-110091401D01*
X159148599Y-110258495D01*
X159334160Y-110388426D01*
X159373024Y-110432743D01*
X159387035Y-110490000D01*
X159373024Y-110547257D01*
X159334159Y-110591575D01*
X159148595Y-110721508D01*
X158981505Y-110888598D01*
X158845965Y-111082170D01*
X158746097Y-111296336D01*
X158684936Y-111524592D01*
X158664341Y-111759999D01*
X158684936Y-111995407D01*
X158723979Y-112141115D01*
X158746097Y-112223663D01*
X158845965Y-112437830D01*
X158981505Y-112631401D01*
X159148599Y-112798495D01*
X159334597Y-112928732D01*
X159373460Y-112973048D01*
X159387471Y-113030305D01*
X159373461Y-113087561D01*
X159334595Y-113131880D01*
X159148919Y-113261892D01*
X158981890Y-113428921D01*
X158846400Y-113622421D01*
X158746569Y-113836507D01*
X158689364Y-114049999D01*
X158689364Y-114050000D01*
X160146000Y-114050000D01*
X160208000Y-114066613D01*
X160253387Y-114112000D01*
X160270000Y-114174000D01*
X160270000Y-114426000D01*
X160253387Y-114488000D01*
X160208000Y-114533387D01*
X160146000Y-114550000D01*
X158689364Y-114550000D01*
X158746569Y-114763492D01*
X158846399Y-114977576D01*
X158981893Y-115171081D01*
X159148918Y-115338106D01*
X159334595Y-115468119D01*
X159373460Y-115512437D01*
X159387471Y-115569694D01*
X159373460Y-115626951D01*
X159334595Y-115671269D01*
X159148595Y-115801508D01*
X158981505Y-115968598D01*
X158845966Y-116162168D01*
X158845965Y-116162171D01*
X158831578Y-116193025D01*
X158828549Y-116199520D01*
X158791653Y-116245490D01*
X158737699Y-116269230D01*
X158678879Y-116265375D01*
X158628486Y-116234795D01*
X152796419Y-110402728D01*
X152769539Y-110362500D01*
X152760100Y-110315047D01*
X152760100Y-98452940D01*
X152762363Y-98432436D01*
X152762193Y-98427036D01*
X152760161Y-98362344D01*
X152760100Y-98358450D01*
X152760100Y-98330857D01*
X152760100Y-98330850D01*
X152759595Y-98326853D01*
X152758680Y-98315223D01*
X152757309Y-98271572D01*
X152751719Y-98252334D01*
X152747774Y-98233282D01*
X152745264Y-98213408D01*
X152735441Y-98188598D01*
X152729178Y-98172781D01*
X152725405Y-98161760D01*
X152713217Y-98119810D01*
X152703021Y-98102569D01*
X152694463Y-98085102D01*
X152687086Y-98066468D01*
X152661398Y-98031112D01*
X152655009Y-98021384D01*
X152632770Y-97983779D01*
X152618606Y-97969615D01*
X152605969Y-97954820D01*
X152594195Y-97938614D01*
X152594194Y-97938613D01*
X152560535Y-97910768D01*
X152551905Y-97902914D01*
X151160215Y-96511224D01*
X151129784Y-96461298D01*
X151125613Y-96402977D01*
X151148629Y-96349232D01*
X151153796Y-96342331D01*
X151204091Y-96207483D01*
X151210500Y-96147873D01*
X151210499Y-94352128D01*
X151204091Y-94292517D01*
X151153796Y-94157669D01*
X151067546Y-94042454D01*
X150952331Y-93956204D01*
X150817483Y-93905909D01*
X150757873Y-93899500D01*
X150757869Y-93899500D01*
X148962130Y-93899500D01*
X148902515Y-93905909D01*
X148767669Y-93956204D01*
X148652454Y-94042454D01*
X148566204Y-94157668D01*
X148515909Y-94292516D01*
X148509500Y-94352130D01*
X148509500Y-96147869D01*
X148515909Y-96207484D01*
X148566204Y-96342332D01*
X148571628Y-96349577D01*
X148594643Y-96403324D01*
X148590472Y-96461643D01*
X148560041Y-96511567D01*
X140728308Y-104343299D01*
X140712210Y-104356196D01*
X140664196Y-104407325D01*
X140661491Y-104410117D01*
X140641974Y-104429634D01*
X140639515Y-104432805D01*
X140631942Y-104441672D01*
X140602035Y-104473520D01*
X140592385Y-104491074D01*
X140581709Y-104507328D01*
X140569426Y-104523163D01*
X140552075Y-104563258D01*
X140546938Y-104573744D01*
X140525902Y-104612007D01*
X140520921Y-104631409D01*
X140514620Y-104649811D01*
X140506661Y-104668202D01*
X140499828Y-104711342D01*
X140497460Y-104722774D01*
X140486600Y-104765078D01*
X140486600Y-104785116D01*
X140485073Y-104804515D01*
X140481940Y-104824294D01*
X140486050Y-104867775D01*
X140486600Y-104879444D01*
X140486600Y-125893001D01*
X140469987Y-125955001D01*
X140424600Y-126000388D01*
X140362600Y-126017001D01*
X140337028Y-126017001D01*
X140292580Y-126021778D01*
X140285920Y-126022495D01*
X140283854Y-126022717D01*
X140257347Y-126022717D01*
X140204173Y-126017000D01*
X140204169Y-126017000D01*
X140204164Y-126017000D01*
X140067599Y-126017000D01*
X140005600Y-126000388D01*
X139960213Y-125955001D01*
X139943600Y-125893001D01*
X139943600Y-118888341D01*
X139945863Y-118867837D01*
X139943661Y-118797745D01*
X139943600Y-118793851D01*
X139943600Y-118766257D01*
X139943600Y-118766250D01*
X139943095Y-118762253D01*
X139942180Y-118750623D01*
X139940809Y-118706973D01*
X139935220Y-118687740D01*
X139931274Y-118668682D01*
X139928764Y-118648806D01*
X139912688Y-118608204D01*
X139908904Y-118597153D01*
X139897671Y-118558491D01*
X139896718Y-118555210D01*
X139886514Y-118537955D01*
X139877961Y-118520495D01*
X139873251Y-118508599D01*
X139870586Y-118501868D01*
X139844908Y-118466525D01*
X139838501Y-118456771D01*
X139835389Y-118451509D01*
X139816270Y-118419180D01*
X139802106Y-118405016D01*
X139789467Y-118390217D01*
X139777695Y-118374013D01*
X139744041Y-118346173D01*
X139735399Y-118338309D01*
X139340819Y-117943729D01*
X139308725Y-117888141D01*
X139308725Y-117823954D01*
X139340817Y-117768368D01*
X139430047Y-117679139D01*
X139560568Y-117492734D01*
X139656739Y-117286496D01*
X139715635Y-117066692D01*
X139735468Y-116840000D01*
X139715635Y-116613308D01*
X139656739Y-116393504D01*
X139560568Y-116187266D01*
X139542996Y-116162171D01*
X139430046Y-116000859D01*
X139269140Y-115839953D01*
X139082735Y-115709432D01*
X138876497Y-115613261D01*
X138656689Y-115554364D01*
X138430000Y-115534531D01*
X138203310Y-115554364D01*
X137983502Y-115613261D01*
X137777264Y-115709432D01*
X137590859Y-115839953D01*
X137429953Y-116000859D01*
X137299432Y-116187264D01*
X137203261Y-116393502D01*
X137144364Y-116613310D01*
X137124531Y-116839999D01*
X137144364Y-117066689D01*
X137203261Y-117286497D01*
X137299432Y-117492735D01*
X137429953Y-117679140D01*
X137590859Y-117840046D01*
X137762572Y-117960279D01*
X137792273Y-117989669D01*
X137810525Y-118027257D01*
X137812879Y-118035359D01*
X137816825Y-118054416D01*
X137819335Y-118074292D01*
X137835414Y-118114904D01*
X137839197Y-118125951D01*
X137851382Y-118167891D01*
X137861580Y-118185135D01*
X137870136Y-118202600D01*
X137877514Y-118221232D01*
X137888066Y-118235756D01*
X137903180Y-118256559D01*
X137909593Y-118266322D01*
X137931826Y-118303916D01*
X137931829Y-118303919D01*
X137931830Y-118303920D01*
X137945995Y-118318085D01*
X137958627Y-118332875D01*
X137970406Y-118349087D01*
X138004058Y-118376926D01*
X138012699Y-118384789D01*
X138656281Y-119028372D01*
X138683161Y-119068600D01*
X138692600Y-119116053D01*
X138692600Y-122328547D01*
X138679085Y-122384842D01*
X138641485Y-122428865D01*
X138587998Y-122451020D01*
X138530282Y-122446478D01*
X138480919Y-122416228D01*
X130364690Y-114299999D01*
X131324750Y-114299999D01*
X131343686Y-114468056D01*
X131343686Y-114468058D01*
X131343687Y-114468059D01*
X131399544Y-114627690D01*
X131489523Y-114770890D01*
X131609110Y-114890477D01*
X131752310Y-114980456D01*
X131911941Y-115036313D01*
X131911942Y-115036313D01*
X131915657Y-115037613D01*
X131962384Y-115066974D01*
X135758026Y-118862617D01*
X135787387Y-118909343D01*
X135788686Y-118913057D01*
X135788687Y-118913059D01*
X135844544Y-119072690D01*
X135934523Y-119215890D01*
X136054110Y-119335477D01*
X136197310Y-119425456D01*
X136356941Y-119481313D01*
X136525000Y-119500249D01*
X136693059Y-119481313D01*
X136852690Y-119425456D01*
X136995890Y-119335477D01*
X137115477Y-119215890D01*
X137205456Y-119072690D01*
X137261313Y-118913059D01*
X137280249Y-118745000D01*
X137276424Y-118711057D01*
X137269410Y-118648806D01*
X137261313Y-118576941D01*
X137205456Y-118417310D01*
X137115477Y-118274110D01*
X136995890Y-118154523D01*
X136852690Y-118064544D01*
X136693059Y-118008687D01*
X136693057Y-118008686D01*
X136689343Y-118007387D01*
X136642617Y-117978026D01*
X132846973Y-114182382D01*
X132817612Y-114135655D01*
X132816313Y-114131943D01*
X132816313Y-114131941D01*
X132760456Y-113972310D01*
X132670477Y-113829110D01*
X132550890Y-113709523D01*
X132407690Y-113619544D01*
X132248059Y-113563687D01*
X132248058Y-113563686D01*
X132248056Y-113563686D01*
X132080000Y-113544750D01*
X131911943Y-113563686D01*
X131752310Y-113619544D01*
X131609108Y-113709524D01*
X131489524Y-113829108D01*
X131399544Y-113972310D01*
X131343686Y-114131943D01*
X131324750Y-114299999D01*
X130364690Y-114299999D01*
X128543982Y-112479291D01*
X128519742Y-112444993D01*
X128508342Y-112404572D01*
X128507122Y-112392964D01*
X128499574Y-112321144D01*
X128446760Y-112158599D01*
X128441079Y-112141115D01*
X128346433Y-111977183D01*
X128219770Y-111836510D01*
X128066630Y-111725248D01*
X127893702Y-111648255D01*
X127708548Y-111608900D01*
X127708546Y-111608900D01*
X127685900Y-111608900D01*
X127623900Y-111592287D01*
X127578513Y-111546900D01*
X127561900Y-111484900D01*
X127561900Y-107979392D01*
X127577186Y-107919749D01*
X127619275Y-107874811D01*
X127677790Y-107855657D01*
X127738305Y-107867010D01*
X127767599Y-107880670D01*
X127823504Y-107906739D01*
X128043308Y-107965635D01*
X128270000Y-107985468D01*
X128496692Y-107965635D01*
X128716496Y-107906739D01*
X128922734Y-107810568D01*
X129109139Y-107680047D01*
X129270047Y-107519139D01*
X129400568Y-107332734D01*
X129496739Y-107126496D01*
X129555635Y-106906692D01*
X129575468Y-106680000D01*
X137124531Y-106680000D01*
X137144364Y-106906689D01*
X137203261Y-107126497D01*
X137299432Y-107332735D01*
X137429953Y-107519140D01*
X137590859Y-107680046D01*
X137777264Y-107810567D01*
X137777265Y-107810567D01*
X137777266Y-107810568D01*
X137983504Y-107906739D01*
X138203308Y-107965635D01*
X138430000Y-107985468D01*
X138656692Y-107965635D01*
X138876496Y-107906739D01*
X139082734Y-107810568D01*
X139269139Y-107680047D01*
X139430047Y-107519139D01*
X139560568Y-107332734D01*
X139656739Y-107126496D01*
X139715635Y-106906692D01*
X139735468Y-106680000D01*
X139715635Y-106453308D01*
X139656739Y-106233504D01*
X139560568Y-106027266D01*
X139560016Y-106026478D01*
X139430046Y-105840859D01*
X139269140Y-105679953D01*
X139082735Y-105549432D01*
X138876497Y-105453261D01*
X138656689Y-105394364D01*
X138430000Y-105374531D01*
X138203310Y-105394364D01*
X137983502Y-105453261D01*
X137777264Y-105549432D01*
X137590859Y-105679953D01*
X137429953Y-105840859D01*
X137299432Y-106027264D01*
X137203261Y-106233502D01*
X137144364Y-106453310D01*
X137124531Y-106680000D01*
X129575468Y-106680000D01*
X129555635Y-106453308D01*
X129496739Y-106233504D01*
X129400568Y-106027266D01*
X129400016Y-106026478D01*
X129270046Y-105840859D01*
X129109140Y-105679953D01*
X128922735Y-105549432D01*
X128716497Y-105453261D01*
X128496689Y-105394364D01*
X128270000Y-105374531D01*
X128043310Y-105394364D01*
X127823502Y-105453261D01*
X127617264Y-105549432D01*
X127432620Y-105678720D01*
X127379468Y-105699836D01*
X127322493Y-105694851D01*
X127273816Y-105664826D01*
X103909310Y-82300319D01*
X103879285Y-82251641D01*
X103874300Y-82194666D01*
X103895413Y-82141520D01*
X104024035Y-81957830D01*
X104123903Y-81743663D01*
X104185063Y-81515408D01*
X104205659Y-81280000D01*
X104185063Y-81044592D01*
X104123903Y-80816337D01*
X104024035Y-80602171D01*
X103888495Y-80408599D01*
X103721401Y-80241505D01*
X103535839Y-80111573D01*
X103496976Y-80067257D01*
X103482965Y-80010000D01*
X103496976Y-79952743D01*
X103535839Y-79908426D01*
X103721401Y-79778495D01*
X103888495Y-79611401D01*
X104024035Y-79417830D01*
X104044007Y-79375000D01*
X147199750Y-79375000D01*
X147218686Y-79543056D01*
X147218686Y-79543058D01*
X147218687Y-79543059D01*
X147274544Y-79702690D01*
X147364523Y-79845890D01*
X147484110Y-79965477D01*
X147627310Y-80055456D01*
X147786941Y-80111313D01*
X147955000Y-80130249D01*
X148123059Y-80111313D01*
X148282690Y-80055456D01*
X148339904Y-80019505D01*
X148405876Y-80000500D01*
X150679124Y-80000500D01*
X150745095Y-80019505D01*
X150802310Y-80055456D01*
X150961941Y-80111313D01*
X151130000Y-80130249D01*
X151298059Y-80111313D01*
X151457690Y-80055456D01*
X151600890Y-79965477D01*
X151720477Y-79845890D01*
X151810456Y-79702690D01*
X151866313Y-79543059D01*
X151885249Y-79375000D01*
X151866313Y-79206941D01*
X151810456Y-79047310D01*
X151720477Y-78904110D01*
X151600890Y-78784523D01*
X151457690Y-78694544D01*
X151298059Y-78638687D01*
X151298058Y-78638686D01*
X151298056Y-78638686D01*
X151130000Y-78619750D01*
X150961943Y-78638686D01*
X150802309Y-78694544D01*
X150745096Y-78730494D01*
X150679124Y-78749500D01*
X148405876Y-78749500D01*
X148339904Y-78730494D01*
X148282690Y-78694544D01*
X148123056Y-78638686D01*
X147955000Y-78619750D01*
X147786943Y-78638686D01*
X147627310Y-78694544D01*
X147484108Y-78784524D01*
X147364524Y-78904108D01*
X147274544Y-79047310D01*
X147218686Y-79206943D01*
X147199750Y-79375000D01*
X104044007Y-79375000D01*
X104123903Y-79203663D01*
X104185063Y-78975408D01*
X104205659Y-78740000D01*
X104185063Y-78504592D01*
X104123903Y-78276337D01*
X104024035Y-78062171D01*
X103888495Y-77868599D01*
X103721401Y-77701505D01*
X103535839Y-77571573D01*
X103496975Y-77527257D01*
X103482964Y-77470000D01*
X103496975Y-77412743D01*
X103535839Y-77368426D01*
X103721401Y-77238495D01*
X103888495Y-77071401D01*
X104024035Y-76877830D01*
X104123903Y-76663663D01*
X104185063Y-76435408D01*
X104205659Y-76200000D01*
X104185063Y-75964592D01*
X104123903Y-75736337D01*
X104024035Y-75522171D01*
X103888495Y-75328599D01*
X103721401Y-75161505D01*
X103535402Y-75031267D01*
X103496539Y-74986951D01*
X103482528Y-74929694D01*
X103496539Y-74872437D01*
X103535405Y-74828119D01*
X103721078Y-74698109D01*
X103888106Y-74531081D01*
X104023600Y-74337576D01*
X104123430Y-74123492D01*
X104180636Y-73910000D01*
X102724000Y-73910000D01*
X102662000Y-73893387D01*
X102616613Y-73848000D01*
X102600000Y-73786000D01*
X102600000Y-73534000D01*
X102616613Y-73472000D01*
X102662000Y-73426613D01*
X102724000Y-73410000D01*
X104180636Y-73410000D01*
X104180635Y-73409999D01*
X104123430Y-73196507D01*
X104023599Y-72982421D01*
X103888109Y-72788921D01*
X103721081Y-72621893D01*
X103535404Y-72491880D01*
X103496539Y-72447562D01*
X103482528Y-72390305D01*
X103496539Y-72333048D01*
X103535402Y-72288732D01*
X103721401Y-72158495D01*
X103888495Y-71991401D01*
X104024035Y-71797830D01*
X104123903Y-71583663D01*
X104185063Y-71355408D01*
X104205659Y-71120000D01*
X104185063Y-70884592D01*
X104123903Y-70656337D01*
X104024035Y-70442171D01*
X103888495Y-70248599D01*
X103721401Y-70081505D01*
X103535839Y-69951573D01*
X103496975Y-69907257D01*
X103482964Y-69850000D01*
X103496975Y-69792743D01*
X103535839Y-69748426D01*
X103721401Y-69618495D01*
X103888495Y-69451401D01*
X104024035Y-69257830D01*
X104123903Y-69043663D01*
X104185063Y-68815408D01*
X104205659Y-68580000D01*
X104185063Y-68344592D01*
X104123903Y-68116337D01*
X104024035Y-67902171D01*
X103888495Y-67708599D01*
X103721401Y-67541505D01*
X103535839Y-67411573D01*
X103496975Y-67367257D01*
X103482964Y-67310000D01*
X103496975Y-67252743D01*
X103535839Y-67208426D01*
X103721401Y-67078495D01*
X103888495Y-66911401D01*
X104024035Y-66717830D01*
X104123903Y-66503663D01*
X104185063Y-66275408D01*
X104205659Y-66040000D01*
X104185063Y-65804592D01*
X104123903Y-65576337D01*
X104024035Y-65362171D01*
X103888495Y-65168599D01*
X103721401Y-65001505D01*
X103527830Y-64865965D01*
X103313663Y-64766097D01*
X103252502Y-64749709D01*
X103085407Y-64704936D01*
X102850000Y-64684340D01*
X102614592Y-64704936D01*
X102386336Y-64766097D01*
X102172170Y-64865965D01*
X101978601Y-65001503D01*
X101856673Y-65123431D01*
X101803926Y-65154726D01*
X101742634Y-65156915D01*
X101687789Y-65129462D01*
X101652810Y-65079082D01*
X101645658Y-65059907D01*
X101603796Y-64947669D01*
X101517546Y-64832454D01*
X101402331Y-64746204D01*
X101267483Y-64695909D01*
X101207873Y-64689500D01*
X101207869Y-64689500D01*
X99412130Y-64689500D01*
X99352515Y-64695909D01*
X99217669Y-64746204D01*
X99102454Y-64832454D01*
X99016204Y-64947668D01*
X98965909Y-65082516D01*
X98959500Y-65142130D01*
X98959500Y-66937869D01*
X98965909Y-66997484D01*
X98991056Y-67064906D01*
X99016204Y-67132331D01*
X99102454Y-67247546D01*
X99217669Y-67333796D01*
X99307383Y-67367257D01*
X99349082Y-67382810D01*
X99399462Y-67417789D01*
X99426915Y-67472634D01*
X99424726Y-67533926D01*
X99393431Y-67586673D01*
X99271503Y-67708601D01*
X99135965Y-67902170D01*
X99036097Y-68116336D01*
X98974936Y-68344592D01*
X98954340Y-68579999D01*
X98974936Y-68815407D01*
X99019709Y-68982502D01*
X99036097Y-69043663D01*
X99135965Y-69257830D01*
X99271505Y-69451401D01*
X99438599Y-69618495D01*
X99624160Y-69748426D01*
X99663024Y-69792743D01*
X99677035Y-69850000D01*
X99663024Y-69907257D01*
X99624159Y-69951575D01*
X99438595Y-70081508D01*
X99271505Y-70248598D01*
X99135965Y-70442170D01*
X99036097Y-70656336D01*
X98974936Y-70884592D01*
X98954340Y-71119999D01*
X98974936Y-71355407D01*
X99019709Y-71522502D01*
X99036097Y-71583663D01*
X99135965Y-71797830D01*
X99271505Y-71991401D01*
X99438599Y-72158495D01*
X99624160Y-72288426D01*
X99663024Y-72332743D01*
X99677035Y-72390000D01*
X99663024Y-72447257D01*
X99624159Y-72491575D01*
X99438595Y-72621508D01*
X99271505Y-72788598D01*
X99135965Y-72982170D01*
X99036097Y-73196336D01*
X98974936Y-73424592D01*
X98954340Y-73660000D01*
X98974936Y-73895407D01*
X99019709Y-74062501D01*
X99036097Y-74123663D01*
X99135965Y-74337830D01*
X99271505Y-74531401D01*
X99438599Y-74698495D01*
X99624160Y-74828426D01*
X99663024Y-74872743D01*
X99677035Y-74930000D01*
X99663024Y-74987257D01*
X99624159Y-75031575D01*
X99438595Y-75161508D01*
X99271505Y-75328598D01*
X99135965Y-75522170D01*
X99036097Y-75736336D01*
X98974936Y-75964592D01*
X98954340Y-76199999D01*
X98974936Y-76435407D01*
X99019709Y-76602502D01*
X99036097Y-76663663D01*
X99135965Y-76877830D01*
X99271505Y-77071401D01*
X99438599Y-77238495D01*
X99624160Y-77368426D01*
X99663024Y-77412743D01*
X99677035Y-77470000D01*
X99663024Y-77527257D01*
X99624159Y-77571575D01*
X99438595Y-77701508D01*
X99271505Y-77868598D01*
X99135965Y-78062170D01*
X99036097Y-78276336D01*
X98974936Y-78504592D01*
X98954340Y-78740000D01*
X98974936Y-78975407D01*
X99019709Y-79142501D01*
X99036097Y-79203663D01*
X99135965Y-79417830D01*
X99271505Y-79611401D01*
X99438599Y-79778495D01*
X99624160Y-79908426D01*
X99663024Y-79952743D01*
X99677035Y-80010000D01*
X99663024Y-80067257D01*
X99624159Y-80111575D01*
X99438595Y-80241508D01*
X99271505Y-80408598D01*
X99135965Y-80602170D01*
X99036097Y-80816336D01*
X98974936Y-81044592D01*
X98954340Y-81279999D01*
X98974936Y-81515407D01*
X99019709Y-81682502D01*
X99036097Y-81743663D01*
X99135965Y-81957830D01*
X99271505Y-82151401D01*
X99438599Y-82318495D01*
X99624160Y-82448426D01*
X99663024Y-82492743D01*
X99677035Y-82550000D01*
X99663024Y-82607257D01*
X99624159Y-82651575D01*
X99438595Y-82781508D01*
X99271505Y-82948598D01*
X99135965Y-83142170D01*
X99036097Y-83356336D01*
X98974936Y-83584592D01*
X98954340Y-83820000D01*
X98974936Y-84055407D01*
X99019709Y-84222501D01*
X99036097Y-84283663D01*
X99135965Y-84497830D01*
X99271505Y-84691401D01*
X99438599Y-84858495D01*
X99624160Y-84988426D01*
X99663024Y-85032743D01*
X99677035Y-85090000D01*
X99663024Y-85147257D01*
X99624159Y-85191575D01*
X99438595Y-85321508D01*
X99271505Y-85488598D01*
X99135965Y-85682170D01*
X99036097Y-85896336D01*
X98974936Y-86124592D01*
X98954340Y-86360000D01*
X98974936Y-86595407D01*
X99019709Y-86762502D01*
X99036097Y-86823663D01*
X99135965Y-87037830D01*
X99271505Y-87231401D01*
X99438599Y-87398495D01*
X99624597Y-87528732D01*
X99663460Y-87573048D01*
X99677471Y-87630305D01*
X99663461Y-87687561D01*
X99624595Y-87731880D01*
X99438919Y-87861892D01*
X99271890Y-88028921D01*
X99136400Y-88222421D01*
X99036569Y-88436507D01*
X98979364Y-88649999D01*
X98979364Y-88650000D01*
X104180636Y-88650000D01*
X104180635Y-88649999D01*
X104123430Y-88436507D01*
X104023599Y-88222421D01*
X103888109Y-88028921D01*
X103721081Y-87861893D01*
X103535404Y-87731880D01*
X103496539Y-87687562D01*
X103482528Y-87630305D01*
X103496539Y-87573048D01*
X103535402Y-87528732D01*
X103721401Y-87398495D01*
X103888495Y-87231401D01*
X104024035Y-87037830D01*
X104041420Y-87000547D01*
X104078314Y-86954578D01*
X104132268Y-86930837D01*
X104191088Y-86934692D01*
X104241481Y-86965271D01*
X107442306Y-90166097D01*
X110562281Y-93286072D01*
X110589161Y-93326300D01*
X110598600Y-93373753D01*
X110598600Y-102675756D01*
X110596335Y-102696262D01*
X110598539Y-102766373D01*
X110598600Y-102770268D01*
X110598600Y-102797849D01*
X110599103Y-102801834D01*
X110600018Y-102813467D01*
X110601390Y-102857126D01*
X110606979Y-102876360D01*
X110610925Y-102895416D01*
X110613435Y-102915292D01*
X110629514Y-102955904D01*
X110633297Y-102966951D01*
X110645482Y-103008891D01*
X110655680Y-103026135D01*
X110664236Y-103043600D01*
X110671614Y-103062232D01*
X110671615Y-103062233D01*
X110697280Y-103097559D01*
X110703693Y-103107322D01*
X110725926Y-103144916D01*
X110725929Y-103144919D01*
X110725930Y-103144920D01*
X110740095Y-103159085D01*
X110752727Y-103173875D01*
X110764506Y-103190087D01*
X110798158Y-103217926D01*
X110806799Y-103225789D01*
X111970688Y-104389679D01*
X112000713Y-104438356D01*
X112005698Y-104495331D01*
X111984583Y-104548482D01*
X111855965Y-104732171D01*
X111756097Y-104946336D01*
X111694936Y-105174592D01*
X111674340Y-105410000D01*
X111694936Y-105645407D01*
X111738662Y-105808595D01*
X111756097Y-105873663D01*
X111855965Y-106087830D01*
X111991505Y-106281401D01*
X112158599Y-106448495D01*
X112334194Y-106571448D01*
X112344158Y-106578425D01*
X112383023Y-106622743D01*
X112397034Y-106680000D01*
X112383023Y-106737257D01*
X112344158Y-106781575D01*
X112158595Y-106911508D01*
X111991505Y-107078598D01*
X111855965Y-107272170D01*
X111756097Y-107486336D01*
X111694936Y-107714592D01*
X111674340Y-107949999D01*
X111694936Y-108185407D01*
X111738663Y-108348598D01*
X111756097Y-108413663D01*
X111825215Y-108561887D01*
X111855965Y-108627830D01*
X111984541Y-108811456D01*
X112005657Y-108864608D01*
X112000672Y-108921583D01*
X111970647Y-108970260D01*
X111518708Y-109422199D01*
X111502610Y-109435096D01*
X111454596Y-109486225D01*
X111451891Y-109489017D01*
X111432374Y-109508534D01*
X111429915Y-109511705D01*
X111422342Y-109520572D01*
X111392435Y-109552420D01*
X111382785Y-109569974D01*
X111372109Y-109586228D01*
X111359826Y-109602063D01*
X111342475Y-109642158D01*
X111337338Y-109652644D01*
X111316302Y-109690907D01*
X111311321Y-109710309D01*
X111305020Y-109728711D01*
X111297061Y-109747102D01*
X111290228Y-109790242D01*
X111287860Y-109801674D01*
X111277000Y-109843978D01*
X111277000Y-109864016D01*
X111275473Y-109883413D01*
X111272340Y-109903196D01*
X111272979Y-109909952D01*
X111276450Y-109946675D01*
X111277000Y-109958344D01*
X111277000Y-127030748D01*
X111267561Y-127078201D01*
X111240681Y-127118429D01*
X110750928Y-127608181D01*
X110710700Y-127635061D01*
X110663247Y-127644500D01*
X104234218Y-127644500D01*
X104174575Y-127629214D01*
X104129637Y-127587125D01*
X104110483Y-127528609D01*
X104121836Y-127468095D01*
X104123903Y-127463663D01*
X104185063Y-127235408D01*
X104205659Y-127000000D01*
X104185063Y-126764592D01*
X104123903Y-126536337D01*
X104024035Y-126322171D01*
X103888495Y-126128599D01*
X103721401Y-125961505D01*
X103535839Y-125831573D01*
X103496975Y-125787257D01*
X103482964Y-125730000D01*
X103496975Y-125672743D01*
X103535839Y-125628426D01*
X103721401Y-125498495D01*
X103888495Y-125331401D01*
X104024035Y-125137830D01*
X104123903Y-124923663D01*
X104185063Y-124695408D01*
X104205659Y-124460000D01*
X104185063Y-124224592D01*
X104123903Y-123996337D01*
X104024035Y-123782171D01*
X103888495Y-123588599D01*
X103721401Y-123421505D01*
X103535839Y-123291573D01*
X103496975Y-123247257D01*
X103482964Y-123190000D01*
X103496975Y-123132743D01*
X103535839Y-123088426D01*
X103721401Y-122958495D01*
X103888495Y-122791401D01*
X104024035Y-122597830D01*
X104123903Y-122383663D01*
X104185063Y-122155408D01*
X104205659Y-121920000D01*
X104200791Y-121864365D01*
X104185063Y-121684592D01*
X104171180Y-121632781D01*
X104123903Y-121456337D01*
X104024035Y-121242171D01*
X103888495Y-121048599D01*
X103721401Y-120881505D01*
X103535839Y-120751573D01*
X103496974Y-120707255D01*
X103482964Y-120649999D01*
X103496975Y-120592742D01*
X103535837Y-120548428D01*
X103721401Y-120418495D01*
X103888495Y-120251401D01*
X104024035Y-120057830D01*
X104123903Y-119843663D01*
X104185063Y-119615408D01*
X104205659Y-119380000D01*
X104185063Y-119144592D01*
X104123903Y-118916337D01*
X104024035Y-118702171D01*
X103888495Y-118508599D01*
X103721401Y-118341505D01*
X103535839Y-118211573D01*
X103496974Y-118167255D01*
X103482964Y-118109999D01*
X103496975Y-118052742D01*
X103535837Y-118008428D01*
X103721401Y-117878495D01*
X103888495Y-117711401D01*
X104024035Y-117517830D01*
X104123903Y-117303663D01*
X104185063Y-117075408D01*
X104205659Y-116840000D01*
X104185063Y-116604592D01*
X104123903Y-116376337D01*
X104024035Y-116162171D01*
X103888495Y-115968599D01*
X103721401Y-115801505D01*
X103535839Y-115671573D01*
X103496975Y-115627257D01*
X103482964Y-115570000D01*
X103496975Y-115512743D01*
X103535839Y-115468426D01*
X103721401Y-115338495D01*
X103888495Y-115171401D01*
X104024035Y-114977830D01*
X104123903Y-114763663D01*
X104185063Y-114535408D01*
X104205659Y-114300000D01*
X104185063Y-114064592D01*
X104123903Y-113836337D01*
X104024035Y-113622171D01*
X103888495Y-113428599D01*
X103721401Y-113261505D01*
X103535839Y-113131573D01*
X103496975Y-113087257D01*
X103482964Y-113030000D01*
X103496975Y-112972743D01*
X103535839Y-112928426D01*
X103721401Y-112798495D01*
X103888495Y-112631401D01*
X104024035Y-112437830D01*
X104123903Y-112223663D01*
X104185063Y-111995408D01*
X104205659Y-111760000D01*
X104203290Y-111732928D01*
X104185063Y-111524592D01*
X104141337Y-111361404D01*
X104123903Y-111296337D01*
X104024035Y-111082171D01*
X103888495Y-110888599D01*
X103721401Y-110721505D01*
X103535839Y-110591573D01*
X103496975Y-110547257D01*
X103482964Y-110490000D01*
X103496975Y-110432743D01*
X103535839Y-110388426D01*
X103721401Y-110258495D01*
X103888495Y-110091401D01*
X104024035Y-109897830D01*
X104123903Y-109683663D01*
X104185063Y-109455408D01*
X104205659Y-109220000D01*
X104185063Y-108984592D01*
X104123903Y-108756337D01*
X104024035Y-108542171D01*
X103888495Y-108348599D01*
X103721401Y-108181505D01*
X103535839Y-108051573D01*
X103496975Y-108007257D01*
X103482964Y-107950000D01*
X103496975Y-107892743D01*
X103535839Y-107848426D01*
X103721401Y-107718495D01*
X103888495Y-107551401D01*
X104024035Y-107357830D01*
X104123903Y-107143663D01*
X104185063Y-106915408D01*
X104205659Y-106680000D01*
X104185063Y-106444592D01*
X104123903Y-106216337D01*
X104024035Y-106002171D01*
X103888495Y-105808599D01*
X103721401Y-105641505D01*
X103535839Y-105511573D01*
X103496975Y-105467257D01*
X103482964Y-105410000D01*
X103496975Y-105352743D01*
X103535839Y-105308426D01*
X103721401Y-105178495D01*
X103888495Y-105011401D01*
X104024035Y-104817830D01*
X104123903Y-104603663D01*
X104185063Y-104375408D01*
X104205659Y-104140000D01*
X104185063Y-103904592D01*
X104123903Y-103676337D01*
X104024035Y-103462171D01*
X103888495Y-103268599D01*
X103721401Y-103101505D01*
X103535839Y-102971573D01*
X103496974Y-102927255D01*
X103482964Y-102869999D01*
X103496975Y-102812742D01*
X103535837Y-102768428D01*
X103721401Y-102638495D01*
X103888495Y-102471401D01*
X104024035Y-102277830D01*
X104123903Y-102063663D01*
X104185063Y-101835408D01*
X104205659Y-101600000D01*
X104185063Y-101364592D01*
X104123903Y-101136337D01*
X104024035Y-100922171D01*
X103888495Y-100728599D01*
X103721401Y-100561505D01*
X103535839Y-100431573D01*
X103496975Y-100387257D01*
X103482964Y-100330000D01*
X103496975Y-100272743D01*
X103535839Y-100228426D01*
X103721401Y-100098495D01*
X103888495Y-99931401D01*
X104024035Y-99737830D01*
X104123903Y-99523663D01*
X104185063Y-99295408D01*
X104205659Y-99060000D01*
X104185063Y-98824592D01*
X104123903Y-98596337D01*
X104024035Y-98382171D01*
X103888495Y-98188599D01*
X103721401Y-98021505D01*
X103535839Y-97891573D01*
X103496976Y-97847257D01*
X103482965Y-97790000D01*
X103496976Y-97732743D01*
X103535839Y-97688426D01*
X103721401Y-97558495D01*
X103888495Y-97391401D01*
X104024035Y-97197830D01*
X104123903Y-96983663D01*
X104185063Y-96755408D01*
X104205659Y-96520000D01*
X104185063Y-96284592D01*
X104123903Y-96056337D01*
X104024035Y-95842171D01*
X103888495Y-95648599D01*
X103721401Y-95481505D01*
X103535839Y-95351573D01*
X103496975Y-95307257D01*
X103482964Y-95250000D01*
X103496975Y-95192743D01*
X103535839Y-95148426D01*
X103721401Y-95018495D01*
X103888495Y-94851401D01*
X104024035Y-94657830D01*
X104123903Y-94443663D01*
X104185063Y-94215408D01*
X104205659Y-93980000D01*
X104185063Y-93744592D01*
X104123903Y-93516337D01*
X104024035Y-93302171D01*
X103888495Y-93108599D01*
X103721401Y-92941505D01*
X103535402Y-92811267D01*
X103496539Y-92766951D01*
X103482528Y-92709694D01*
X103496539Y-92652437D01*
X103535405Y-92608119D01*
X103721078Y-92478109D01*
X103888106Y-92311081D01*
X104023600Y-92117576D01*
X104123430Y-91903492D01*
X104180636Y-91690000D01*
X102724000Y-91690000D01*
X102662000Y-91673387D01*
X102616613Y-91628000D01*
X102600000Y-91566000D01*
X102600000Y-89150000D01*
X103100000Y-89150000D01*
X103100000Y-91190000D01*
X104180636Y-91190000D01*
X104180635Y-91189999D01*
X104123430Y-90976507D01*
X104023599Y-90762421D01*
X103888109Y-90568921D01*
X103721081Y-90401893D01*
X103534968Y-90271575D01*
X103496103Y-90227257D01*
X103482092Y-90170000D01*
X103496103Y-90112743D01*
X103534968Y-90068425D01*
X103721081Y-89938106D01*
X103888106Y-89771081D01*
X104023600Y-89577576D01*
X104123430Y-89363492D01*
X104180636Y-89150000D01*
X103100000Y-89150000D01*
X102600000Y-89150000D01*
X98979364Y-89150000D01*
X99036569Y-89363492D01*
X99136399Y-89577576D01*
X99271893Y-89771081D01*
X99438918Y-89938106D01*
X99624595Y-90068119D01*
X99663460Y-90112437D01*
X99677471Y-90169694D01*
X99663460Y-90226951D01*
X99624595Y-90271269D01*
X99438595Y-90401508D01*
X99271505Y-90568598D01*
X99135965Y-90762170D01*
X99036097Y-90976336D01*
X98974936Y-91204592D01*
X98954340Y-91440000D01*
X98974936Y-91675407D01*
X99019709Y-91842502D01*
X99036097Y-91903663D01*
X99135965Y-92117830D01*
X99271505Y-92311401D01*
X99438599Y-92478495D01*
X99624160Y-92608426D01*
X99663024Y-92652743D01*
X99677035Y-92710000D01*
X99663024Y-92767257D01*
X99624159Y-92811575D01*
X99438595Y-92941508D01*
X99271505Y-93108598D01*
X99135965Y-93302170D01*
X99036097Y-93516336D01*
X98974936Y-93744592D01*
X98954340Y-93979999D01*
X98974936Y-94215407D01*
X99011571Y-94352130D01*
X99036097Y-94443663D01*
X99135965Y-94657830D01*
X99271505Y-94851401D01*
X99438599Y-95018495D01*
X99624160Y-95148426D01*
X99663024Y-95192743D01*
X99677035Y-95250000D01*
X99663024Y-95307257D01*
X99624159Y-95351575D01*
X99438595Y-95481508D01*
X99271505Y-95648598D01*
X99135965Y-95842170D01*
X99036097Y-96056336D01*
X98974936Y-96284592D01*
X98954340Y-96520000D01*
X98974936Y-96755407D01*
X99018663Y-96918598D01*
X99036097Y-96983663D01*
X99135965Y-97197830D01*
X99271505Y-97391401D01*
X99438599Y-97558495D01*
X99624160Y-97688426D01*
X99663024Y-97732743D01*
X99677035Y-97790000D01*
X99663024Y-97847257D01*
X99624158Y-97891575D01*
X99533836Y-97954820D01*
X99438595Y-98021508D01*
X99271505Y-98188598D01*
X99135965Y-98382170D01*
X99036097Y-98596336D01*
X98974936Y-98824592D01*
X98954340Y-99059999D01*
X98974936Y-99295407D01*
X99007302Y-99416198D01*
X99036097Y-99523663D01*
X99135965Y-99737830D01*
X99271505Y-99931401D01*
X99438599Y-100098495D01*
X99624160Y-100228426D01*
X99663024Y-100272743D01*
X99677035Y-100330000D01*
X99663024Y-100387257D01*
X99624159Y-100431575D01*
X99438595Y-100561508D01*
X99271505Y-100728598D01*
X99135965Y-100922170D01*
X99036097Y-101136336D01*
X98974936Y-101364592D01*
X98954340Y-101600000D01*
X98974936Y-101835407D01*
X99018663Y-101998599D01*
X99036097Y-102063663D01*
X99135965Y-102277830D01*
X99271505Y-102471401D01*
X99438599Y-102638495D01*
X99624160Y-102768426D01*
X99663024Y-102812743D01*
X99677035Y-102870000D01*
X99663024Y-102927257D01*
X99624160Y-102971574D01*
X99444235Y-103097559D01*
X99438595Y-103101508D01*
X99271505Y-103268598D01*
X99135965Y-103462170D01*
X99036097Y-103676336D01*
X98974936Y-103904592D01*
X98954340Y-104140000D01*
X98974936Y-104375407D01*
X99001501Y-104474547D01*
X99036097Y-104603663D01*
X99135965Y-104817830D01*
X99271505Y-105011401D01*
X99438599Y-105178495D01*
X99624160Y-105308426D01*
X99663024Y-105352743D01*
X99677035Y-105410000D01*
X99663024Y-105467257D01*
X99624159Y-105511575D01*
X99438595Y-105641508D01*
X99271505Y-105808598D01*
X99135965Y-106002170D01*
X99036097Y-106216336D01*
X98974936Y-106444592D01*
X98954340Y-106680000D01*
X98974936Y-106915407D01*
X99018663Y-107078598D01*
X99036097Y-107143663D01*
X99135965Y-107357830D01*
X99271505Y-107551401D01*
X99438599Y-107718495D01*
X99624160Y-107848426D01*
X99663024Y-107892743D01*
X99677035Y-107950000D01*
X99663024Y-108007257D01*
X99624158Y-108051575D01*
X99524256Y-108121528D01*
X99438595Y-108181508D01*
X99271505Y-108348598D01*
X99135965Y-108542170D01*
X99036097Y-108756336D01*
X98974936Y-108984592D01*
X98954340Y-109220000D01*
X98974936Y-109455407D01*
X99009990Y-109586228D01*
X99036097Y-109683663D01*
X99135965Y-109897830D01*
X99271505Y-110091401D01*
X99438599Y-110258495D01*
X99624160Y-110388426D01*
X99663024Y-110432743D01*
X99677035Y-110490000D01*
X99663024Y-110547257D01*
X99624159Y-110591575D01*
X99438595Y-110721508D01*
X99271505Y-110888598D01*
X99135965Y-111082170D01*
X99036097Y-111296336D01*
X98974936Y-111524592D01*
X98954340Y-111759999D01*
X98974936Y-111995407D01*
X99013979Y-112141115D01*
X99036097Y-112223663D01*
X99135965Y-112437830D01*
X99271505Y-112631401D01*
X99438599Y-112798495D01*
X99624160Y-112928426D01*
X99663024Y-112972743D01*
X99677035Y-113030000D01*
X99663024Y-113087257D01*
X99624159Y-113131575D01*
X99438595Y-113261508D01*
X99271505Y-113428598D01*
X99135965Y-113622170D01*
X99036097Y-113836336D01*
X98974936Y-114064592D01*
X98954340Y-114300000D01*
X98974936Y-114535407D01*
X99010347Y-114667562D01*
X99036097Y-114763663D01*
X99135965Y-114977830D01*
X99271505Y-115171401D01*
X99438599Y-115338495D01*
X99624160Y-115468426D01*
X99663024Y-115512743D01*
X99677035Y-115570000D01*
X99663024Y-115627257D01*
X99624159Y-115671575D01*
X99438595Y-115801508D01*
X99271505Y-115968598D01*
X99135965Y-116162170D01*
X99036097Y-116376336D01*
X98974936Y-116604592D01*
X98954340Y-116839999D01*
X98974936Y-117075407D01*
X99019709Y-117242502D01*
X99036097Y-117303663D01*
X99135965Y-117517830D01*
X99271505Y-117711401D01*
X99438599Y-117878495D01*
X99624160Y-118008426D01*
X99663024Y-118052743D01*
X99677035Y-118110000D01*
X99663024Y-118167257D01*
X99624160Y-118211574D01*
X99443164Y-118338309D01*
X99438595Y-118341508D01*
X99271505Y-118508598D01*
X99135965Y-118702170D01*
X99036097Y-118916336D01*
X98974936Y-119144592D01*
X98954340Y-119380000D01*
X98974936Y-119615407D01*
X99036097Y-119843662D01*
X99135965Y-120057831D01*
X99264582Y-120241515D01*
X99285698Y-120294667D01*
X99280713Y-120351642D01*
X99250688Y-120400319D01*
X98772108Y-120878899D01*
X98756010Y-120891796D01*
X98707996Y-120942925D01*
X98705291Y-120945717D01*
X98685774Y-120965234D01*
X98683315Y-120968405D01*
X98675742Y-120977272D01*
X98639395Y-121015980D01*
X98590272Y-121048029D01*
X98531916Y-121053917D01*
X98477382Y-121032326D01*
X98438871Y-120988088D01*
X98425000Y-120931099D01*
X98425000Y-64259000D01*
X98441613Y-64197000D01*
X98487000Y-64151613D01*
X98549000Y-64135000D01*
X111001000Y-64135000D01*
X111063000Y-64151613D01*
G37*
G04 #@! TD.AperFunction*
G04 #@! TA.AperFunction,Conductor*
G36*
X111990180Y-128313471D02*
G01*
X114772696Y-131095987D01*
X114785596Y-131112088D01*
X114836723Y-131160100D01*
X114839519Y-131162810D01*
X114859029Y-131182320D01*
X114862211Y-131184788D01*
X114871071Y-131192355D01*
X114902918Y-131222262D01*
X114920472Y-131231912D01*
X114936736Y-131242596D01*
X114948472Y-131251699D01*
X114952564Y-131254873D01*
X114977409Y-131265624D01*
X114992652Y-131272221D01*
X115003131Y-131277354D01*
X115041408Y-131298397D01*
X115060806Y-131303377D01*
X115079208Y-131309677D01*
X115097604Y-131317638D01*
X115140761Y-131324473D01*
X115152164Y-131326834D01*
X115194481Y-131337700D01*
X115214516Y-131337700D01*
X115233913Y-131339226D01*
X115253696Y-131342360D01*
X115297174Y-131338250D01*
X115308844Y-131337700D01*
X138366647Y-131337700D01*
X138422942Y-131351215D01*
X138466965Y-131388815D01*
X138489120Y-131442302D01*
X138484578Y-131500018D01*
X138454328Y-131549381D01*
X138002228Y-132001481D01*
X137962000Y-132028361D01*
X137914547Y-132037800D01*
X113250334Y-132037800D01*
X113185320Y-132019390D01*
X113139611Y-131969626D01*
X113126781Y-131903285D01*
X113150638Y-131840066D01*
X113160409Y-131826853D01*
X113214849Y-131753246D01*
X113322615Y-131539506D01*
X113392708Y-131310628D01*
X113423112Y-131073197D01*
X113412953Y-130834042D01*
X113362523Y-130600044D01*
X113359606Y-130592786D01*
X113286720Y-130411401D01*
X113273272Y-130377935D01*
X113147768Y-130174104D01*
X112989622Y-129994415D01*
X112989620Y-129994413D01*
X112803386Y-129844039D01*
X112594410Y-129727297D01*
X112368710Y-129647552D01*
X112132787Y-129607100D01*
X112132785Y-129607100D01*
X111953367Y-129607100D01*
X111953364Y-129607100D01*
X111774593Y-129622315D01*
X111542943Y-129682631D01*
X111324824Y-129781228D01*
X111126503Y-129915270D01*
X110953687Y-130080899D01*
X110811351Y-130273353D01*
X110703585Y-130487093D01*
X110633889Y-130714674D01*
X110633492Y-130715972D01*
X110603088Y-130953403D01*
X110613247Y-131192558D01*
X110622742Y-131236614D01*
X110663677Y-131426558D01*
X110752926Y-131648661D01*
X110752928Y-131648665D01*
X110878432Y-131852496D01*
X110928952Y-131909898D01*
X110956229Y-131962001D01*
X110956430Y-132020815D01*
X110929509Y-132073105D01*
X110881522Y-132107110D01*
X110872166Y-132110814D01*
X110836826Y-132136489D01*
X110827068Y-132142899D01*
X110789479Y-132165129D01*
X110775310Y-132179298D01*
X110760522Y-132191928D01*
X110744310Y-132203707D01*
X110716470Y-132237359D01*
X110708610Y-132245997D01*
X110408825Y-132545783D01*
X110368600Y-132572661D01*
X110321147Y-132582100D01*
X104275204Y-132582100D01*
X104220360Y-132569312D01*
X104176828Y-132533587D01*
X104153587Y-132482292D01*
X104155429Y-132426007D01*
X104185063Y-132315407D01*
X104191190Y-132245371D01*
X104205659Y-132080000D01*
X104190776Y-131909896D01*
X104185063Y-131844592D01*
X104132565Y-131648665D01*
X104123903Y-131616337D01*
X104024035Y-131402171D01*
X103888495Y-131208599D01*
X103721401Y-131041505D01*
X103535839Y-130911573D01*
X103496976Y-130867257D01*
X103482965Y-130810000D01*
X103496976Y-130752743D01*
X103535839Y-130708426D01*
X103721401Y-130578495D01*
X103888495Y-130411401D01*
X104024035Y-130217830D01*
X104123903Y-130003663D01*
X104185063Y-129775408D01*
X104205659Y-129540000D01*
X104185063Y-129304592D01*
X104123903Y-129076337D01*
X104121835Y-129071903D01*
X104110483Y-129011391D01*
X104129637Y-128952875D01*
X104174575Y-128910786D01*
X104234218Y-128895500D01*
X110890956Y-128895500D01*
X110911462Y-128897764D01*
X110914365Y-128897672D01*
X110914367Y-128897673D01*
X110981572Y-128895561D01*
X110985468Y-128895500D01*
X111013049Y-128895500D01*
X111013050Y-128895500D01*
X111017019Y-128894998D01*
X111028665Y-128894080D01*
X111072327Y-128892709D01*
X111091559Y-128887120D01*
X111110618Y-128883174D01*
X111116896Y-128882381D01*
X111130492Y-128880664D01*
X111171107Y-128864582D01*
X111182144Y-128860803D01*
X111224090Y-128848618D01*
X111241329Y-128838422D01*
X111258802Y-128829862D01*
X111277432Y-128822486D01*
X111312764Y-128796814D01*
X111322530Y-128790400D01*
X111360118Y-128768171D01*
X111360117Y-128768171D01*
X111360120Y-128768170D01*
X111374285Y-128754004D01*
X111389073Y-128741373D01*
X111405287Y-128729594D01*
X111433138Y-128695926D01*
X111440979Y-128687309D01*
X111814817Y-128313471D01*
X111870406Y-128281377D01*
X111934593Y-128281377D01*
X111990180Y-128313471D01*
G37*
G04 #@! TD.AperFunction*
G04 #@! TA.AperFunction,Conductor*
G36*
X114368003Y-108531307D02*
G01*
X114418396Y-108561886D01*
X114586363Y-108729854D01*
X114635081Y-108778572D01*
X114661961Y-108818800D01*
X114671400Y-108866253D01*
X114671400Y-128926148D01*
X114657885Y-128982443D01*
X114620285Y-129026466D01*
X114566798Y-129048621D01*
X114509082Y-129044079D01*
X114459719Y-129013829D01*
X113574790Y-128128900D01*
X112564319Y-127118428D01*
X112537439Y-127078200D01*
X112528000Y-127030747D01*
X112528000Y-116994713D01*
X112540788Y-116939869D01*
X112576514Y-116896337D01*
X112627809Y-116873096D01*
X112684094Y-116874938D01*
X112779999Y-116900635D01*
X112780000Y-116900636D01*
X112780000Y-115820000D01*
X113280000Y-115820000D01*
X113280000Y-116900635D01*
X113493492Y-116843430D01*
X113707576Y-116743600D01*
X113901081Y-116608106D01*
X114068106Y-116441081D01*
X114203600Y-116247576D01*
X114303430Y-116033492D01*
X114360636Y-115820000D01*
X113280000Y-115820000D01*
X112780000Y-115820000D01*
X112780000Y-115444000D01*
X112796613Y-115382000D01*
X112842000Y-115336613D01*
X112904000Y-115320000D01*
X114360636Y-115320000D01*
X114360635Y-115319999D01*
X114303430Y-115106507D01*
X114203599Y-114892421D01*
X114068109Y-114698921D01*
X113901081Y-114531893D01*
X113715404Y-114401880D01*
X113676539Y-114357562D01*
X113662528Y-114300305D01*
X113676539Y-114243048D01*
X113715402Y-114198732D01*
X113901401Y-114068495D01*
X114068495Y-113901401D01*
X114204035Y-113707830D01*
X114303903Y-113493663D01*
X114365063Y-113265408D01*
X114385659Y-113030000D01*
X114365063Y-112794592D01*
X114303903Y-112566337D01*
X114204035Y-112352171D01*
X114068495Y-112158599D01*
X113901401Y-111991505D01*
X113715839Y-111861573D01*
X113676974Y-111817255D01*
X113662964Y-111759999D01*
X113676975Y-111702742D01*
X113715837Y-111658428D01*
X113901401Y-111528495D01*
X114068495Y-111361401D01*
X114204035Y-111167830D01*
X114303903Y-110953663D01*
X114365063Y-110725408D01*
X114385659Y-110490000D01*
X114365063Y-110254592D01*
X114303903Y-110026337D01*
X114204035Y-109812171D01*
X114068495Y-109618599D01*
X113901401Y-109451505D01*
X113715839Y-109321573D01*
X113676975Y-109277257D01*
X113662964Y-109220000D01*
X113676975Y-109162743D01*
X113715839Y-109118426D01*
X113901401Y-108988495D01*
X114068495Y-108821401D01*
X114204035Y-108627830D01*
X114218334Y-108597163D01*
X114255228Y-108551193D01*
X114309183Y-108527452D01*
X114368003Y-108531307D01*
G37*
G04 #@! TD.AperFunction*
G04 #@! TA.AperFunction,Conductor*
G36*
X132191183Y-119966774D02*
G01*
X133520024Y-121295615D01*
X134846281Y-122621872D01*
X134873161Y-122662100D01*
X134882600Y-122709553D01*
X134882600Y-125893500D01*
X134865987Y-125955500D01*
X134820600Y-126000887D01*
X134758600Y-126017500D01*
X134622074Y-126017500D01*
X134571197Y-126022969D01*
X134544691Y-126022969D01*
X134489173Y-126017000D01*
X134489169Y-126017000D01*
X133987028Y-126017000D01*
X133931507Y-126022969D01*
X133905002Y-126022969D01*
X133854126Y-126017500D01*
X133806300Y-126017500D01*
X133801304Y-126022495D01*
X133793184Y-126056861D01*
X133756610Y-126100623D01*
X133677355Y-126159952D01*
X133623167Y-126232339D01*
X133575411Y-126270822D01*
X133515054Y-126281712D01*
X133456860Y-126262343D01*
X133415068Y-126217455D01*
X133399900Y-126158028D01*
X133399900Y-126017500D01*
X133352074Y-126017500D01*
X133298853Y-126023221D01*
X133272347Y-126023221D01*
X133219126Y-126017500D01*
X133171300Y-126017500D01*
X133171300Y-128066900D01*
X133410401Y-128066900D01*
X133472401Y-128083513D01*
X133517788Y-128128900D01*
X133534400Y-128190898D01*
X133534401Y-128281377D01*
X133534401Y-128349300D01*
X133517788Y-128411300D01*
X133472401Y-128456687D01*
X133410401Y-128473300D01*
X132525800Y-128473300D01*
X132463800Y-128456687D01*
X132418413Y-128411300D01*
X132401800Y-128349300D01*
X132401800Y-128190900D01*
X132418413Y-128128900D01*
X132463800Y-128083513D01*
X132525800Y-128066900D01*
X132764900Y-128066900D01*
X132764900Y-126017500D01*
X132717074Y-126017500D01*
X132663853Y-126023221D01*
X132637347Y-126023221D01*
X132584126Y-126017500D01*
X132536300Y-126017500D01*
X132536300Y-126158028D01*
X132521132Y-126217455D01*
X132479340Y-126262343D01*
X132421146Y-126281712D01*
X132360789Y-126270822D01*
X132313033Y-126232339D01*
X132259113Y-126160311D01*
X132258846Y-126159954D01*
X132258844Y-126159953D01*
X132258844Y-126159952D01*
X132179590Y-126100623D01*
X132143016Y-126056861D01*
X132134895Y-126022495D01*
X132129900Y-126017500D01*
X132082074Y-126017500D01*
X132031197Y-126022969D01*
X132004691Y-126022969D01*
X131949173Y-126017000D01*
X131949169Y-126017000D01*
X131949164Y-126017000D01*
X131812599Y-126017000D01*
X131750600Y-126000388D01*
X131705213Y-125955001D01*
X131688600Y-125893001D01*
X131688600Y-124161948D01*
X131698039Y-124114495D01*
X131724916Y-124074269D01*
X131810047Y-123989139D01*
X131940568Y-123802734D01*
X132036739Y-123596496D01*
X132095635Y-123376692D01*
X132115468Y-123150000D01*
X132095635Y-122923308D01*
X132036739Y-122703504D01*
X131940568Y-122497266D01*
X131908186Y-122451020D01*
X131810046Y-122310859D01*
X131649140Y-122149953D01*
X131462735Y-122019432D01*
X131447023Y-122012106D01*
X131394847Y-121966348D01*
X131375428Y-121899722D01*
X131394849Y-121833097D01*
X131447026Y-121787340D01*
X131462484Y-121780131D01*
X131535472Y-121729025D01*
X130544128Y-120737681D01*
X130512034Y-120682094D01*
X130512034Y-120617906D01*
X130544128Y-120562319D01*
X130722319Y-120384128D01*
X130777906Y-120352034D01*
X130842094Y-120352034D01*
X130897681Y-120384128D01*
X131889025Y-121375472D01*
X131940134Y-121302480D01*
X132036266Y-121096326D01*
X132095141Y-120876602D01*
X132114966Y-120649999D01*
X132095141Y-120423397D01*
X132036266Y-120203673D01*
X131991122Y-120106861D01*
X131980428Y-120039344D01*
X132007138Y-119976420D01*
X132063134Y-119937212D01*
X132131398Y-119933634D01*
X132191183Y-119966774D01*
G37*
G04 #@! TD.AperFunction*
G04 #@! TA.AperFunction,Conductor*
G36*
X101637255Y-125106974D02*
G01*
X101681573Y-125145839D01*
X101811505Y-125331401D01*
X101978599Y-125498495D01*
X102164160Y-125628426D01*
X102203024Y-125672743D01*
X102217035Y-125730000D01*
X102203024Y-125787257D01*
X102164159Y-125831575D01*
X101978595Y-125961508D01*
X101811508Y-126128595D01*
X101811505Y-126128598D01*
X101811505Y-126128599D01*
X101789550Y-126159954D01*
X101681269Y-126314596D01*
X101636951Y-126353461D01*
X101579694Y-126367472D01*
X101522437Y-126353461D01*
X101478119Y-126314595D01*
X101348109Y-126128921D01*
X101181081Y-125961893D01*
X100995404Y-125831880D01*
X100956539Y-125787562D01*
X100942528Y-125730305D01*
X100956539Y-125673048D01*
X100995402Y-125628732D01*
X101181401Y-125498495D01*
X101348495Y-125331401D01*
X101478428Y-125145837D01*
X101522742Y-125106975D01*
X101579999Y-125092964D01*
X101637255Y-125106974D01*
G37*
G04 #@! TD.AperFunction*
G04 #@! TA.AperFunction,Conductor*
G36*
X136295918Y-123048121D02*
G01*
X136345281Y-123078371D01*
X136751281Y-123484371D01*
X136778161Y-123524599D01*
X136787600Y-123572052D01*
X136787600Y-125893000D01*
X136770987Y-125955000D01*
X136725600Y-126000387D01*
X136663601Y-126017000D01*
X136527029Y-126017000D01*
X136471507Y-126022969D01*
X136445002Y-126022969D01*
X136394126Y-126017500D01*
X136257600Y-126017500D01*
X136195600Y-126000887D01*
X136150213Y-125955500D01*
X136133600Y-125893500D01*
X136133600Y-123166052D01*
X136147115Y-123109757D01*
X136184715Y-123065734D01*
X136238202Y-123043579D01*
X136295918Y-123048121D01*
G37*
G04 #@! TD.AperFunction*
G04 #@! TA.AperFunction,Conductor*
G36*
X124650192Y-117133882D02*
G01*
X125956281Y-118439971D01*
X125983161Y-118480199D01*
X125992600Y-118527652D01*
X125992600Y-125893500D01*
X125975987Y-125955500D01*
X125930600Y-126000887D01*
X125868600Y-126017500D01*
X125732074Y-126017500D01*
X125681197Y-126022969D01*
X125654691Y-126022969D01*
X125599173Y-126017000D01*
X125599169Y-126017000D01*
X125097028Y-126017000D01*
X125041507Y-126022969D01*
X125015002Y-126022969D01*
X124964126Y-126017500D01*
X124827600Y-126017500D01*
X124765600Y-126000887D01*
X124720213Y-125955500D01*
X124703600Y-125893500D01*
X124703600Y-118888341D01*
X124705863Y-118867837D01*
X124703661Y-118797745D01*
X124703600Y-118793851D01*
X124703600Y-118766257D01*
X124703600Y-118766250D01*
X124703095Y-118762253D01*
X124702180Y-118750623D01*
X124700809Y-118706973D01*
X124695220Y-118687740D01*
X124691274Y-118668682D01*
X124688764Y-118648806D01*
X124672688Y-118608204D01*
X124668904Y-118597153D01*
X124657671Y-118558491D01*
X124656718Y-118555210D01*
X124646514Y-118537955D01*
X124637961Y-118520495D01*
X124633251Y-118508599D01*
X124630586Y-118501868D01*
X124604908Y-118466525D01*
X124598501Y-118456771D01*
X124595389Y-118451509D01*
X124576270Y-118419180D01*
X124562106Y-118405016D01*
X124549467Y-118390217D01*
X124537695Y-118374013D01*
X124504041Y-118346173D01*
X124495399Y-118338309D01*
X124100819Y-117943729D01*
X124068725Y-117888141D01*
X124068725Y-117823954D01*
X124100817Y-117768368D01*
X124190047Y-117679139D01*
X124320568Y-117492734D01*
X124416739Y-117286496D01*
X124442737Y-117189468D01*
X124474829Y-117133882D01*
X124530417Y-117101788D01*
X124594604Y-117101788D01*
X124650192Y-117133882D01*
G37*
G04 #@! TD.AperFunction*
G04 #@! TA.AperFunction,Conductor*
G36*
X116089623Y-125434337D02*
G01*
X116138550Y-125467588D01*
X116180329Y-125513989D01*
X116333467Y-125625249D01*
X116333470Y-125625251D01*
X116394036Y-125652217D01*
X116432798Y-125679358D01*
X116458571Y-125719045D01*
X116467600Y-125765496D01*
X116467600Y-125893000D01*
X116450987Y-125955000D01*
X116405600Y-126000387D01*
X116343601Y-126017000D01*
X116207029Y-126017000D01*
X116151507Y-126022969D01*
X116125002Y-126022969D01*
X116074126Y-126017500D01*
X116046400Y-126017500D01*
X115984400Y-126000887D01*
X115939013Y-125955500D01*
X115922400Y-125893500D01*
X115922400Y-125550560D01*
X115936511Y-125493111D01*
X115975632Y-125448737D01*
X116030859Y-125427538D01*
X116089623Y-125434337D01*
G37*
G04 #@! TD.AperFunction*
G04 #@! TA.AperFunction,Conductor*
G36*
X116084718Y-117926921D02*
G01*
X116134080Y-117957170D01*
X118730944Y-120554035D01*
X121326242Y-123149333D01*
X121358746Y-123206491D01*
X121357455Y-123272232D01*
X121322732Y-123328070D01*
X121264342Y-123358304D01*
X121160597Y-123380355D01*
X120987669Y-123457348D01*
X120834529Y-123568610D01*
X120707866Y-123709283D01*
X120613220Y-123873215D01*
X120554726Y-124053242D01*
X120548699Y-124110586D01*
X120542643Y-124168210D01*
X120541600Y-124178129D01*
X120530199Y-124218551D01*
X120505960Y-124252848D01*
X120179487Y-124579321D01*
X120131664Y-124609059D01*
X120075620Y-124614579D01*
X120022915Y-124594742D01*
X119984419Y-124553640D01*
X119922033Y-124445583D01*
X119795370Y-124304910D01*
X119642230Y-124193648D01*
X119469302Y-124116655D01*
X119284148Y-124077300D01*
X119284146Y-124077300D01*
X119094854Y-124077300D01*
X119094852Y-124077300D01*
X118909697Y-124116655D01*
X118736769Y-124193648D01*
X118583629Y-124304910D01*
X118456966Y-124445583D01*
X118362320Y-124609515D01*
X118303826Y-124789542D01*
X118286179Y-124957449D01*
X118274779Y-124997870D01*
X118250539Y-125032168D01*
X117979308Y-125303399D01*
X117963211Y-125316295D01*
X117932991Y-125348477D01*
X117883869Y-125380523D01*
X117825513Y-125386409D01*
X117770981Y-125364818D01*
X117732471Y-125320580D01*
X117718600Y-125263592D01*
X117718600Y-125230741D01*
X117720863Y-125210237D01*
X117718661Y-125140145D01*
X117718600Y-125136251D01*
X117718600Y-125108657D01*
X117718600Y-125108650D01*
X117718095Y-125104653D01*
X117717180Y-125093023D01*
X117715809Y-125049373D01*
X117710220Y-125030140D01*
X117706274Y-125011082D01*
X117703764Y-124991207D01*
X117692944Y-124963881D01*
X117684915Y-124905267D01*
X117691660Y-124841101D01*
X117686241Y-124789542D01*
X117671874Y-124652844D01*
X117636169Y-124542956D01*
X117613379Y-124472815D01*
X117518733Y-124308883D01*
X117392070Y-124168210D01*
X117238930Y-124056948D01*
X117066002Y-123979955D01*
X116880848Y-123940600D01*
X116880846Y-123940600D01*
X116691554Y-123940600D01*
X116691552Y-123940600D01*
X116506397Y-123979955D01*
X116333469Y-124056948D01*
X116180329Y-124168210D01*
X116138550Y-124214612D01*
X116089623Y-124247863D01*
X116030859Y-124254662D01*
X115975632Y-124233463D01*
X115936511Y-124189089D01*
X115922400Y-124131640D01*
X115922400Y-118044852D01*
X115935915Y-117988557D01*
X115973515Y-117944534D01*
X116027002Y-117922379D01*
X116084718Y-117926921D01*
G37*
G04 #@! TD.AperFunction*
G04 #@! TA.AperFunction,Conductor*
G36*
X116711318Y-105852921D02*
G01*
X116760680Y-105883170D01*
X117085418Y-106207909D01*
X117185881Y-106308372D01*
X117212761Y-106348600D01*
X117222200Y-106396053D01*
X117222200Y-109364056D01*
X117219935Y-109384562D01*
X117222139Y-109454673D01*
X117222200Y-109458568D01*
X117222200Y-109486150D01*
X117222388Y-109487635D01*
X117222703Y-109490134D01*
X117223618Y-109501767D01*
X117224990Y-109545426D01*
X117230579Y-109564660D01*
X117234525Y-109583716D01*
X117237035Y-109603592D01*
X117253114Y-109644204D01*
X117256897Y-109655251D01*
X117269082Y-109697191D01*
X117279280Y-109714435D01*
X117287836Y-109731900D01*
X117295214Y-109750532D01*
X117295215Y-109750533D01*
X117320880Y-109785859D01*
X117327293Y-109795622D01*
X117349526Y-109833216D01*
X117349529Y-109833219D01*
X117349530Y-109833220D01*
X117363695Y-109847385D01*
X117376327Y-109862175D01*
X117388106Y-109878387D01*
X117421758Y-109906226D01*
X117430399Y-109914089D01*
X122896117Y-115379807D01*
X122928211Y-115435394D01*
X122928211Y-115499581D01*
X122896117Y-115555169D01*
X122840530Y-115587263D01*
X122743502Y-115613261D01*
X122537264Y-115709432D01*
X122350859Y-115839953D01*
X122189953Y-116000859D01*
X122059432Y-116187264D01*
X121963261Y-116393502D01*
X121904364Y-116613310D01*
X121884531Y-116839999D01*
X121904364Y-117066689D01*
X121963261Y-117286497D01*
X122059432Y-117492735D01*
X122189953Y-117679140D01*
X122350859Y-117840046D01*
X122522572Y-117960279D01*
X122552273Y-117989669D01*
X122570525Y-118027257D01*
X122572879Y-118035359D01*
X122576825Y-118054416D01*
X122579335Y-118074292D01*
X122595414Y-118114904D01*
X122599197Y-118125951D01*
X122611382Y-118167891D01*
X122621580Y-118185135D01*
X122630136Y-118202600D01*
X122637514Y-118221232D01*
X122648066Y-118235756D01*
X122663180Y-118256559D01*
X122669593Y-118266322D01*
X122691826Y-118303916D01*
X122691829Y-118303919D01*
X122691830Y-118303920D01*
X122705995Y-118318085D01*
X122718627Y-118332875D01*
X122730406Y-118349087D01*
X122764058Y-118376926D01*
X122772699Y-118384789D01*
X123416281Y-119028372D01*
X123443161Y-119068600D01*
X123452600Y-119116053D01*
X123452600Y-123207147D01*
X123439085Y-123263442D01*
X123401485Y-123307465D01*
X123347998Y-123329620D01*
X123290282Y-123325078D01*
X123240919Y-123294828D01*
X116585319Y-116639228D01*
X116558439Y-116599000D01*
X116549000Y-116551547D01*
X116549000Y-105970852D01*
X116562515Y-105914557D01*
X116600115Y-105870534D01*
X116653602Y-105848379D01*
X116711318Y-105852921D01*
G37*
G04 #@! TD.AperFunction*
G04 #@! TA.AperFunction,Conductor*
G36*
X129978723Y-121654941D02*
G01*
X130157516Y-121780133D01*
X130172975Y-121787342D01*
X130225150Y-121833098D01*
X130244570Y-121899722D01*
X130225152Y-121966347D01*
X130172978Y-122012104D01*
X130157268Y-122019429D01*
X129978723Y-122144447D01*
X129915709Y-122166607D01*
X129850343Y-122152861D01*
X129801591Y-122107200D01*
X129783600Y-122042872D01*
X129783600Y-121756516D01*
X129801591Y-121692188D01*
X129850343Y-121646527D01*
X129915710Y-121632781D01*
X129978723Y-121654941D01*
G37*
G04 #@! TD.AperFunction*
G04 #@! TA.AperFunction,Conductor*
G36*
X114542817Y-94722120D02*
G01*
X114592180Y-94752370D01*
X126274581Y-106434771D01*
X126301461Y-106474999D01*
X126310900Y-106522452D01*
X126310900Y-113744656D01*
X126308635Y-113765162D01*
X126310839Y-113835273D01*
X126310900Y-113839168D01*
X126310900Y-113866749D01*
X126311403Y-113870734D01*
X126312318Y-113882367D01*
X126313690Y-113926026D01*
X126319279Y-113945260D01*
X126323225Y-113964316D01*
X126325735Y-113984192D01*
X126341814Y-114024804D01*
X126345597Y-114035851D01*
X126357782Y-114077791D01*
X126367980Y-114095035D01*
X126376536Y-114112500D01*
X126383914Y-114131132D01*
X126383915Y-114131133D01*
X126409580Y-114166459D01*
X126415993Y-114176222D01*
X126438226Y-114213816D01*
X126438229Y-114213819D01*
X126438230Y-114213820D01*
X126452395Y-114227985D01*
X126465027Y-114242775D01*
X126476806Y-114258987D01*
X126510458Y-114286826D01*
X126519099Y-114294689D01*
X127707944Y-115483534D01*
X127738524Y-115533927D01*
X127742379Y-115592747D01*
X127718639Y-115646701D01*
X127672669Y-115683597D01*
X127617263Y-115709433D01*
X127430859Y-115839953D01*
X127269953Y-116000859D01*
X127157651Y-116161246D01*
X127118076Y-116197510D01*
X127066884Y-116213651D01*
X127013666Y-116206645D01*
X126968395Y-116177804D01*
X118912119Y-108121528D01*
X118885239Y-108081300D01*
X118875800Y-108033847D01*
X118875800Y-106679999D01*
X121884531Y-106679999D01*
X121904364Y-106906689D01*
X121963261Y-107126497D01*
X122059432Y-107332735D01*
X122189953Y-107519140D01*
X122350859Y-107680046D01*
X122537264Y-107810567D01*
X122537265Y-107810567D01*
X122537266Y-107810568D01*
X122743504Y-107906739D01*
X122963308Y-107965635D01*
X123190000Y-107985468D01*
X123416692Y-107965635D01*
X123636496Y-107906739D01*
X123842734Y-107810568D01*
X124029139Y-107680047D01*
X124190047Y-107519139D01*
X124320568Y-107332734D01*
X124416739Y-107126496D01*
X124475635Y-106906692D01*
X124495468Y-106680000D01*
X124494245Y-106666026D01*
X124475635Y-106453310D01*
X124475635Y-106453308D01*
X124416739Y-106233504D01*
X124320568Y-106027266D01*
X124320016Y-106026478D01*
X124190046Y-105840859D01*
X124029140Y-105679953D01*
X123842735Y-105549432D01*
X123636497Y-105453261D01*
X123416689Y-105394364D01*
X123190000Y-105374531D01*
X122963310Y-105394364D01*
X122743502Y-105453261D01*
X122537264Y-105549432D01*
X122350859Y-105679953D01*
X122189953Y-105840859D01*
X122059432Y-106027264D01*
X121963261Y-106233502D01*
X121904364Y-106453310D01*
X121884531Y-106679999D01*
X118875800Y-106679999D01*
X118875800Y-103938640D01*
X118878063Y-103918136D01*
X118875861Y-103848044D01*
X118875800Y-103844150D01*
X118875800Y-103816557D01*
X118875800Y-103816550D01*
X118875295Y-103812553D01*
X118874380Y-103800923D01*
X118873009Y-103757273D01*
X118867420Y-103738040D01*
X118863474Y-103718982D01*
X118860964Y-103699108D01*
X118844885Y-103658497D01*
X118841104Y-103647452D01*
X118828919Y-103605513D01*
X118828918Y-103605512D01*
X118828918Y-103605510D01*
X118818717Y-103588261D01*
X118810160Y-103570795D01*
X118802786Y-103552168D01*
X118777113Y-103516832D01*
X118770702Y-103507072D01*
X118763239Y-103494452D01*
X118748470Y-103469479D01*
X118734306Y-103455315D01*
X118721669Y-103440520D01*
X118709895Y-103424314D01*
X118709894Y-103424313D01*
X118676235Y-103396468D01*
X118667605Y-103388614D01*
X114089310Y-98810319D01*
X114059285Y-98761641D01*
X114054300Y-98704666D01*
X114075413Y-98651520D01*
X114204035Y-98467830D01*
X114303903Y-98253663D01*
X114365063Y-98025408D01*
X114385659Y-97790000D01*
X114365063Y-97554592D01*
X114303903Y-97326337D01*
X114204035Y-97112171D01*
X114068495Y-96918599D01*
X113946569Y-96796673D01*
X113915273Y-96743927D01*
X113913084Y-96682634D01*
X113940537Y-96627789D01*
X113990916Y-96592810D01*
X114122331Y-96543796D01*
X114237546Y-96457546D01*
X114323796Y-96342331D01*
X114374091Y-96207483D01*
X114380500Y-96147873D01*
X114380499Y-94840050D01*
X114394014Y-94783756D01*
X114431614Y-94739733D01*
X114485101Y-94717578D01*
X114542817Y-94722120D01*
G37*
G04 #@! TD.AperFunction*
M02*
