G04 #@! TF.GenerationSoftware,KiCad,Pcbnew,7.0.1-3b83917a11~172~ubuntu22.04.1*
G04 #@! TF.CreationDate,2023-04-09T22:51:03+09:00*
G04 #@! TF.ProjectId,Akashi-14,416b6173-6869-42d3-9134-2e6b69636164,rev?*
G04 #@! TF.SameCoordinates,Original*
G04 #@! TF.FileFunction,Legend,Bot*
G04 #@! TF.FilePolarity,Positive*
%FSLAX46Y46*%
G04 Gerber Fmt 4.6, Leading zero omitted, Abs format (unit mm)*
G04 Created by KiCad (PCBNEW 7.0.1-3b83917a11~172~ubuntu22.04.1) date 2023-04-09 22:51:03*
%MOMM*%
%LPD*%
G01*
G04 APERTURE LIST*
%ADD10C,0.150000*%
%ADD11C,0.120000*%
G04 APERTURE END LIST*
D10*
X147558190Y-87538571D02*
X147605809Y-87490952D01*
X147605809Y-87490952D02*
X147701047Y-87348095D01*
X147701047Y-87348095D02*
X147748666Y-87252857D01*
X147748666Y-87252857D02*
X147796285Y-87110000D01*
X147796285Y-87110000D02*
X147843904Y-86871904D01*
X147843904Y-86871904D02*
X147843904Y-86681428D01*
X147843904Y-86681428D02*
X147796285Y-86443333D01*
X147796285Y-86443333D02*
X147748666Y-86300476D01*
X147748666Y-86300476D02*
X147701047Y-86205238D01*
X147701047Y-86205238D02*
X147605809Y-86062380D01*
X147605809Y-86062380D02*
X147558190Y-86014761D01*
X146605809Y-87062380D02*
X146653428Y-87110000D01*
X146653428Y-87110000D02*
X146796285Y-87157619D01*
X146796285Y-87157619D02*
X146891523Y-87157619D01*
X146891523Y-87157619D02*
X147034380Y-87110000D01*
X147034380Y-87110000D02*
X147129618Y-87014761D01*
X147129618Y-87014761D02*
X147177237Y-86919523D01*
X147177237Y-86919523D02*
X147224856Y-86729047D01*
X147224856Y-86729047D02*
X147224856Y-86586190D01*
X147224856Y-86586190D02*
X147177237Y-86395714D01*
X147177237Y-86395714D02*
X147129618Y-86300476D01*
X147129618Y-86300476D02*
X147034380Y-86205238D01*
X147034380Y-86205238D02*
X146891523Y-86157619D01*
X146891523Y-86157619D02*
X146796285Y-86157619D01*
X146796285Y-86157619D02*
X146653428Y-86205238D01*
X146653428Y-86205238D02*
X146605809Y-86252857D01*
X146272475Y-87538571D02*
X146224856Y-87490952D01*
X146224856Y-87490952D02*
X146129618Y-87348095D01*
X146129618Y-87348095D02*
X146081999Y-87252857D01*
X146081999Y-87252857D02*
X146034380Y-87110000D01*
X146034380Y-87110000D02*
X145986761Y-86871904D01*
X145986761Y-86871904D02*
X145986761Y-86681428D01*
X145986761Y-86681428D02*
X146034380Y-86443333D01*
X146034380Y-86443333D02*
X146081999Y-86300476D01*
X146081999Y-86300476D02*
X146129618Y-86205238D01*
X146129618Y-86205238D02*
X146224856Y-86062380D01*
X146224856Y-86062380D02*
X146272475Y-86014761D01*
X144796284Y-87110000D02*
X144653427Y-87157619D01*
X144653427Y-87157619D02*
X144415332Y-87157619D01*
X144415332Y-87157619D02*
X144320094Y-87110000D01*
X144320094Y-87110000D02*
X144272475Y-87062380D01*
X144272475Y-87062380D02*
X144224856Y-86967142D01*
X144224856Y-86967142D02*
X144224856Y-86871904D01*
X144224856Y-86871904D02*
X144272475Y-86776666D01*
X144272475Y-86776666D02*
X144320094Y-86729047D01*
X144320094Y-86729047D02*
X144415332Y-86681428D01*
X144415332Y-86681428D02*
X144605808Y-86633809D01*
X144605808Y-86633809D02*
X144701046Y-86586190D01*
X144701046Y-86586190D02*
X144748665Y-86538571D01*
X144748665Y-86538571D02*
X144796284Y-86443333D01*
X144796284Y-86443333D02*
X144796284Y-86348095D01*
X144796284Y-86348095D02*
X144748665Y-86252857D01*
X144748665Y-86252857D02*
X144701046Y-86205238D01*
X144701046Y-86205238D02*
X144605808Y-86157619D01*
X144605808Y-86157619D02*
X144367713Y-86157619D01*
X144367713Y-86157619D02*
X144224856Y-86205238D01*
X143415332Y-87110000D02*
X143510570Y-87157619D01*
X143510570Y-87157619D02*
X143701046Y-87157619D01*
X143701046Y-87157619D02*
X143796284Y-87110000D01*
X143796284Y-87110000D02*
X143843903Y-87014761D01*
X143843903Y-87014761D02*
X143843903Y-86633809D01*
X143843903Y-86633809D02*
X143796284Y-86538571D01*
X143796284Y-86538571D02*
X143701046Y-86490952D01*
X143701046Y-86490952D02*
X143510570Y-86490952D01*
X143510570Y-86490952D02*
X143415332Y-86538571D01*
X143415332Y-86538571D02*
X143367713Y-86633809D01*
X143367713Y-86633809D02*
X143367713Y-86729047D01*
X143367713Y-86729047D02*
X143843903Y-86824285D01*
X142939141Y-87157619D02*
X142939141Y-86490952D01*
X142939141Y-86157619D02*
X142986760Y-86205238D01*
X142986760Y-86205238D02*
X142939141Y-86252857D01*
X142939141Y-86252857D02*
X142891522Y-86205238D01*
X142891522Y-86205238D02*
X142939141Y-86157619D01*
X142939141Y-86157619D02*
X142939141Y-86252857D01*
X142462951Y-87157619D02*
X142462951Y-86490952D01*
X142462951Y-86157619D02*
X142510570Y-86205238D01*
X142510570Y-86205238D02*
X142462951Y-86252857D01*
X142462951Y-86252857D02*
X142415332Y-86205238D01*
X142415332Y-86205238D02*
X142462951Y-86157619D01*
X142462951Y-86157619D02*
X142462951Y-86252857D01*
X141558190Y-87110000D02*
X141653428Y-87157619D01*
X141653428Y-87157619D02*
X141843904Y-87157619D01*
X141843904Y-87157619D02*
X141939142Y-87110000D01*
X141939142Y-87110000D02*
X141986761Y-87062380D01*
X141986761Y-87062380D02*
X142034380Y-86967142D01*
X142034380Y-86967142D02*
X142034380Y-86681428D01*
X142034380Y-86681428D02*
X141986761Y-86586190D01*
X141986761Y-86586190D02*
X141939142Y-86538571D01*
X141939142Y-86538571D02*
X141843904Y-86490952D01*
X141843904Y-86490952D02*
X141653428Y-86490952D01*
X141653428Y-86490952D02*
X141558190Y-86538571D01*
X141129618Y-87157619D02*
X141129618Y-86157619D01*
X140701047Y-87157619D02*
X140701047Y-86633809D01*
X140701047Y-86633809D02*
X140748666Y-86538571D01*
X140748666Y-86538571D02*
X140843904Y-86490952D01*
X140843904Y-86490952D02*
X140986761Y-86490952D01*
X140986761Y-86490952D02*
X141081999Y-86538571D01*
X141081999Y-86538571D02*
X141129618Y-86586190D01*
X140224856Y-87157619D02*
X140224856Y-86490952D01*
X140224856Y-86157619D02*
X140272475Y-86205238D01*
X140272475Y-86205238D02*
X140224856Y-86252857D01*
X140224856Y-86252857D02*
X140177237Y-86205238D01*
X140177237Y-86205238D02*
X140224856Y-86157619D01*
X140224856Y-86157619D02*
X140224856Y-86252857D01*
X138986761Y-87157619D02*
X138986761Y-86157619D01*
X138986761Y-86633809D02*
X138415333Y-86633809D01*
X138415333Y-87157619D02*
X138415333Y-86157619D01*
X137796285Y-87157619D02*
X137891523Y-87110000D01*
X137891523Y-87110000D02*
X137939142Y-87062380D01*
X137939142Y-87062380D02*
X137986761Y-86967142D01*
X137986761Y-86967142D02*
X137986761Y-86681428D01*
X137986761Y-86681428D02*
X137939142Y-86586190D01*
X137939142Y-86586190D02*
X137891523Y-86538571D01*
X137891523Y-86538571D02*
X137796285Y-86490952D01*
X137796285Y-86490952D02*
X137653428Y-86490952D01*
X137653428Y-86490952D02*
X137558190Y-86538571D01*
X137558190Y-86538571D02*
X137510571Y-86586190D01*
X137510571Y-86586190D02*
X137462952Y-86681428D01*
X137462952Y-86681428D02*
X137462952Y-86967142D01*
X137462952Y-86967142D02*
X137510571Y-87062380D01*
X137510571Y-87062380D02*
X137558190Y-87110000D01*
X137558190Y-87110000D02*
X137653428Y-87157619D01*
X137653428Y-87157619D02*
X137796285Y-87157619D01*
X137034380Y-87157619D02*
X137034380Y-86490952D01*
X137034380Y-86681428D02*
X136986761Y-86586190D01*
X136986761Y-86586190D02*
X136939142Y-86538571D01*
X136939142Y-86538571D02*
X136843904Y-86490952D01*
X136843904Y-86490952D02*
X136748666Y-86490952D01*
X136415332Y-87157619D02*
X136415332Y-86490952D01*
X136415332Y-86157619D02*
X136462951Y-86205238D01*
X136462951Y-86205238D02*
X136415332Y-86252857D01*
X136415332Y-86252857D02*
X136367713Y-86205238D01*
X136367713Y-86205238D02*
X136415332Y-86157619D01*
X136415332Y-86157619D02*
X136415332Y-86252857D01*
X135558190Y-87110000D02*
X135653428Y-87157619D01*
X135653428Y-87157619D02*
X135843904Y-87157619D01*
X135843904Y-87157619D02*
X135939142Y-87110000D01*
X135939142Y-87110000D02*
X135986761Y-87014761D01*
X135986761Y-87014761D02*
X135986761Y-86633809D01*
X135986761Y-86633809D02*
X135939142Y-86538571D01*
X135939142Y-86538571D02*
X135843904Y-86490952D01*
X135843904Y-86490952D02*
X135653428Y-86490952D01*
X135653428Y-86490952D02*
X135558190Y-86538571D01*
X135558190Y-86538571D02*
X135510571Y-86633809D01*
X135510571Y-86633809D02*
X135510571Y-86729047D01*
X135510571Y-86729047D02*
X135986761Y-86824285D01*
X135034380Y-87110000D02*
X135034380Y-87157619D01*
X135034380Y-87157619D02*
X135081999Y-87252857D01*
X135081999Y-87252857D02*
X135129618Y-87300476D01*
X133891523Y-86252857D02*
X133843904Y-86205238D01*
X133843904Y-86205238D02*
X133748666Y-86157619D01*
X133748666Y-86157619D02*
X133510571Y-86157619D01*
X133510571Y-86157619D02*
X133415333Y-86205238D01*
X133415333Y-86205238D02*
X133367714Y-86252857D01*
X133367714Y-86252857D02*
X133320095Y-86348095D01*
X133320095Y-86348095D02*
X133320095Y-86443333D01*
X133320095Y-86443333D02*
X133367714Y-86586190D01*
X133367714Y-86586190D02*
X133939142Y-87157619D01*
X133939142Y-87157619D02*
X133320095Y-87157619D01*
X132701047Y-86157619D02*
X132605809Y-86157619D01*
X132605809Y-86157619D02*
X132510571Y-86205238D01*
X132510571Y-86205238D02*
X132462952Y-86252857D01*
X132462952Y-86252857D02*
X132415333Y-86348095D01*
X132415333Y-86348095D02*
X132367714Y-86538571D01*
X132367714Y-86538571D02*
X132367714Y-86776666D01*
X132367714Y-86776666D02*
X132415333Y-86967142D01*
X132415333Y-86967142D02*
X132462952Y-87062380D01*
X132462952Y-87062380D02*
X132510571Y-87110000D01*
X132510571Y-87110000D02*
X132605809Y-87157619D01*
X132605809Y-87157619D02*
X132701047Y-87157619D01*
X132701047Y-87157619D02*
X132796285Y-87110000D01*
X132796285Y-87110000D02*
X132843904Y-87062380D01*
X132843904Y-87062380D02*
X132891523Y-86967142D01*
X132891523Y-86967142D02*
X132939142Y-86776666D01*
X132939142Y-86776666D02*
X132939142Y-86538571D01*
X132939142Y-86538571D02*
X132891523Y-86348095D01*
X132891523Y-86348095D02*
X132843904Y-86252857D01*
X132843904Y-86252857D02*
X132796285Y-86205238D01*
X132796285Y-86205238D02*
X132701047Y-86157619D01*
X131986761Y-86252857D02*
X131939142Y-86205238D01*
X131939142Y-86205238D02*
X131843904Y-86157619D01*
X131843904Y-86157619D02*
X131605809Y-86157619D01*
X131605809Y-86157619D02*
X131510571Y-86205238D01*
X131510571Y-86205238D02*
X131462952Y-86252857D01*
X131462952Y-86252857D02*
X131415333Y-86348095D01*
X131415333Y-86348095D02*
X131415333Y-86443333D01*
X131415333Y-86443333D02*
X131462952Y-86586190D01*
X131462952Y-86586190D02*
X132034380Y-87157619D01*
X132034380Y-87157619D02*
X131415333Y-87157619D01*
X131081999Y-86157619D02*
X130462952Y-86157619D01*
X130462952Y-86157619D02*
X130796285Y-86538571D01*
X130796285Y-86538571D02*
X130653428Y-86538571D01*
X130653428Y-86538571D02*
X130558190Y-86586190D01*
X130558190Y-86586190D02*
X130510571Y-86633809D01*
X130510571Y-86633809D02*
X130462952Y-86729047D01*
X130462952Y-86729047D02*
X130462952Y-86967142D01*
X130462952Y-86967142D02*
X130510571Y-87062380D01*
X130510571Y-87062380D02*
X130558190Y-87110000D01*
X130558190Y-87110000D02*
X130653428Y-87157619D01*
X130653428Y-87157619D02*
X130939142Y-87157619D01*
X130939142Y-87157619D02*
X131034380Y-87110000D01*
X131034380Y-87110000D02*
X131081999Y-87062380D01*
X147843904Y-88777619D02*
X147843904Y-87777619D01*
X147415333Y-88777619D02*
X147415333Y-88253809D01*
X147415333Y-88253809D02*
X147462952Y-88158571D01*
X147462952Y-88158571D02*
X147558190Y-88110952D01*
X147558190Y-88110952D02*
X147701047Y-88110952D01*
X147701047Y-88110952D02*
X147796285Y-88158571D01*
X147796285Y-88158571D02*
X147843904Y-88206190D01*
X147081999Y-88110952D02*
X146701047Y-88110952D01*
X146939142Y-87777619D02*
X146939142Y-88634761D01*
X146939142Y-88634761D02*
X146891523Y-88730000D01*
X146891523Y-88730000D02*
X146796285Y-88777619D01*
X146796285Y-88777619D02*
X146701047Y-88777619D01*
X146510570Y-88110952D02*
X146129618Y-88110952D01*
X146367713Y-87777619D02*
X146367713Y-88634761D01*
X146367713Y-88634761D02*
X146320094Y-88730000D01*
X146320094Y-88730000D02*
X146224856Y-88777619D01*
X146224856Y-88777619D02*
X146129618Y-88777619D01*
X145796284Y-88110952D02*
X145796284Y-89110952D01*
X145796284Y-88158571D02*
X145701046Y-88110952D01*
X145701046Y-88110952D02*
X145510570Y-88110952D01*
X145510570Y-88110952D02*
X145415332Y-88158571D01*
X145415332Y-88158571D02*
X145367713Y-88206190D01*
X145367713Y-88206190D02*
X145320094Y-88301428D01*
X145320094Y-88301428D02*
X145320094Y-88587142D01*
X145320094Y-88587142D02*
X145367713Y-88682380D01*
X145367713Y-88682380D02*
X145415332Y-88730000D01*
X145415332Y-88730000D02*
X145510570Y-88777619D01*
X145510570Y-88777619D02*
X145701046Y-88777619D01*
X145701046Y-88777619D02*
X145796284Y-88730000D01*
X144939141Y-88730000D02*
X144843903Y-88777619D01*
X144843903Y-88777619D02*
X144653427Y-88777619D01*
X144653427Y-88777619D02*
X144558189Y-88730000D01*
X144558189Y-88730000D02*
X144510570Y-88634761D01*
X144510570Y-88634761D02*
X144510570Y-88587142D01*
X144510570Y-88587142D02*
X144558189Y-88491904D01*
X144558189Y-88491904D02*
X144653427Y-88444285D01*
X144653427Y-88444285D02*
X144796284Y-88444285D01*
X144796284Y-88444285D02*
X144891522Y-88396666D01*
X144891522Y-88396666D02*
X144939141Y-88301428D01*
X144939141Y-88301428D02*
X144939141Y-88253809D01*
X144939141Y-88253809D02*
X144891522Y-88158571D01*
X144891522Y-88158571D02*
X144796284Y-88110952D01*
X144796284Y-88110952D02*
X144653427Y-88110952D01*
X144653427Y-88110952D02*
X144558189Y-88158571D01*
X144081998Y-88682380D02*
X144034379Y-88730000D01*
X144034379Y-88730000D02*
X144081998Y-88777619D01*
X144081998Y-88777619D02*
X144129617Y-88730000D01*
X144129617Y-88730000D02*
X144081998Y-88682380D01*
X144081998Y-88682380D02*
X144081998Y-88777619D01*
X144081998Y-88158571D02*
X144034379Y-88206190D01*
X144034379Y-88206190D02*
X144081998Y-88253809D01*
X144081998Y-88253809D02*
X144129617Y-88206190D01*
X144129617Y-88206190D02*
X144081998Y-88158571D01*
X144081998Y-88158571D02*
X144081998Y-88253809D01*
X142891523Y-87730000D02*
X143748665Y-89015714D01*
X141843904Y-87730000D02*
X142701046Y-89015714D01*
X141081999Y-88110952D02*
X141081999Y-88920476D01*
X141081999Y-88920476D02*
X141129618Y-89015714D01*
X141129618Y-89015714D02*
X141177237Y-89063333D01*
X141177237Y-89063333D02*
X141272475Y-89110952D01*
X141272475Y-89110952D02*
X141415332Y-89110952D01*
X141415332Y-89110952D02*
X141510570Y-89063333D01*
X141081999Y-88730000D02*
X141177237Y-88777619D01*
X141177237Y-88777619D02*
X141367713Y-88777619D01*
X141367713Y-88777619D02*
X141462951Y-88730000D01*
X141462951Y-88730000D02*
X141510570Y-88682380D01*
X141510570Y-88682380D02*
X141558189Y-88587142D01*
X141558189Y-88587142D02*
X141558189Y-88301428D01*
X141558189Y-88301428D02*
X141510570Y-88206190D01*
X141510570Y-88206190D02*
X141462951Y-88158571D01*
X141462951Y-88158571D02*
X141367713Y-88110952D01*
X141367713Y-88110952D02*
X141177237Y-88110952D01*
X141177237Y-88110952D02*
X141081999Y-88158571D01*
X140605808Y-88777619D02*
X140605808Y-88110952D01*
X140605808Y-87777619D02*
X140653427Y-87825238D01*
X140653427Y-87825238D02*
X140605808Y-87872857D01*
X140605808Y-87872857D02*
X140558189Y-87825238D01*
X140558189Y-87825238D02*
X140605808Y-87777619D01*
X140605808Y-87777619D02*
X140605808Y-87872857D01*
X140272475Y-88110952D02*
X139891523Y-88110952D01*
X140129618Y-87777619D02*
X140129618Y-88634761D01*
X140129618Y-88634761D02*
X140081999Y-88730000D01*
X140081999Y-88730000D02*
X139986761Y-88777619D01*
X139986761Y-88777619D02*
X139891523Y-88777619D01*
X139558189Y-88777619D02*
X139558189Y-87777619D01*
X139129618Y-88777619D02*
X139129618Y-88253809D01*
X139129618Y-88253809D02*
X139177237Y-88158571D01*
X139177237Y-88158571D02*
X139272475Y-88110952D01*
X139272475Y-88110952D02*
X139415332Y-88110952D01*
X139415332Y-88110952D02*
X139510570Y-88158571D01*
X139510570Y-88158571D02*
X139558189Y-88206190D01*
X138224856Y-88110952D02*
X138224856Y-88777619D01*
X138653427Y-88110952D02*
X138653427Y-88634761D01*
X138653427Y-88634761D02*
X138605808Y-88730000D01*
X138605808Y-88730000D02*
X138510570Y-88777619D01*
X138510570Y-88777619D02*
X138367713Y-88777619D01*
X138367713Y-88777619D02*
X138272475Y-88730000D01*
X138272475Y-88730000D02*
X138224856Y-88682380D01*
X137748665Y-88777619D02*
X137748665Y-87777619D01*
X137748665Y-88158571D02*
X137653427Y-88110952D01*
X137653427Y-88110952D02*
X137462951Y-88110952D01*
X137462951Y-88110952D02*
X137367713Y-88158571D01*
X137367713Y-88158571D02*
X137320094Y-88206190D01*
X137320094Y-88206190D02*
X137272475Y-88301428D01*
X137272475Y-88301428D02*
X137272475Y-88587142D01*
X137272475Y-88587142D02*
X137320094Y-88682380D01*
X137320094Y-88682380D02*
X137367713Y-88730000D01*
X137367713Y-88730000D02*
X137462951Y-88777619D01*
X137462951Y-88777619D02*
X137653427Y-88777619D01*
X137653427Y-88777619D02*
X137748665Y-88730000D01*
X136843903Y-88682380D02*
X136796284Y-88730000D01*
X136796284Y-88730000D02*
X136843903Y-88777619D01*
X136843903Y-88777619D02*
X136891522Y-88730000D01*
X136891522Y-88730000D02*
X136843903Y-88682380D01*
X136843903Y-88682380D02*
X136843903Y-88777619D01*
X135939142Y-88730000D02*
X136034380Y-88777619D01*
X136034380Y-88777619D02*
X136224856Y-88777619D01*
X136224856Y-88777619D02*
X136320094Y-88730000D01*
X136320094Y-88730000D02*
X136367713Y-88682380D01*
X136367713Y-88682380D02*
X136415332Y-88587142D01*
X136415332Y-88587142D02*
X136415332Y-88301428D01*
X136415332Y-88301428D02*
X136367713Y-88206190D01*
X136367713Y-88206190D02*
X136320094Y-88158571D01*
X136320094Y-88158571D02*
X136224856Y-88110952D01*
X136224856Y-88110952D02*
X136034380Y-88110952D01*
X136034380Y-88110952D02*
X135939142Y-88158571D01*
X135367713Y-88777619D02*
X135462951Y-88730000D01*
X135462951Y-88730000D02*
X135510570Y-88682380D01*
X135510570Y-88682380D02*
X135558189Y-88587142D01*
X135558189Y-88587142D02*
X135558189Y-88301428D01*
X135558189Y-88301428D02*
X135510570Y-88206190D01*
X135510570Y-88206190D02*
X135462951Y-88158571D01*
X135462951Y-88158571D02*
X135367713Y-88110952D01*
X135367713Y-88110952D02*
X135224856Y-88110952D01*
X135224856Y-88110952D02*
X135129618Y-88158571D01*
X135129618Y-88158571D02*
X135081999Y-88206190D01*
X135081999Y-88206190D02*
X135034380Y-88301428D01*
X135034380Y-88301428D02*
X135034380Y-88587142D01*
X135034380Y-88587142D02*
X135081999Y-88682380D01*
X135081999Y-88682380D02*
X135129618Y-88730000D01*
X135129618Y-88730000D02*
X135224856Y-88777619D01*
X135224856Y-88777619D02*
X135367713Y-88777619D01*
X134605808Y-88777619D02*
X134605808Y-88110952D01*
X134605808Y-88206190D02*
X134558189Y-88158571D01*
X134558189Y-88158571D02*
X134462951Y-88110952D01*
X134462951Y-88110952D02*
X134320094Y-88110952D01*
X134320094Y-88110952D02*
X134224856Y-88158571D01*
X134224856Y-88158571D02*
X134177237Y-88253809D01*
X134177237Y-88253809D02*
X134177237Y-88777619D01*
X134177237Y-88253809D02*
X134129618Y-88158571D01*
X134129618Y-88158571D02*
X134034380Y-88110952D01*
X134034380Y-88110952D02*
X133891523Y-88110952D01*
X133891523Y-88110952D02*
X133796284Y-88158571D01*
X133796284Y-88158571D02*
X133748665Y-88253809D01*
X133748665Y-88253809D02*
X133748665Y-88777619D01*
X132558190Y-87730000D02*
X133415332Y-89015714D01*
X132272475Y-88730000D02*
X132177237Y-88777619D01*
X132177237Y-88777619D02*
X131986761Y-88777619D01*
X131986761Y-88777619D02*
X131891523Y-88730000D01*
X131891523Y-88730000D02*
X131843904Y-88634761D01*
X131843904Y-88634761D02*
X131843904Y-88587142D01*
X131843904Y-88587142D02*
X131891523Y-88491904D01*
X131891523Y-88491904D02*
X131986761Y-88444285D01*
X131986761Y-88444285D02*
X132129618Y-88444285D01*
X132129618Y-88444285D02*
X132224856Y-88396666D01*
X132224856Y-88396666D02*
X132272475Y-88301428D01*
X132272475Y-88301428D02*
X132272475Y-88253809D01*
X132272475Y-88253809D02*
X132224856Y-88158571D01*
X132224856Y-88158571D02*
X132129618Y-88110952D01*
X132129618Y-88110952D02*
X131986761Y-88110952D01*
X131986761Y-88110952D02*
X131891523Y-88158571D01*
X130986761Y-88110952D02*
X130986761Y-88777619D01*
X131415332Y-88110952D02*
X131415332Y-88634761D01*
X131415332Y-88634761D02*
X131367713Y-88730000D01*
X131367713Y-88730000D02*
X131272475Y-88777619D01*
X131272475Y-88777619D02*
X131129618Y-88777619D01*
X131129618Y-88777619D02*
X131034380Y-88730000D01*
X131034380Y-88730000D02*
X130986761Y-88682380D01*
X130510570Y-88777619D02*
X130510570Y-88110952D01*
X130510570Y-87777619D02*
X130558189Y-87825238D01*
X130558189Y-87825238D02*
X130510570Y-87872857D01*
X130510570Y-87872857D02*
X130462951Y-87825238D01*
X130462951Y-87825238D02*
X130510570Y-87777619D01*
X130510570Y-87777619D02*
X130510570Y-87872857D01*
X130034380Y-88777619D02*
X130034380Y-87777619D01*
X129939142Y-88396666D02*
X129653428Y-88777619D01*
X129653428Y-88110952D02*
X130034380Y-88491904D01*
X128796285Y-88777619D02*
X128796285Y-88253809D01*
X128796285Y-88253809D02*
X128843904Y-88158571D01*
X128843904Y-88158571D02*
X128939142Y-88110952D01*
X128939142Y-88110952D02*
X129129618Y-88110952D01*
X129129618Y-88110952D02*
X129224856Y-88158571D01*
X128796285Y-88730000D02*
X128891523Y-88777619D01*
X128891523Y-88777619D02*
X129129618Y-88777619D01*
X129129618Y-88777619D02*
X129224856Y-88730000D01*
X129224856Y-88730000D02*
X129272475Y-88634761D01*
X129272475Y-88634761D02*
X129272475Y-88539523D01*
X129272475Y-88539523D02*
X129224856Y-88444285D01*
X129224856Y-88444285D02*
X129129618Y-88396666D01*
X129129618Y-88396666D02*
X128891523Y-88396666D01*
X128891523Y-88396666D02*
X128796285Y-88349047D01*
X128320094Y-88110952D02*
X128320094Y-88777619D01*
X128320094Y-88206190D02*
X128272475Y-88158571D01*
X128272475Y-88158571D02*
X128177237Y-88110952D01*
X128177237Y-88110952D02*
X128034380Y-88110952D01*
X128034380Y-88110952D02*
X127939142Y-88158571D01*
X127939142Y-88158571D02*
X127891523Y-88253809D01*
X127891523Y-88253809D02*
X127891523Y-88777619D01*
X126986761Y-88110952D02*
X126986761Y-88777619D01*
X127224856Y-87730000D02*
X127462951Y-88444285D01*
X127462951Y-88444285D02*
X126843904Y-88444285D01*
X126034380Y-88110952D02*
X126034380Y-88920476D01*
X126034380Y-88920476D02*
X126081999Y-89015714D01*
X126081999Y-89015714D02*
X126129618Y-89063333D01*
X126129618Y-89063333D02*
X126224856Y-89110952D01*
X126224856Y-89110952D02*
X126367713Y-89110952D01*
X126367713Y-89110952D02*
X126462951Y-89063333D01*
X126034380Y-88730000D02*
X126129618Y-88777619D01*
X126129618Y-88777619D02*
X126320094Y-88777619D01*
X126320094Y-88777619D02*
X126415332Y-88730000D01*
X126415332Y-88730000D02*
X126462951Y-88682380D01*
X126462951Y-88682380D02*
X126510570Y-88587142D01*
X126510570Y-88587142D02*
X126510570Y-88301428D01*
X126510570Y-88301428D02*
X126462951Y-88206190D01*
X126462951Y-88206190D02*
X126415332Y-88158571D01*
X126415332Y-88158571D02*
X126320094Y-88110952D01*
X126320094Y-88110952D02*
X126129618Y-88110952D01*
X126129618Y-88110952D02*
X126034380Y-88158571D01*
X125558189Y-88777619D02*
X125558189Y-88110952D01*
X125558189Y-87777619D02*
X125605808Y-87825238D01*
X125605808Y-87825238D02*
X125558189Y-87872857D01*
X125558189Y-87872857D02*
X125510570Y-87825238D01*
X125510570Y-87825238D02*
X125558189Y-87777619D01*
X125558189Y-87777619D02*
X125558189Y-87872857D01*
X125224856Y-88110952D02*
X124843904Y-88110952D01*
X125081999Y-87777619D02*
X125081999Y-88634761D01*
X125081999Y-88634761D02*
X125034380Y-88730000D01*
X125034380Y-88730000D02*
X124939142Y-88777619D01*
X124939142Y-88777619D02*
X124843904Y-88777619D01*
X124510570Y-88777619D02*
X124510570Y-87777619D01*
X124081999Y-88777619D02*
X124081999Y-88253809D01*
X124081999Y-88253809D02*
X124129618Y-88158571D01*
X124129618Y-88158571D02*
X124224856Y-88110952D01*
X124224856Y-88110952D02*
X124367713Y-88110952D01*
X124367713Y-88110952D02*
X124462951Y-88158571D01*
X124462951Y-88158571D02*
X124510570Y-88206190D01*
X123177237Y-88110952D02*
X123177237Y-88777619D01*
X123605808Y-88110952D02*
X123605808Y-88634761D01*
X123605808Y-88634761D02*
X123558189Y-88730000D01*
X123558189Y-88730000D02*
X123462951Y-88777619D01*
X123462951Y-88777619D02*
X123320094Y-88777619D01*
X123320094Y-88777619D02*
X123224856Y-88730000D01*
X123224856Y-88730000D02*
X123177237Y-88682380D01*
X122701046Y-88777619D02*
X122701046Y-87777619D01*
X122701046Y-88158571D02*
X122605808Y-88110952D01*
X122605808Y-88110952D02*
X122415332Y-88110952D01*
X122415332Y-88110952D02*
X122320094Y-88158571D01*
X122320094Y-88158571D02*
X122272475Y-88206190D01*
X122272475Y-88206190D02*
X122224856Y-88301428D01*
X122224856Y-88301428D02*
X122224856Y-88587142D01*
X122224856Y-88587142D02*
X122272475Y-88682380D01*
X122272475Y-88682380D02*
X122320094Y-88730000D01*
X122320094Y-88730000D02*
X122415332Y-88777619D01*
X122415332Y-88777619D02*
X122605808Y-88777619D01*
X122605808Y-88777619D02*
X122701046Y-88730000D01*
X121081999Y-87730000D02*
X121939141Y-89015714D01*
X120796284Y-88491904D02*
X120320094Y-88491904D01*
X120891522Y-88777619D02*
X120558189Y-87777619D01*
X120558189Y-87777619D02*
X120224856Y-88777619D01*
X119891522Y-88777619D02*
X119891522Y-87777619D01*
X119796284Y-88396666D02*
X119510570Y-88777619D01*
X119510570Y-88110952D02*
X119891522Y-88491904D01*
X118653427Y-88777619D02*
X118653427Y-88253809D01*
X118653427Y-88253809D02*
X118701046Y-88158571D01*
X118701046Y-88158571D02*
X118796284Y-88110952D01*
X118796284Y-88110952D02*
X118986760Y-88110952D01*
X118986760Y-88110952D02*
X119081998Y-88158571D01*
X118653427Y-88730000D02*
X118748665Y-88777619D01*
X118748665Y-88777619D02*
X118986760Y-88777619D01*
X118986760Y-88777619D02*
X119081998Y-88730000D01*
X119081998Y-88730000D02*
X119129617Y-88634761D01*
X119129617Y-88634761D02*
X119129617Y-88539523D01*
X119129617Y-88539523D02*
X119081998Y-88444285D01*
X119081998Y-88444285D02*
X118986760Y-88396666D01*
X118986760Y-88396666D02*
X118748665Y-88396666D01*
X118748665Y-88396666D02*
X118653427Y-88349047D01*
X118224855Y-88730000D02*
X118129617Y-88777619D01*
X118129617Y-88777619D02*
X117939141Y-88777619D01*
X117939141Y-88777619D02*
X117843903Y-88730000D01*
X117843903Y-88730000D02*
X117796284Y-88634761D01*
X117796284Y-88634761D02*
X117796284Y-88587142D01*
X117796284Y-88587142D02*
X117843903Y-88491904D01*
X117843903Y-88491904D02*
X117939141Y-88444285D01*
X117939141Y-88444285D02*
X118081998Y-88444285D01*
X118081998Y-88444285D02*
X118177236Y-88396666D01*
X118177236Y-88396666D02*
X118224855Y-88301428D01*
X118224855Y-88301428D02*
X118224855Y-88253809D01*
X118224855Y-88253809D02*
X118177236Y-88158571D01*
X118177236Y-88158571D02*
X118081998Y-88110952D01*
X118081998Y-88110952D02*
X117939141Y-88110952D01*
X117939141Y-88110952D02*
X117843903Y-88158571D01*
X117367712Y-88777619D02*
X117367712Y-87777619D01*
X116939141Y-88777619D02*
X116939141Y-88253809D01*
X116939141Y-88253809D02*
X116986760Y-88158571D01*
X116986760Y-88158571D02*
X117081998Y-88110952D01*
X117081998Y-88110952D02*
X117224855Y-88110952D01*
X117224855Y-88110952D02*
X117320093Y-88158571D01*
X117320093Y-88158571D02*
X117367712Y-88206190D01*
X116462950Y-88777619D02*
X116462950Y-88110952D01*
X116462950Y-87777619D02*
X116510569Y-87825238D01*
X116510569Y-87825238D02*
X116462950Y-87872857D01*
X116462950Y-87872857D02*
X116415331Y-87825238D01*
X116415331Y-87825238D02*
X116462950Y-87777619D01*
X116462950Y-87777619D02*
X116462950Y-87872857D01*
X115986760Y-88396666D02*
X115224856Y-88396666D01*
X114224856Y-88777619D02*
X114796284Y-88777619D01*
X114510570Y-88777619D02*
X114510570Y-87777619D01*
X114510570Y-87777619D02*
X114605808Y-87920476D01*
X114605808Y-87920476D02*
X114701046Y-88015714D01*
X114701046Y-88015714D02*
X114796284Y-88063333D01*
X113367713Y-88110952D02*
X113367713Y-88777619D01*
X113605808Y-87730000D02*
X113843903Y-88444285D01*
X113843903Y-88444285D02*
X113224856Y-88444285D01*
X157178333Y-65502619D02*
X157178333Y-66216904D01*
X157178333Y-66216904D02*
X157225952Y-66359761D01*
X157225952Y-66359761D02*
X157321190Y-66455000D01*
X157321190Y-66455000D02*
X157464047Y-66502619D01*
X157464047Y-66502619D02*
X157559285Y-66502619D01*
X156749761Y-65597857D02*
X156702142Y-65550238D01*
X156702142Y-65550238D02*
X156606904Y-65502619D01*
X156606904Y-65502619D02*
X156368809Y-65502619D01*
X156368809Y-65502619D02*
X156273571Y-65550238D01*
X156273571Y-65550238D02*
X156225952Y-65597857D01*
X156225952Y-65597857D02*
X156178333Y-65693095D01*
X156178333Y-65693095D02*
X156178333Y-65788333D01*
X156178333Y-65788333D02*
X156225952Y-65931190D01*
X156225952Y-65931190D02*
X156797380Y-66502619D01*
X156797380Y-66502619D02*
X156178333Y-66502619D01*
X106378333Y-65502619D02*
X106378333Y-66216904D01*
X106378333Y-66216904D02*
X106425952Y-66359761D01*
X106425952Y-66359761D02*
X106521190Y-66455000D01*
X106521190Y-66455000D02*
X106664047Y-66502619D01*
X106664047Y-66502619D02*
X106759285Y-66502619D01*
X105378333Y-66502619D02*
X105949761Y-66502619D01*
X105664047Y-66502619D02*
X105664047Y-65502619D01*
X105664047Y-65502619D02*
X105759285Y-65645476D01*
X105759285Y-65645476D02*
X105854523Y-65740714D01*
X105854523Y-65740714D02*
X105949761Y-65788333D01*
D11*
X163890000Y-153730000D02*
X158690000Y-153730000D01*
X163890000Y-64710000D02*
X163890000Y-153730000D01*
X163890000Y-64710000D02*
X161290000Y-64710000D01*
X161290000Y-67310000D02*
X158690000Y-67310000D01*
X161290000Y-64710000D02*
X161290000Y-67310000D01*
X160020000Y-64710000D02*
X158690000Y-64710000D01*
X158690000Y-67310000D02*
X158690000Y-153730000D01*
X158690000Y-64710000D02*
X158690000Y-66040000D01*
X104180000Y-153730000D02*
X98980000Y-153730000D01*
X104180000Y-64710000D02*
X104180000Y-153730000D01*
X104180000Y-64710000D02*
X101580000Y-64710000D01*
X101580000Y-67310000D02*
X98980000Y-67310000D01*
X101580000Y-64710000D02*
X101580000Y-67310000D01*
X100310000Y-64710000D02*
X98980000Y-64710000D01*
X98980000Y-67310000D02*
X98980000Y-153730000D01*
X98980000Y-64710000D02*
X98980000Y-66040000D01*
M02*
